<?xml version="1.0" encoding="utf-8"?>
<!-- Generator: Adobe Illustrator 24.2.1, SVG Export Plug-In . SVG Version: 6.00 Build 0)  -->
<svg version="1.1" id="圖層_1" xmlns="http://www.w3.org/2000/svg" xmlns:xlink="http://www.w3.org/1999/xlink" x="0px" y="0px"
	 viewBox="0 0 26.1 23" style="enable-background:new 0 0 26.1 23;" xml:space="preserve">
<style type="text/css">
	.st0{fill:#32BCC9;}
</style>
<g>
	<path class="st0" d="M0,0v23h26.1V0H0z M24.8,3h-1.4V1H22v2h-1.8V1.3h4.6V3z M6.3,20.1v1.6H4.5v-1.6H6.3z M7.6,20.1h1.8v1.6H7.6
		V20.1z M10.8,20.1h1.8v1.6h-1.8V20.1z M13.9,20.1h1.8v1.6h-1.8V20.1z M17,20.1h1.8v1.6H17V20.1z M20.2,20.1H22v1.6h-1.8V20.1z
		 M1.3,18.8l0-14.4h23.4v14.4H1.3z M17,3V1.3h1.8V3H17z M15.7,3h-1.8V1.3h1.8V3z M12.6,3h-1.8V1.3h1.8V3z M9.4,3H7.6V1.3h1.8V3z
		 M6.3,3H4.5V1.3h1.8V3z M3.2,1.3V3H1.3l0-1.7H3.2z M1.3,20.1h1.8v1.6H1.3L1.3,20.1z M23.3,21.7v-1.6h1.4v1.6H23.3z"/>
	<path class="st0" d="M16.5,10.9l-4.9-2.8c-0.2-0.1-0.5-0.1-0.7,0c-0.2,0.1-0.3,0.3-0.3,0.6v5.7c0,0.2,0.1,0.5,0.3,0.6
		C11,15,11.1,15,11.3,15c0.1,0,0.2,0,0.3-0.1l4.9-2.8c0.2-0.1,0.3-0.3,0.3-0.6C16.9,11.2,16.7,11,16.5,10.9z M12,13.1V9.8l2.9,1.7
		L12,13.1z"/>
</g>
</svg>
