<?xml version="1.0" encoding="utf-8"?>
<!-- Generator: Adobe Illustrator 24.1.3, SVG Export Plug-In . SVG Version: 6.00 Build 0)  -->
<svg version="1.1" id="圖層_1" xmlns="http://www.w3.org/2000/svg" xmlns:xlink="http://www.w3.org/1999/xlink" x="0px" y="0px"
	 viewBox="0 0 219 25" style="enable-background:new 0 0 219 25;" xml:space="preserve">
<style type="text/css">
	.st0{clip-path:url(#SVGID_2_);}
	.st1{enable-background:new    ;}
	.st2{fill:#FFFFFF;}
</style>
<g>
	<defs>
		<rect id="SVGID_1_" width="219" height="25"/>
	</defs>
	<clipPath id="SVGID_2_">
		<use xlink:href="#SVGID_1_"  style="overflow:visible;"/>
	</clipPath>
	<g id="keiartlearning" class="st0">
		<g class="st1">
			<path class="st2" d="M2.1,1.1H6v7.7h0.1c0.4-0.7,0.8-1.3,1.2-1.9l4-5.8h4.9l-5.8,7.5l6.1,10.1h-4.6l-4.3-7.6L6,12.9v5.7H2.1V1.1z
				"/>
			<path class="st2" d="M30.5,11.2h-6.4v4.2h7.2v3.3H20.1V1.1h10.8v3.3h-6.8V8h6.4V11.2z"/>
			<path class="st2" d="M40,1.1v17.5h-4V1.1H40z"/>
			<path class="st2" d="M57,14.1l-1.2,4.5h-4.1L57,1.1h5.2l5.4,17.5h-4.3L62,14.1H57z M61.4,11.2l-1.1-3.7c-0.3-1-0.6-2.3-0.9-3.4
				h-0.1c-0.3,1-0.5,2.4-0.8,3.4l-1,3.7H61.4z"/>
			<path class="st2" d="M71.7,10.1c0-1.9-0.1-3.1-0.1-4.2H75l0.1,2.3h0.1c0.6-1.8,2.2-2.6,3.4-2.6c0.4,0,0.5,0,0.8,0.1v3.7
				c-0.3-0.1-0.6-0.1-1.1-0.1c-1.5,0-2.4,0.8-2.7,2c-0.1,0.3-0.1,0.6-0.1,0.9v6.4h-4V10.1z"/>
			<path class="st2" d="M88.7,2.5v3.5h2.8v2.9h-2.8v4.6c0,1.5,0.4,2.2,1.6,2.2c0.5,0,0.8,0,1.2-0.1l0,3c-0.5,0.2-1.5,0.4-2.6,0.4
				c-1.3,0-2.3-0.5-3-1.1c-0.7-0.8-1.1-2-1.1-3.8V8.8h-1.7V5.9h1.7V3.5L88.7,2.5z"/>
			<path class="st2" d="M103.3,1.1h4v14.2h7v3.3h-10.9V1.1z"/>
			<path class="st2" d="M121.4,13.5c0.1,1.6,1.7,2.4,3.6,2.4c1.4,0,2.4-0.2,3.5-0.5l0.5,2.7c-1.3,0.5-2.9,0.8-4.6,0.8
				c-4.3,0-6.8-2.5-6.8-6.5c0-3.2,2-6.8,6.4-6.8c4.1,0,5.7,3.2,5.7,6.3c0,0.7-0.1,1.3-0.1,1.6H121.4z M126,10.8c0-1-0.4-2.6-2.2-2.6
				c-1.7,0-2.3,1.5-2.4,2.6H126z"/>
			<path class="st2" d="M144.7,15.5c0,1.2,0.1,2.4,0.2,3.1h-3.6l-0.2-1.3H141c-0.8,1-2.1,1.6-3.6,1.6c-2.6,0-4.1-1.9-4.1-3.9
				c0-3.3,3-4.9,7.5-4.9V10c0-0.7-0.4-1.6-2.3-1.6c-1.3,0-2.7,0.4-3.5,1l-0.7-2.5c0.9-0.5,2.6-1.1,4.9-1.1c4.2,0,5.6,2.5,5.6,5.5
				V15.5z M140.9,12.6c-2.1,0-3.7,0.5-3.7,2c0,1,0.7,1.5,1.6,1.5c1,0,1.8-0.7,2.1-1.5c0.1-0.2,0.1-0.4,0.1-0.7V12.6z"/>
			<path class="st2" d="M149.9,10.1c0-1.9-0.1-3.1-0.1-4.2h3.4l0.1,2.3h0.1c0.7-1.8,2.2-2.6,3.4-2.6c0.4,0,0.5,0,0.8,0.1v3.7
				c-0.3-0.1-0.6-0.1-1.1-0.1c-1.5,0-2.4,0.8-2.7,2c-0.1,0.3-0.1,0.6-0.1,0.9v6.4h-4V10.1z"/>
			<path class="st2" d="M161.9,10c0-1.6-0.1-2.9-0.1-4.1h3.4l0.2,1.7h0.1c0.5-0.8,1.8-2,3.9-2c2.6,0,4.6,1.7,4.6,5.5v7.5h-4v-7
				c0-1.6-0.6-2.8-2-2.8c-1.1,0-1.7,0.8-2,1.5c-0.1,0.3-0.2,0.6-0.2,1v7.3h-4V10z"/>
			<path class="st2" d="M183.3,2.4c0,1.1-0.8,2-2.1,2c-1.2,0-2.1-0.9-2.1-2c0-1.1,0.8-2,2.1-2C182.5,0.4,183.3,1.2,183.3,2.4z
				 M179.2,18.6V5.9h4v12.7H179.2z"/>
			<path class="st2" d="M188.4,10c0-1.6-0.1-2.9-0.1-4.1h3.4l0.2,1.7h0.1c0.5-0.8,1.8-2,3.9-2c2.6,0,4.5,1.7,4.5,5.5v7.5h-4v-7
				c0-1.6-0.6-2.8-2-2.8c-1.1,0-1.7,0.8-2,1.5c-0.1,0.3-0.2,0.6-0.2,1v7.3h-4V10z"/>
			<path class="st2" d="M217.8,16.8c0,2.4-0.5,4.4-1.9,5.7c-1.4,1.2-3.3,1.6-5.2,1.6c-1.7,0-3.4-0.3-4.6-1l0.8-3
				c0.8,0.5,2.2,1,3.7,1c1.9,0,3.3-1,3.3-3.4v-0.8h-0.1c-0.8,1.1-2,1.7-3.4,1.7c-3.1,0-5.4-2.5-5.4-6.2c0-4.1,2.7-6.7,5.8-6.7
				c1.7,0,2.8,0.8,3.5,1.8h0.1l0.1-1.5h3.4c-0.1,0.8-0.1,1.9-0.1,3.8V16.8z M213.8,11.1c0-0.3,0-0.5-0.1-0.7c-0.3-1-1-1.7-2.1-1.7
				c-1.4,0-2.6,1.3-2.6,3.6c0,1.9,0.9,3.4,2.6,3.4c1,0,1.8-0.7,2.1-1.6c0.1-0.3,0.1-0.7,0.1-1V11.1z"/>
		</g>
	</g>
</g>
</svg>
