<?xml version="1.0" encoding="utf-8"?>
<!-- Generator: Adobe Illustrator 23.0.3, SVG Export Plug-In . SVG Version: 6.00 Build 0)  -->
<svg version="1.1" id="圖層_1" xmlns="http://www.w3.org/2000/svg" xmlns:xlink="http://www.w3.org/1999/xlink" x="0px" y="0px"
	 viewBox="0 0 246.71 246.71" style="enable-background:new 0 0 246.71 246.71;" xml:space="preserve">
<style type="text/css">
	.st0{fill:#65E9B9;}
	.st1{fill:#2DAD79;}
	.st2{fill:none;}
	.st3{fill:#6D6D6D;}
	.st4{fill:#565656;}
</style>
<g>
	<path class="st3" d="M23.06,174.37c1.22-1.08,2.52-2.08,3.66-3.24c8.87-8.91,18.86-16.15,30.65-20.75
		c8.71-3.39,17.74-5.3,27.08-5.37c16.81-0.12,33.62-0.05,50.42-0.06c0.51,0,1.03,0,1.64,0c0,7.97,0,15.75,0,23.76
		c-11.8,0-23.6,0-35.52,0c0,4.04,0,7.85,0,11.98c0.66,0,1.36,0,2.05,0c11.51,0,23.03,0.03,34.54-0.05c1.24-0.01,2.62-0.4,3.68-1.03
		c18.47-10.97,36.9-22.01,55.35-33.02c7.06-4.21,14.22-4.63,21.39-0.32c4.13,2.48,5.97,6.76,8.3,10.83
		c-5.61,3.29-11.13,6.52-16.66,9.76c-20.94,12.25-41.87,24.51-62.84,36.71c-1.02,0.59-2.34,0.91-3.53,0.92
		c-16.48,0.06-32.96,0.15-49.43,0c-10.6-0.1-20.07,2.8-28.34,9.47c-0.56,0.45-1.16,0.86-2.08,1.53
		c-13.47-13.58-26.93-27.14-40.39-40.71C23.06,174.63,23.06,174.5,23.06,174.37z"/>
	<path class="st4" d="M142.62,25.43c29.48,0.02,53.59,24.34,53.56,54.03c-0.02,29.55-24.23,53.68-53.75,53.57
		c-29.49-0.11-53.49-24.19-53.46-53.65C89.01,49.69,113.15,25.41,142.62,25.43z M136.63,50.65c-0.64,0.3-1.19,0.54-1.72,0.79
		c-12.4,5.99-13.77,22.81-2.5,30.71c3.13,2.19,6.65,3.1,10.44,3.26c3.14,0.13,5.5,2.54,5.67,5.57c0.17,2.98-1.98,5.64-5.02,6.21
		c-2.78,0.53-5.63-1.29-6.58-4.19c-0.18-0.54-0.33-1.08-0.5-1.64c-3.76,0-7.39,0-11.03,0.01c-0.18,0-0.37,0.11-0.54,0.16
		c-0.44,6.15,3.77,12.85,10.07,15.77c1.37,0.64,1.78,1.36,1.73,2.81c-0.11,3.61-0.04,7.23-0.04,10.86c4.1,0,7.96,0,11.91,0
		c0-3.65,0.08-7.15-0.04-10.65c-0.05-1.58,0.4-2.39,1.91-3.11c6.72-3.19,10.65-10.22,9.99-17.47c-0.68-7.39-5.85-13.65-13.02-15.59
		c-1.64-0.44-3.38-0.51-5.09-0.7c-3.21-0.35-5.6-2.8-5.66-5.86c-0.06-2.92,2.16-5.56,5.04-5.99c3.03-0.45,5.7,1.31,6.64,4.39
		c0.15,0.48,0.27,0.97,0.39,1.41c3.94,0,7.76,0,11.58,0c0.06-0.29,0.13-0.47,0.13-0.66c0-0.4,0-0.8-0.06-1.19
		c-0.92-6.42-4.19-11.22-10.06-14.03c-1.47-0.7-1.83-1.48-1.79-2.97c0.1-3.55,0.03-7.1,0.03-10.71c-4.07,0-7.92,0-11.91,0
		C136.63,42.22,136.63,46.44,136.63,50.65z"/>
</g>
</svg>
