<?xml version="1.0" encoding="utf-8"?>
<!-- Generator: Adobe Illustrator 23.0.3, SVG Export Plug-In . SVG Version: 6.00 Build 0)  -->
<svg version="1.1" id="圖層_1" xmlns="http://www.w3.org/2000/svg" xmlns:xlink="http://www.w3.org/1999/xlink" x="0px" y="0px"
	 viewBox="0 0 246.71 246.71" style="enable-background:new 0 0 246.71 246.71;" xml:space="preserve">
<style type="text/css">
	.st0{fill:#65E9B9;}
	.st1{fill:#2DAD79;}
	.st2{fill:none;}
	.st3{fill:#6D6D6D;}
	.st4{fill:#565656;}
</style>
<g>
	<path class="st2" d="M119.48,158.82c-0.14-0.45-0.25-0.92-0.38-1.38c-3.6,0-7.16,0-10.86,0c0.46,7.49,4.19,12.46,11.04,15.41
		c0,3.88,0,7.8,0,11.74c1.94,0,3.84,0,5.72,0v-21.8C122.59,162.95,120.28,161.34,119.48,158.82z"/>
	<path class="st2" d="M119.26,118.04c0.04,1.36-0.29,2.09-1.65,2.72c-9.34,4.37-12.25,16.13-6.09,24.39
		c3.31,4.44,7.82,6.55,13.33,6.72c0.05,0,0.1,0.02,0.15,0.02v-10.99c-0.12-0.01-0.23-0.02-0.35-0.03c-2.98-0.09-5.24-2.33-5.4-5.15
		c-0.16-2.74,1.84-5.24,4.6-5.73c0.39-0.07,0.78-0.08,1.16-0.06v-21.87c-1.9,0-3.79,0-5.77,0
		C119.23,111.5,119.17,114.77,119.26,118.04z"/>
	<path class="st0" d="M124.34,31c-3.13,4.01-6.53,7.68-12.28,6.54c-1.8-0.36-3.59-1.41-5.09-2.52c-1.46-1.08-2.55-2.66-3.8-4.02
		c-0.24,0-0.49,0-0.73,0c-0.43,0.55-0.84,1.13-1.3,1.66c-2.92,3.33-6.09,6.48-8.73,10.01c-3.63,4.84-4.76,10.32-2.69,16.2
		c1.43,4.07,3.85,7.54,6.72,10.83c9.51-3.67,19.02-5.48,28.58-5.42V31C124.78,31,124.56,31,124.34,31z"/>
	<path class="st0" d="M123.84,130.02c-2.76,0.49-4.76,2.98-4.6,5.73c0.17,2.82,2.43,5.06,5.4,5.15c0.12,0,0.23,0.02,0.35,0.03
		v-10.96C124.62,129.94,124.23,129.95,123.84,130.02z"/>
	<path class="st0" d="M119.28,184.6c0-3.94,0-7.87,0-11.74c-6.84-2.95-10.58-7.92-11.04-15.41c3.7,0,7.26,0,10.86,0
		c0.13,0.46,0.23,0.93,0.38,1.38c0.8,2.52,3.11,4.12,5.52,3.97v-10.9c-0.05,0-0.1-0.02-0.15-0.02c-5.51-0.17-10.02-2.29-13.33-6.72
		c-6.16-8.26-3.25-20.02,6.09-24.39c1.36-0.64,1.69-1.36,1.65-2.72c-0.09-3.27-0.03-6.54-0.03-9.96c1.98,0,3.87,0,5.77,0V75.16
		c-5.43-0.02-10.95,0.62-16.46,2.04c-29.06,7.47-49.25,33.02-49.49,63.03c-0.08,9.66-1.82,18.81-6.08,27.5
		c-2.78,5.67-4.2,11.73-4.84,18.03c-0.91,8.92,2.08,16.13,8.92,21.78c8.23,6.81,17.82,10.17,28.4,10.34
		c13.08,0.22,26.16,0.05,39.24,0.05c0,0,0,0.01,0,0.01c0.11,0,0.21,0,0.32,0V184.6C123.11,184.6,121.22,184.6,119.28,184.6z"/>
	<path class="st1" d="M158.99,60.54c2.68-5.47,2.46-11.1-0.94-16.14c-2.6-3.85-5.87-7.24-8.85-10.83c-0.72-0.87-1.47-1.71-2.21-2.56
		c-0.24,0-0.49,0-0.73,0c-3.13,4.01-6.53,7.68-12.28,6.54c-1.8-0.36-3.59-1.41-5.09-2.52c-1.46-1.08-2.55-2.66-3.8-4.02
		c-0.02,0-0.05,0-0.07,0v33.26c9.4,0.05,18.84,1.9,28.38,5.57C155.27,66.74,157.4,63.77,158.99,60.54z"/>
	<path class="st1" d="M154.25,217.94c4.74-0.03,9.51,0.1,14.21-0.4c9.34-1.01,17.78-4.43,24.83-10.79
		c5.59-5.04,8.47-11.22,8.1-18.92c-0.37-7.67-2.32-14.86-5.65-21.72c-3.8-7.82-5.29-16.09-5.37-24.73
		c-0.04-3.93-0.36-7.91-1.03-11.79C183.83,97.61,155.9,75.3,125,75.16v32.92c1.71,0,3.41,0,5.18,0c0,3.1,0.12,6.18-0.05,9.25
		c-0.1,1.86,0.42,2.79,2.17,3.7c5.64,2.92,8.46,7.78,8.86,14.26c-3.64,0-7.19,0-10.85,0c-0.1-0.36-0.21-0.81-0.35-1.26
		c-0.74-2.38-2.74-3.95-4.97-4.07v10.96c5.07,0.23,9.31,2.18,12.51,6.18c6.61,8.26,3.9,20.2-5.6,24.91
		c-0.54,0.27-1.09,0.53-1.73,0.84c0,3.86,0,7.74,0,11.75c-1.74,0-3.46,0-5.18,0v33.36C134.75,217.95,144.5,217.99,154.25,217.94z"/>
</g>
</svg>
