<?xml version="1.0" encoding="utf-8"?>
<!-- Generator: Adobe Illustrator 23.0.3, SVG Export Plug-In . SVG Version: 6.00 Build 0)  -->
<svg version="1.1" id="圖層_1" xmlns="http://www.w3.org/2000/svg" xmlns:xlink="http://www.w3.org/1999/xlink" x="0px" y="0px"
	 viewBox="0 0 246.71 246.71" style="enable-background:new 0 0 246.71 246.71;" xml:space="preserve">
<style type="text/css">
	.st0{fill:#65E9B9;}
	.st1{fill:#2DAD79;}
	.st2{fill:none;}
	.st3{fill:#6D6D6D;}
	.st4{fill:#565656;}
</style>
<g>
	<path class="st3" d="M122.31,27.37c-5.16,1.03-8.74,4.4-12.31,7.98c-21.51,21.62-43.08,43.18-64.7,64.7
		c-3.55,3.53-6.83,7.1-7.86,12.19c0,1.59,0,3.18,0,4.77c0.58,1.64,0.98,3.38,1.79,4.9c2.93,5.5,7.58,8.42,13.82,8.74
		c0.95,0.05,1.91,0.01,3.1,0.01c0,0.8,0,1.46,0,2.12c0,16.41,0.17,32.82-0.06,49.23c-0.15,11.05,7.88,18.62,16.02,19.62
		c0.15,0.02,0.29,0.16,0.43,0.24c10.45,0,20.91,0,31.36,0c3.02-1.13,4.07-3.36,4.05-6.51c-0.08-12.88-0.04-25.76-0.03-38.64
		c0-6.26,3.4-9.63,9.7-9.64c2.46,0,4.91,0,7.37,0V27.37C124.1,27.37,123.21,27.37,122.31,27.37z"/>
	<path class="st4" d="M141.45,156.41c0.01,12.99,0.05,25.99-0.03,38.98c-0.02,3.16,1.05,5.37,4.07,6.5c10.45,0,20.91,0,31.36,0
		c1.08-0.3,2.17-0.56,3.24-0.89c7.62-2.37,13.06-9.45,13.1-17.45c0.09-16.86,0.03-33.72,0.04-50.58c0-0.68,0-1.35,0-2.3
		c0.92,0,1.74,0.01,2.57,0c8.03-0.09,14.28-5.31,15.86-13.22c0.05-0.27,0.19-0.52,0.29-0.78c0-1.36,0-2.73,0-4.09
		c-0.89-5.21-4.17-8.85-7.77-12.43c-21.7-21.58-43.33-43.23-64.92-64.92c-3.52-3.54-7.08-6.84-12.18-7.86c-0.69,0-1.39,0-2.08,0
		V147.1c2.37,0,4.73-0.01,7.1,0C137.92,147.12,141.44,150.61,141.45,156.41z"/>
</g>
</svg>
