<?xml version="1.0" encoding="utf-8"?>
<!-- Generator: Adobe Illustrator 23.0.3, SVG Export Plug-In . SVG Version: 6.00 Build 0)  -->
<svg version="1.1" id="圖層_1" xmlns="http://www.w3.org/2000/svg" xmlns:xlink="http://www.w3.org/1999/xlink" x="0px" y="0px"
	 viewBox="0 0 246.71 246.71" style="enable-background:new 0 0 246.71 246.71;" xml:space="preserve">
<style type="text/css">
	.st0{fill:#65E9B9;}
	.st1{fill:#2DAD79;}
	.st2{fill:none;}
	.st3{fill:#6D6D6D;}
	.st4{fill:#565656;}
</style>
<g>
	<path class="st3" d="M32.89,33.56c12.85,0.01,25.7,0.03,38.55,0.04c0.71,0,1.41,0,2.19,0c2.5,9.98,4.96,19.8,7.47,29.8
		c8.5,0,16.96,0,25.57,0c1.57,12.59,3.13,25.01,4.71,37.67c-6.96,0-13.79,0-20.86,0c1.07,4.3,2.08,8.33,3.11,12.47
		c6.38,0,12.7,0,19.31,0c1.57,12.55,3.13,25.01,4.72,37.66c-4.89,0-9.58,0-14.54,0c0.27,1.17,0.49,2.13,0.72,3.08
		c1.03,4.17,2.13,8.33,3.07,12.52c0.32,1.44,0.91,1.86,2.4,1.86c24.33-0.05,48.65-0.03,72.98-0.05c3.45,0,6.77,0.45,9.93,1.93
		c8.62,4.05,13.45,13.5,11.57,22.66c-1.97,9.6-10.06,16.47-19.72,16.76c-14.13,0.43-24.53-13.45-20.24-26.99
		c0.18-0.55,0.34-1.11,0.56-1.81c-15.25,0-30.34,0-45.64,0c2.63,7.09,2.07,13.8-2.23,20c-3.1,4.46-7.41,7.22-12.71,8.37
		c-10.1,2.19-20.49-3.86-23.8-13.82c-3.08-9.26,0.7-22.3,14.63-26.66c-1.27-5.07-2.54-10.15-3.81-15.24
		c-8.78-35.14-17.58-70.28-26.3-105.43c-0.44-1.77-1.05-2.34-2.92-2.32c-9.56,0.11-19.13,0.04-28.69,0.04
		C32.89,41.93,32.89,37.74,32.89,33.56z"/>
	<path class="st4" d="M186.22,100.97c0.58-4.8,1.14-9.47,1.72-14.13c0.91-7.28,1.85-14.56,2.75-21.85c0.11-0.88,0.12-1.6,1.36-1.6
		c7.88,0.04,15.77,0.02,23.65,0.03c0.22,0,0.44,0.09,0.8,0.17c-2.65,12.48-5.28,24.88-7.94,37.37
		C201.17,100.97,193.85,100.97,186.22,100.97z"/>
	<path class="st4" d="M119.29,63.5c7.87,0,15.44,0,23.14,0c0,12.47,0,24.86,0,37.42c-6.09,0-12.2,0-18.46,0
		C122.41,88.5,120.86,76.08,119.29,63.5z"/>
	<path class="st4" d="M155.17,63.51c7.71,0,15.27,0,23.06,0c-0.3,2.58-0.57,5.05-0.87,7.51c-1.18,9.48-2.35,18.96-3.59,28.43
		c-0.08,0.58-0.73,1.55-1.12,1.56c-5.78,0.1-11.56,0.07-17.47,0.07C155.17,88.52,155.17,76.12,155.17,63.51z"/>
	<path class="st4" d="M197.9,151.19c-6.04,0-11.88,0-17.98,0c1.57-12.55,3.13-25,4.69-37.51c7.12,0,14.09,0,21.25,0
		C203.2,126.22,200.57,138.64,197.9,151.19z"/>
	<path class="st4" d="M125.56,113.67c5.79,0,11.27,0,16.87,0c0,12.47,0,24.87,0,37.43c-4,0-8.01,0-12.2,0
		C128.69,138.68,127.14,126.26,125.56,113.67z"/>
	<path class="st4" d="M155.18,113.69c5.62,0,11.14,0,16.82,0c-1.56,12.52-3.12,24.93-4.68,37.45c-4.06,0-8.03,0-12.14,0
		C155.18,138.67,155.18,126.23,155.18,113.69z"/>
</g>
</svg>
