<?xml version="1.0" encoding="utf-8"?>
<!-- Generator: Adobe Illustrator 23.0.3, SVG Export Plug-In . SVG Version: 6.00 Build 0)  -->
<svg version="1.1" id="圖層_1" xmlns="http://www.w3.org/2000/svg" xmlns:xlink="http://www.w3.org/1999/xlink" x="0px" y="0px"
	 viewBox="0 0 246.71 246.71" style="enable-background:new 0 0 246.71 246.71;" xml:space="preserve">
<style type="text/css">
	.st0{fill:#65E9B9;}
	.st1{fill:#2DAD79;}
	.st2{fill:none;}
	.st3{fill:#6D6D6D;}
	.st4{fill:#565656;}
</style>
<g>
	<path class="st0" d="M207.27,206h-33.29c0,0.04,0,0.07,0,0.11c-3.69,0-7.24,0-10.99,0c0-22.21,0-44.28,0-66.31
		c-11.02,0-21.84,0-32.87,0c0,22.18,0,44.26,0,66.35c-3.71,0-7.22,0-10.93,0c0-0.05,0-0.1,0-0.15H86.2c0,0.04,0,0.09,0,0.13
		c-3.71,0-7.22,0-10.93,0c0-18.53,0-36.95,0-55.38c-11.14,0-22.09,0-33.23,0c0,18.51,0,36.93,0,55.49c-3.78,0-7.37,0-10.95,0
		c0,3.66,0,7.31,0,10.97c62.37,0,124.74,0,187.06,0c0-3.81,0-7.36,0-11.05c-3.66,0-7.17,0-10.88,0
		C207.27,206.11,207.27,206.05,207.27,206z"/>
	<path class="st0" d="M174.06,30c0,3.63,0,7.25,0,11.02c8.52,0,16.77,0,23.98,0c-16.82,17.19-34.07,34.83-51.59,52.74
		c-14.75-14.75-29.29-29.29-44.13-44.14C79.33,72.97,56.3,96.36,33.48,119.53c2.17,2.16,4.69,4.68,7.29,7.27
		C61.3,106.4,81.98,85.84,102.8,65.14c14.7,14.7,29.24,29.24,43.87,43.88c20.17-20.04,40.26-40.01,60.7-60.33
		c0,8.73,0,16.87,0,25.07c3.69,0,7.24,0,10.92,0c0-14.66,0-29.21,0-43.77C203.55,30,188.81,30,174.06,30z"/>
	<path class="st1" d="M119.2,117.88c-11.06,0-21.93,0-32.99,0c0,29.48,0,58.82,0,88.12h32.99
		C119.2,176.57,119.2,147.23,119.2,117.88z"/>
	<path class="st1" d="M207.27,95.97c-11.19,0-22.17,0-33.29,0c0,36.77,0,73.4,0,110.03h33.29
		C207.27,169.21,207.27,132.56,207.27,95.97z"/>
</g>
</svg>
