<svg id="圖層_1" data-name="圖層 1" xmlns="http://www.w3.org/2000/svg" viewBox="0 0 200 200"><defs><style>.cls-1{fill:#323644;}.cls-2{fill:#ffba00;}.cls-3{fill:#fde09c;}.cls-4{fill:#04a586;}.cls-5{fill:#65e9b9;}</style></defs><title>網頁ICON-0925修改</title><path class="cls-1" d="M75.89,138a1.36,1.36,0,0,0-2.37,1l.17,3a26.3,26.3,0,0,1-13.3-10.16,23.69,23.69,0,0,1-3.63-18.12,1.36,1.36,0,0,0-1-1.6l-2.08-.46a1.29,1.29,0,0,0-1,.18,1.36,1.36,0,0,0-.6.86,28.5,28.5,0,0,0,4.35,21.84,31,31,0,0,0,16.37,12.25L71,150.37a1.35,1.35,0,0,0,1.21,2,1.27,1.27,0,0,0,.54-.11l9.87-4.17a1.39,1.39,0,0,0,.8-1,1.4,1.4,0,0,0-.32-1.21Z"/><path class="cls-1" d="M144.42,69.42A31.08,31.08,0,0,0,127.1,58.55l1.47-3.73a1.35,1.35,0,0,0-1.88-1.69l-9.53,5a1.37,1.37,0,0,0-.71,1,1.35,1.35,0,0,0,.41,1.17l7.84,7.31A1.35,1.35,0,0,0,127,66.44l-.41-3a26.28,26.28,0,0,1,14.08,9,23.67,23.67,0,0,1,5.1,17.77,1.35,1.35,0,0,0,1.16,1.5L149,92h.19a1.36,1.36,0,0,0,1.34-1.18A28.47,28.47,0,0,0,144.42,69.42Z"/><path class="cls-2" d="M90.8,63.28A13.29,13.29,0,0,0,77.67,50V76.57A13.28,13.28,0,0,0,90.8,63.28Z"/><path class="cls-2" d="M102.4,98.58a19.2,19.2,0,0,0-4.15-12,23.51,23.51,0,0,0-10.61-7.8,4.45,4.45,0,0,0-3.5.24h0a14.46,14.46,0,0,1-6.46,1.61v24.86a70.47,70.47,0,0,0,24.73-4.55Z"/><path class="cls-3" d="M64.21,63.28a13.31,13.31,0,0,0,13.3,13.3h.16V50h-.16A13.3,13.3,0,0,0,64.21,63.28Z"/><path class="cls-3" d="M77.51,80.64A14.54,14.54,0,0,1,70.89,79h0a4.45,4.45,0,0,0-3.5-.24,23.51,23.51,0,0,0-10.61,7.8,19.2,19.2,0,0,0-4.15,12v2.36a70.38,70.38,0,0,0,25.05,4.55V80.63Z"/><path class="cls-4" d="M137.32,108.08a13.3,13.3,0,0,0-13.14-13.29v26.59A13.31,13.31,0,0,0,137.32,108.08Z"/><path class="cls-4" d="M148.91,143.38a19.17,19.17,0,0,0-4.15-12,23.51,23.51,0,0,0-10.61-7.8,4.45,4.45,0,0,0-3.5.24h0a14.46,14.46,0,0,1-6.46,1.61v24.86a70.46,70.46,0,0,0,24.73-4.54Z"/><path class="cls-5" d="M110.73,108.08A13.29,13.29,0,0,0,124,121.38h.16V94.79H124A13.29,13.29,0,0,0,110.73,108.08Z"/><path class="cls-5" d="M124,125.44a14.54,14.54,0,0,1-6.62-1.62h0a4.45,4.45,0,0,0-3.5-.24,23.51,23.51,0,0,0-10.61,7.8,19.17,19.17,0,0,0-4.15,12v2.37a70.37,70.37,0,0,0,25.05,4.54V125.43Z"/></svg>