<svg id="圖層_1" data-name="圖層 1" xmlns="http://www.w3.org/2000/svg" viewBox="0 0 200 200"><defs><style>.cls-1{fill:#65e9b9;}.cls-2{fill:#323644;}</style></defs><title>網頁ICON-0925修改</title><path class="cls-1" d="M121,136a17,17,0,0,1,4.46-11.45A41,41,0,0,0,57,155c0,.34,0,.67,0,1H139c0-.33,0-.66,0-1,0-.69,0-1.37-.05-2.05-.32,0-.63.05-.95.05A17,17,0,0,1,121,136Z"/><circle class="cls-1" cx="97.5" cy="85.5" r="25.5"/><path class="cls-2" d="M120.39,111.66c-1.44-.69-2.91-1.27-4.38-1.82a31,31,0,1,0-34.28,0,49.69,49.69,0,0,0-32.55,46.56h8.28A41.43,41.43,0,0,1,98.85,115a40.92,40.92,0,0,1,17.94,4.08ZM76.08,84a22.77,22.77,0,1,1,22.77,22.77A22.79,22.79,0,0,1,76.08,84Z"/><path class="cls-2" d="M137.22,113.54A21.73,21.73,0,1,0,159,135.27,21.76,21.76,0,0,0,137.22,113.54Zm0,37.25a15.52,15.52,0,1,1,15.52-15.52A15.54,15.54,0,0,1,137.22,150.79Z"/><polygon class="cls-2" points="140.32 124.75 134.11 124.75 134.11 132.16 126.69 132.16 126.69 138.37 134.11 138.37 134.11 145.79 140.32 145.79 140.32 138.37 147.74 138.37 147.74 132.16 140.32 132.16 140.32 124.75"/></svg>