<svg id="圖層_1" data-name="圖層 1" xmlns="http://www.w3.org/2000/svg" viewBox="0 0 200 200"><defs><style>.cls-1{fill:#e66600;}.cls-2{fill:#ffba00;}.cls-3{fill:#fde09c;}.cls-4{fill:#04a586;}.cls-5{fill:#65e9b9;}.cls-6{fill:#424242;}.cls-7{fill:#323644;}.cls-8{fill:#707070;}</style></defs><title>網頁ICON-0925修改</title><circle class="cls-1" cx="147.23" cy="129.77" r="30.23"/><path class="cls-2" d="M147.23,153.64a23.87,23.87,0,1,1,23.86-23.87A23.9,23.9,0,0,1,147.23,153.64Z"/><path class="cls-2" d="M147.23,99.55a30.23,30.23,0,1,0,0,60.45Z"/><path class="cls-3" d="M147.23,105.91a23.87,23.87,0,1,0,0,47.73Z"/><path class="cls-1" d="M130.87,127.17a2.61,2.61,0,1,0,2.6,2.6A2.6,2.6,0,0,0,130.87,127.17Z"/><path class="cls-1" d="M163.58,127.17a2.61,2.61,0,1,0,2.61,2.6A2.61,2.61,0,0,0,163.58,127.17Z"/><path class="cls-1" d="M149.08,128v-6.67c3.14.54,3.14,2.5,3.14,3.21h3.71c0-3.89-2.53-6.4-6.85-6.94V115h-3.71v2.67c-4.32.54-6.85,3-6.85,6.94s2.53,6.39,6.85,6.93v6.67c-3.14-.54-3.14-2.5-3.14-3.21h-3.71c0,3.89,2.53,6.4,6.85,6.94v2.67h3.71v-2.67c4.32-.54,6.85-3,6.85-6.94S153.4,128.58,149.08,128Zm-6.85-3.46c0-.71,0-2.67,3.14-3.21v6.41C142.23,127.24,142.23,125.28,142.23,124.58Zm6.85,13.6v-6.41c3.14.54,3.14,2.49,3.14,3.2S152.22,137.64,149.08,138.18Z"/><path class="cls-4" d="M97.07,104.47h24.18A36.19,36.19,0,0,1,157,94.85V91.54H97.07Z"/><path class="cls-4" d="M157,73.44V62.55A8.57,8.57,0,0,0,148.44,54H97.07V73.44Z"/><path class="cls-5" d="M97.07,54H45.69a8.57,8.57,0,0,0-8.56,8.57V73.44H97.07Z"/><path class="cls-5" d="M91,124.42v-7.33h6.11v-5.28H50.86v-7.34H97.07V91.54H37.13v39a8.56,8.56,0,0,0,8.56,8.56H97.07V124.42Zm-27.9,0H50.86v-7.33h12.2Zm20,0H70.91v-7.33h12.2Z"/><rect class="cls-6" x="157" y="73.44" height="18.1"/><rect class="cls-7" x="97.07" y="73.44" width="59.93" height="18.1"/><rect class="cls-8" x="37.13" y="73.44" width="59.93" height="18.1"/><rect class="cls-7" x="50.86" y="117.09" width="12.2" height="7.34"/><rect class="cls-7" x="70.91" y="117.09" width="12.2" height="7.34"/><rect class="cls-7" x="97.07" y="117.09" width="6.1" height="7.34"/><rect class="cls-7" x="90.96" y="117.09" width="6.1" height="7.34"/><path class="cls-4" d="M113.24,117.09a36.37,36.37,0,0,1,2.48-5.28H97.07v5.28h6.1v7.33h-6.1v14.69h15.11a36,36,0,0,1-1.23-9.34,36.44,36.44,0,0,1,2.29-12.68Z"/><path class="cls-7" d="M97.07,111.81h18.65a36.14,36.14,0,0,1,5.53-7.34H97.07Z"/><rect class="cls-7" x="50.86" y="104.47" width="46.21" height="7.34"/></svg>