<svg xmlns="http://www.w3.org/2000/svg" width="36" height="36" viewBox="0 0 36 36">
  <g id="btn_zoomout" transform="translate(-1028.561 -670.071)">
    <rect id="Rectangle_235" data-name="Rectangle 235" width="36" height="36" transform="translate(1028.561 670.071)" fill="rgba(0,0,0,0)"/>
    <g id="Group_197" data-name="Group 197">
      <path id="Path_166" data-name="Path 166" d="M1056.686,686.316l-.153-7.523a1,1,0,0,0-.027-.121.613.613,0,0,0-.181-.4c-.018-.022-.026-.05-.046-.07h0a.862.862,0,0,0-.61-.253H1048.3a.865.865,0,0,0,0,1.73h5.28l-5.948,5.948a.865.865,0,0,0,1.224,1.223l5.991-5.991.112,5.492a.866.866,0,0,0,1.731-.035Z" transform="translate(2104.078 1365.142) rotate(180)" fill="#fff"/>
      <path id="Path_167" data-name="Path 167" d="M1045.692,697.327a.866.866,0,0,0-.866-.866h-5.279l5.947-5.947a.866.866,0,0,0-1.224-1.224l-5.991,5.992-.112-5.492a.865.865,0,1,0-1.731,0v.031l.153,7.523a.791.791,0,0,0,.03.137.934.934,0,0,0,.039.18.874.874,0,0,0,.8.531h7.369a.865.865,0,0,0,.867-.863Z" transform="translate(2082.168 1387.122) rotate(180)" fill="#fff"/>
    </g>
  </g>
</svg>
