<svg xmlns="http://www.w3.org/2000/svg" width="36.216" height="36.216" viewBox="0 0 36.216 36.216">
  <g id="btn_vioce" transform="translate(-987.52 -670.029)">
    <rect id="Rectangle_236" data-name="Rectangle 236" width="36" height="36" transform="translate(987.52 670.246) rotate(-0.344)" fill="rgba(0,0,0,0)"/>
    <g id="Group_221" data-name="Group 221">
      <path id="Path_168" data-name="Path 168" d="M996.37,682.158l-.616.45a1.034,1.034,0,0,1-.6.2l-3.459.021a1.178,1.178,0,0,0-1.1,1.245l.05,8.352a1.179,1.179,0,0,0,1.114,1.232l3.548-.021a1.021,1.021,0,0,1,.6.193l.532.378,6.7,4.755a1.109,1.109,0,0,0,1.7-1.053l-.117-19.558a1.108,1.108,0,0,0-1.711-1.033Z" fill="#fff"/>
      <path id="Path_180" data-name="Path 180" d="M1012.1,678.243a10.835,10.835,0,0,1,.189,19.789" fill="none" stroke="#fff" stroke-linecap="round" stroke-miterlimit="10" stroke-width="2"/>
      <path id="Path_181" data-name="Path 181" d="M1008.284,681.3a7.487,7.487,0,0,1,.13,13.676" fill="none" stroke="#fff" stroke-linecap="round" stroke-miterlimit="10" stroke-width="2"/>
    </g>
  </g>
</svg>
