<svg version="1.1" id="Layer_1" xmlns="http://www.w3.org/2000/svg" xmlns:xlink="http://www.w3.org/1999/xlink" x="0px" y="0px"
	 width="100%" viewBox="0 0 1181 1181" enable-background="new 0 0 1181 1181" xml:space="preserve">
<path fill="#FFFFFF" opacity="1.000000" stroke="none" 
	d="
M657.000000,1182.000000 
	C438.000000,1182.000000 219.500000,1182.000000 1.000000,1182.000000 
	C1.000000,788.333313 1.000000,394.666656 1.000000,1.000000 
	C394.666656,1.000000 788.333313,1.000000 1182.000000,1.000000 
	C1182.000000,394.666656 1182.000000,788.333313 1182.000000,1182.000000 
	C1007.166687,1182.000000 832.333313,1182.000000 657.000000,1182.000000 
M491.500000,839.000000 
	C626.480469,839.002014 761.460999,838.951538 896.441284,839.113403 
	C906.410156,839.125305 916.085876,831.837769 916.079224,819.625427 
	C915.970886,619.820801 915.966309,420.016113 916.086609,220.211502 
	C916.094360,207.353088 907.350525,200.004623 895.851013,200.004135 
	C698.212708,199.995743 500.574371,199.999283 302.936066,199.998932 
	C300.103180,199.998932 297.257355,199.803696 294.439819,200.007446 
	C285.647369,200.643265 276.925049,206.792572 276.930267,217.700958 
	C277.026489,418.838745 277.032715,619.976562 276.892334,821.114319 
	C276.886139,830.019714 286.085327,839.155273 295.028442,839.124573 
	C360.184998,838.900879 425.342682,839.001648 491.500000,839.000000 
M627.500000,914.987061 
	C479.432098,914.987061 331.364197,914.987061 183.012939,914.987061 
	C183.012939,911.764526 183.012924,909.441467 183.012924,907.118408 
	C183.012970,690.956970 182.974487,474.795471 183.158051,258.634155 
	C183.165176,250.241638 175.453903,239.873413 165.092300,239.964844 
	C155.088898,240.053131 146.997421,247.918564 146.996902,257.953125 
	C146.985199,482.781036 146.984741,707.608948 147.033127,932.436829 
	C147.033554,934.360840 147.440033,936.398865 148.148163,938.189331 
	C151.505600,946.678406 158.099899,950.032654 166.966965,950.031433 
	C390.294922,950.000977 613.622864,950.007507 836.950806,950.007507 
	C837.950806,950.007507 838.952820,950.049744 839.950439,950.000488 
	C849.222656,949.542908 857.396545,940.918396 856.996765,932.031677 
	C856.569092,922.526062 848.652649,914.994202 838.994934,914.992676 
	C768.829956,914.981934 698.664978,914.987000 627.500000,914.987061 
z"/>
<path fill="#65E9B8" opacity="1.000000" stroke="none" 
	d="
M491.000000,839.000000 
	C425.342682,839.001648 360.184998,838.900879 295.028442,839.124573 
	C286.085327,839.155273 276.886139,830.019714 276.892334,821.114319 
	C277.032715,619.976562 277.026489,418.838745 276.930267,217.700958 
	C276.925049,206.792572 285.647369,200.643265 294.439819,200.007446 
	C297.257355,199.803696 300.103180,199.998932 302.936066,199.998932 
	C500.574371,199.999283 698.212708,199.995743 895.851013,200.004135 
	C907.350525,200.004623 916.094360,207.353088 916.086609,220.211502 
	C915.966309,420.016113 915.970886,619.820801 916.079224,819.625427 
	C916.085876,831.837769 906.410156,839.125305 896.441284,839.113403 
	C761.460999,838.951538 626.480469,839.002014 491.000000,839.000000 
M861.447083,476.006348 
	C864.195679,476.006348 866.944336,476.006348 869.625977,476.006348 
	C869.625977,451.897186 869.625977,428.668335 869.625977,405.299377 
	C782.721497,405.299377 696.193909,405.299377 609.915527,405.299377 
	C609.915527,428.980255 609.915527,452.359924 609.915527,476.006226 
	C693.595764,476.006226 777.027344,476.006226 861.447083,476.006348 
M797.500000,565.000732 
	C734.913513,565.000732 672.326965,565.000732 609.875732,565.000732 
	C609.875732,588.918091 609.875732,612.298645 609.875732,635.609558 
	C696.585144,635.609558 783.095642,635.609558 869.661865,635.609558 
	C869.661865,611.969727 869.661865,588.742249 869.661865,565.000732 
	C845.716858,565.000732 822.108398,565.000732 797.500000,565.000732 
M632.500000,723.000000 
	C624.878723,723.000000 617.257446,723.000000 609.975342,723.000000 
	C609.975342,746.970398 609.975342,770.356567 609.975342,793.655762 
	C696.714783,793.655762 783.128052,793.655762 869.680786,793.655762 
	C869.680786,770.050598 869.680786,746.810730 869.680786,723.000000 
	C790.730652,723.000000 712.115356,723.000000 632.500000,723.000000 
M785.500000,245.001221 
	C726.788330,245.001221 668.076660,245.001221 609.329590,245.001221 
	C609.329590,269.028748 609.329590,292.260590 609.329590,315.595093 
	C695.974487,315.595093 782.288574,315.595093 868.658386,315.595093 
	C868.658386,291.955933 868.658386,268.729431 868.658386,245.001236 
	C841.047607,245.001236 813.773804,245.001236 785.500000,245.001221 
z"/>
<path fill="#A2CBD1" opacity="1.000000" stroke="none" 
	d="
M628.000000,914.987061 
	C698.664978,914.987000 768.829956,914.981934 838.994934,914.992676 
	C848.652649,914.994202 856.569092,922.526062 856.996765,932.031677 
	C857.396545,940.918396 849.222656,949.542908 839.950439,950.000488 
	C838.952820,950.049744 837.950806,950.007507 836.950806,950.007507 
	C613.622864,950.007507 390.294922,950.000977 166.966965,950.031433 
	C158.099899,950.032654 151.505600,946.678406 148.148163,938.189331 
	C147.440033,936.398865 147.033554,934.360840 147.033127,932.436829 
	C146.984741,707.608948 146.985199,482.781036 146.996902,257.953125 
	C146.997421,247.918564 155.088898,240.053131 165.092300,239.964844 
	C175.453903,239.873413 183.165176,250.241638 183.158051,258.634155 
	C182.974487,474.795471 183.012970,690.956970 183.012924,907.118408 
	C183.012924,909.441467 183.012939,911.764526 183.012939,914.987061 
	C331.364197,914.987061 479.432098,914.987061 628.000000,914.987061 
z"/>
<path fill="#E1E5E4" opacity="1.000000" stroke="none" 
	d="
M860.953003,476.006287 
	C777.027344,476.006226 693.595764,476.006226 609.915527,476.006226 
	C609.915527,452.359924 609.915527,428.980255 609.915527,405.299377 
	C696.193909,405.299377 782.721497,405.299377 869.625977,405.299377 
	C869.625977,428.668335 869.625977,451.897186 869.625977,476.006348 
	C866.944336,476.006348 864.195679,476.006348 860.953003,476.006287 
z"/>
<path fill="#E1E5E4" opacity="1.000000" stroke="none" 
	d="
M798.000000,565.000732 
	C822.108398,565.000732 845.716858,565.000732 869.661865,565.000732 
	C869.661865,588.742249 869.661865,611.969727 869.661865,635.609558 
	C783.095642,635.609558 696.585144,635.609558 609.875732,635.609558 
	C609.875732,612.298645 609.875732,588.918091 609.875732,565.000732 
	C672.326965,565.000732 734.913513,565.000732 798.000000,565.000732 
z"/>
<path fill="#E1E5E4" opacity="1.000000" stroke="none" 
	d="
M633.000000,723.000000 
	C712.115356,723.000000 790.730652,723.000000 869.680786,723.000000 
	C869.680786,746.810730 869.680786,770.050598 869.680786,793.655762 
	C783.128052,793.655762 696.714783,793.655762 609.975342,793.655762 
	C609.975342,770.356567 609.975342,746.970398 609.975342,723.000000 
	C617.257446,723.000000 624.878723,723.000000 633.000000,723.000000 
z"/>
<path fill="#E1E5E4" opacity="1.000000" stroke="none" 
	d="
M786.000000,245.001221 
	C813.773804,245.001236 841.047607,245.001236 868.658386,245.001236 
	C868.658386,268.729431 868.658386,291.955933 868.658386,315.595093 
	C782.288574,315.595093 695.974487,315.595093 609.329590,315.595093 
	C609.329590,292.260590 609.329590,269.028748 609.329590,245.001221 
	C668.076660,245.001221 726.788330,245.001221 786.000000,245.001221 
z"/>
</svg>