<svg version="1.1" id="Layer_1" xmlns="http://www.w3.org/2000/svg" xmlns:xlink="http://www.w3.org/1999/xlink" x="0px" y="0px"
	 width="100%" viewBox="0 0 1181 1181" enable-background="new 0 0 1181 1181" xml:space="preserve">
<path fill="#FFFFFF" opacity="1.000000" stroke="none" 
	d="
M661.000000,1182.000000 
	C440.666656,1182.000000 220.833328,1182.000000 1.000000,1182.000000 
	C1.000000,788.333313 1.000000,394.666656 1.000000,1.000000 
	C394.666656,1.000000 788.333313,1.000000 1182.000000,1.000000 
	C1182.000000,394.666656 1182.000000,788.333313 1182.000000,1182.000000 
	C1008.500000,1182.000000 835.000000,1182.000000 661.000000,1182.000000 
M285.437592,198.922791 
	C285.122925,199.022064 284.931488,199.233078 284.293884,199.795456 
	C283.562866,200.094223 282.831879,200.393005 281.817871,200.362793 
	C281.585297,200.618103 281.352753,200.873398 280.793915,201.720932 
	C278.812164,204.801422 276.830383,207.881912 274.321411,211.415070 
	C274.409851,212.976456 274.498260,214.537827 274.648529,217.020538 
	C274.639282,316.314972 274.630005,415.609436 274.219757,515.458618 
	C274.328186,517.005432 274.436615,518.552185 274.744537,520.604004 
	C274.850983,520.750427 274.957428,520.896790 275.010376,521.971191 
	C275.005280,622.467529 274.995819,722.963867 275.035126,823.460205 
	C275.035736,825.007202 275.638000,826.554016 276.273163,828.716858 
	C278.336823,834.861877 282.767609,838.380798 289.443787,840.695312 
	C291.431946,840.798828 293.420074,840.992798 295.408234,840.992920 
	C494.069702,841.004761 692.731201,841.001953 891.392639,841.000122 
	C894.392517,841.000122 897.414062,841.216797 900.383728,840.917847 
	C902.017334,840.753418 903.563782,839.722717 905.849915,839.000854 
	C908.599792,837.042175 911.349670,835.083496 914.671570,832.821716 
	C915.378723,831.514587 916.085876,830.207458 916.942078,828.539917 
	C916.942078,828.539917 917.022949,828.158386 917.667236,827.571106 
	C917.784790,825.754333 918.005005,823.937500 918.005310,822.120728 
	C918.021973,723.381348 918.020813,624.641968 918.013855,525.902588 
	C918.013733,524.239990 917.919067,522.577332 917.991882,520.483154 
	C917.991882,520.483154 918.135925,520.058044 918.628418,519.700439 
	C918.551147,518.765991 918.473938,517.831482 918.348572,516.301697 
	C918.360474,515.903931 918.372375,515.506104 918.754395,514.746704 
	C918.639526,514.125671 918.524597,513.504639 918.342407,511.964966 
	C918.335510,451.325562 918.316650,390.686127 918.326050,330.046722 
	C918.331848,292.397827 918.380615,254.748917 918.827148,216.493149 
	C918.546021,214.661758 918.264954,212.830353 917.990417,210.270432 
	C915.151245,204.812057 912.176941,199.506821 904.938477,198.203629 
	C903.593323,198.009293 902.248169,197.814941 899.980774,197.673615 
	C698.477722,197.675110 496.974701,197.676254 295.471680,197.683121 
	C293.308685,197.683197 291.145660,197.758438 288.634979,197.414108 
	C287.734985,197.899231 286.834961,198.384338 285.945862,198.933868 
	C285.945862,198.933868 285.882690,198.917252 285.437592,198.922791 
M825.499084,914.987000 
	C611.432495,914.987000 397.365875,914.987000 183.012955,914.987000 
	C183.012955,911.767273 183.012939,909.444458 183.012939,907.121704 
	C183.012985,690.960205 182.974426,474.798706 183.158234,258.637360 
	C183.165375,250.242203 175.454803,239.875198 165.095490,239.964874 
	C155.091675,240.051483 146.997437,247.916840 146.996918,257.949921 
	C146.985168,482.777863 146.984695,707.605835 147.033035,932.433777 
	C147.033447,934.357910 147.438950,936.395996 148.146851,938.186584 
	C151.503296,946.675720 158.091492,950.033569 166.963928,950.032349 
	C390.291931,950.000671 613.619934,950.007507 836.947937,950.007507 
	C837.947876,950.007507 838.949951,950.049255 839.947510,950.000488 
	C847.734131,949.620056 855.562927,942.945312 856.939148,935.532471 
	C858.216980,928.649780 853.765808,920.612976 847.084900,916.972961 
	C840.433960,913.349243 833.348206,915.708618 825.499084,914.987000 
z"/>
<path fill="#D72D30" opacity="1.000000" stroke="none" 
	d="
M282.100861,200.691772 
	C282.831879,200.393005 283.562866,200.094223 284.829224,199.765259 
	C285.537262,199.462448 285.709961,199.189850 285.882690,198.917252 
	C285.882690,198.917252 285.945862,198.933868 286.307037,198.960236 
	C287.439697,198.590607 288.211182,198.194595 288.982666,197.798599 
	C291.145660,197.758438 293.308685,197.683197 295.471680,197.683121 
	C496.974701,197.676254 698.477722,197.675110 900.781250,197.800995 
	C902.747314,198.243759 903.912842,198.559158 905.078369,198.874542 
	C912.176941,199.506821 915.151245,204.812057 917.713989,210.837799 
	C917.761658,213.303452 918.085815,215.201736 918.410034,217.100021 
	C918.380615,254.748917 918.331848,292.397827 918.326050,330.046722 
	C918.316650,390.686127 918.335510,451.325562 918.234863,512.786499 
	C918.213013,514.108093 918.298645,514.608215 918.384277,515.108337 
	C918.372375,515.506104 918.360474,515.903931 918.223511,516.974426 
	C918.110962,518.450806 918.123413,519.254395 918.135925,520.058044 
	C918.135925,520.058044 917.991882,520.483154 917.701416,520.732849 
	C917.410950,520.982544 916.975647,521.140076 916.602966,520.932068 
	C914.469788,520.480347 912.709351,520.023315 910.948853,520.023071 
	C700.981628,519.996155 491.014374,520.001038 281.047119,520.043274 
	C279.334900,520.043640 277.622772,520.575256 275.699463,520.907349 
	C275.488312,520.955933 275.063873,521.043213 275.063873,521.043213 
	C274.957428,520.896790 274.850983,520.750427 274.807617,519.939026 
	C274.787384,517.817322 274.704071,516.360596 274.620728,514.903870 
	C274.630005,415.609436 274.639282,316.314972 274.776794,216.155151 
	C274.886230,213.847305 274.867432,212.404846 274.848602,210.962387 
	C276.830383,207.881912 278.812164,204.801422 281.218628,201.352448 
	C281.795898,200.886551 281.948395,200.789169 282.100861,200.691772 
M865.568542,407.082489 
	C865.269043,407.183472 865.061707,407.381104 864.023804,407.791687 
	C805.357361,407.802155 746.690918,407.824280 688.024475,407.817230 
	C664.692688,407.814423 641.360840,407.747070 617.551575,407.293243 
	C616.359680,407.415985 615.167847,407.538727 613.381042,407.917023 
	C613.136536,408.262146 612.892029,408.607269 612.370728,409.177704 
	C612.483276,409.469788 612.595886,409.761841 612.800232,410.979370 
	C612.857483,431.653137 612.914734,452.326904 612.752930,473.579773 
	C613.370605,473.719635 613.988281,473.981903 614.605957,473.982056 
	C697.903870,474.000946 781.201843,474.003601 864.499756,473.959717 
	C865.335083,473.959290 866.169983,473.330688 867.133240,472.065826 
	C867.147034,451.029572 867.160828,429.993347 867.632019,408.626862 
	C867.089111,408.085114 866.546204,407.543365 865.568542,407.082489 
M866.377930,312.901581 
	C866.461365,312.802673 866.632874,312.676788 866.612305,312.609711 
	C866.542053,312.380127 866.404297,312.171204 866.202087,311.027710 
	C866.209595,290.335693 866.217163,269.643707 866.658081,248.657074 
	C866.478821,248.184479 866.299622,247.711868 866.120422,247.239258 
	C865.762390,247.417786 865.404419,247.596313 864.104309,247.810928 
	C782.410950,247.814987 700.717529,247.819794 619.024170,247.816269 
	C617.695984,247.816208 616.367737,247.714035 614.705322,247.294601 
	C614.123779,247.413986 613.542236,247.533371 612.196411,248.161438 
	C612.125671,269.775177 612.054993,291.388916 611.767273,313.578430 
	C612.717224,313.719543 613.667114,313.984009 614.617065,313.984222 
	C696.857239,314.002960 779.097473,314.006805 861.337646,313.959290 
	C862.891907,313.958374 864.445740,313.332581 865.997437,312.995026 
	C865.997437,312.995026 865.996338,312.983734 866.377930,312.901581 
z"/>
<path fill="#65E9B8" opacity="1.000000" stroke="none" 
	d="
M275.910645,520.858826 
	C277.622772,520.575256 279.334900,520.043640 281.047119,520.043274 
	C491.014374,520.001038 700.981628,519.996155 910.948853,520.023071 
	C912.709351,520.023315 914.469788,520.480347 916.610229,521.391113 
	C917.001160,624.091553 917.012024,726.125000 917.022949,828.158386 
	C917.022949,828.158386 916.942078,828.539917 916.544189,828.806458 
	C915.464111,830.423584 914.781799,831.774170 914.099548,833.124756 
	C911.349670,835.083496 908.599792,837.042175 905.065552,839.023926 
	C900.993347,839.363831 897.705627,839.957214 894.417725,839.957947 
	C695.727905,840.001770 497.038025,839.996643 298.348175,839.999329 
	C295.184387,839.999390 292.020630,840.038818 288.856842,840.059875 
	C282.767609,838.380798 278.336823,834.861877 276.139343,827.931885 
	C276.002075,766.188721 276.007996,705.230591 275.991852,644.272400 
	C275.980927,603.134521 275.938812,561.996704 275.910645,520.858826 
M867.399536,791.721252 
	C867.688660,791.547791 867.802551,791.295227 867.843323,790.322144 
	C867.830994,789.890015 867.818604,789.457825 867.892090,788.498352 
	C867.853394,788.324463 867.814758,788.150635 867.856689,787.046143 
	C867.856689,766.481873 867.856689,745.917603 867.856689,725.520142 
	C782.129944,725.520142 697.270813,725.520142 612.222595,725.520142 
	C612.222595,747.619202 612.222595,769.261475 612.549561,791.564697 
	C614.030579,791.639160 615.511597,791.713562 617.927124,791.866333 
	C700.275452,791.881287 782.623718,791.896545 864.972046,791.905334 
	C865.635254,791.905457 866.298462,791.817444 867.399536,791.721252 
M865.049011,567.109680 
	C780.843323,567.109680 696.637634,567.109680 612.079651,567.109680 
	C612.079651,569.422729 612.079651,570.901917 612.079651,572.381104 
	C612.079529,590.872131 612.253723,609.365967 611.965454,627.852478 
	C611.886414,632.922180 613.786743,633.999695 618.373413,633.994141 
	C700.000427,633.895203 781.627625,633.923401 863.254761,633.907471 
	C864.681946,633.907227 866.109131,633.700256 867.548218,633.588806 
	C867.710205,632.477966 867.886169,631.832458 867.886719,631.186890 
	C867.904480,611.196594 867.918823,591.206238 867.870544,571.216064 
	C867.867920,570.139954 867.317139,569.065063 866.820129,567.552979 
	C866.615356,567.258179 866.335327,567.136475 865.049011,567.109680 
z"/>
<path fill="#A2CBD1" opacity="1.000000" stroke="none" 
	d="
M825.998657,914.987000 
	C833.348206,915.708618 840.433960,913.349243 847.084900,916.972961 
	C853.765808,920.612976 858.216980,928.649780 856.939148,935.532471 
	C855.562927,942.945312 847.734131,949.620056 839.947510,950.000488 
	C838.949951,950.049255 837.947876,950.007507 836.947937,950.007507 
	C613.619934,950.007507 390.291931,950.000671 166.963928,950.032349 
	C158.091492,950.033569 151.503296,946.675720 148.146851,938.186584 
	C147.438950,936.395996 147.033447,934.357910 147.033035,932.433777 
	C146.984695,707.605835 146.985168,482.777863 146.996918,257.949921 
	C146.997437,247.916840 155.091675,240.051483 165.095490,239.964874 
	C175.454803,239.875198 183.165375,250.242203 183.158234,258.637360 
	C182.974426,474.798706 183.012985,690.960205 183.012939,907.121704 
	C183.012939,909.444458 183.012955,911.767273 183.012955,914.987000 
	C397.365875,914.987000 611.432495,914.987000 825.998657,914.987000 
z"/>
<path fill="#83CDAC" opacity="1.000000" stroke="none" 
	d="
M289.150330,840.377563 
	C292.020630,840.038818 295.184387,839.999390 298.348175,839.999329 
	C497.038025,839.996643 695.727905,840.001770 894.417725,839.957947 
	C897.705627,839.957214 900.993347,839.363831 904.715332,839.064697 
	C903.563782,839.722717 902.017334,840.753418 900.383728,840.917847 
	C897.414062,841.216797 894.392517,841.000122 891.392639,841.000122 
	C692.731201,841.001953 494.069702,841.004761 295.408234,840.992920 
	C293.420074,840.992798 291.431946,840.798828 289.150330,840.377563 
z"/>
<path fill="#86D0AF" opacity="1.000000" stroke="none" 
	d="
M917.345093,827.864746 
	C917.012024,726.125000 917.001160,624.091553 916.982910,521.599121 
	C916.975647,521.140076 917.410950,520.982544 917.639771,520.948608 
	C917.919067,522.577332 918.013733,524.239990 918.013855,525.902588 
	C918.020813,624.641968 918.021973,723.381348 918.005310,822.120728 
	C918.005005,823.937500 917.784790,825.754333 917.345093,827.864746 
z"/>
<path fill="#86CBAF" opacity="1.000000" stroke="none" 
	d="
M275.699463,520.907349 
	C275.938812,561.996704 275.980927,603.134521 275.991852,644.272400 
	C276.007996,705.230591 276.002075,766.188721 275.982483,827.623901 
	C275.638000,826.554016 275.035736,825.007202 275.035126,823.460205 
	C274.995819,722.963867 275.005280,622.467529 275.037109,521.507202 
	C275.063873,521.043213 275.488312,520.955933 275.699463,520.907349 
z"/>
<path fill="#F0AAA8" opacity="1.000000" stroke="none" 
	d="
M918.618591,216.796585 
	C918.085815,215.201736 917.761658,213.303452 917.710693,211.202057 
	C918.264954,212.830353 918.546021,214.661758 918.618591,216.796585 
z"/>
<path fill="#86D0AF" opacity="1.000000" stroke="none" 
	d="
M914.385559,832.973267 
	C914.781799,831.774170 915.464111,830.423584 916.469727,828.986694 
	C916.085876,830.207458 915.378723,831.514587 914.385559,832.973267 
z"/>
<path fill="#EDACA8" opacity="1.000000" stroke="none" 
	d="
M905.008423,198.539093 
	C903.912842,198.559158 902.747314,198.243759 901.242432,197.774475 
	C902.248169,197.814941 903.593323,198.009293 905.008423,198.539093 
z"/>
<path fill="#F5A9AB" opacity="1.000000" stroke="none" 
	d="
M274.585022,211.188721 
	C274.867432,212.404846 274.886230,213.847305 274.745850,215.694489 
	C274.498260,214.537827 274.409851,212.976456 274.585022,211.188721 
z"/>
<path fill="#F5A9AB" opacity="1.000000" stroke="none" 
	d="
M274.420258,515.181274 
	C274.704071,516.360596 274.787384,517.817322 274.707855,519.686523 
	C274.436615,518.552185 274.328186,517.005432 274.420258,515.181274 
z"/>
<path fill="#EDACA8" opacity="1.000000" stroke="none" 
	d="
M288.808838,197.606354 
	C288.211182,198.194595 287.439697,198.590607 286.301575,198.928040 
	C286.834961,198.384338 287.734985,197.899231 288.808838,197.606354 
z"/>
<path fill="#F0AAA8" opacity="1.000000" stroke="none" 
	d="
M918.382202,519.879272 
	C918.123413,519.254395 918.110962,518.450806 918.247559,517.272095 
	C918.473938,517.831482 918.551147,518.765991 918.382202,519.879272 
z"/>
<path fill="#F0AAA8" opacity="1.000000" stroke="none" 
	d="
M918.569336,514.927490 
	C918.298645,514.608215 918.213013,514.108093 918.268555,513.245789 
	C918.524597,513.504639 918.639526,514.125671 918.569336,514.927490 
z"/>
<path fill="#EDACA8" opacity="1.000000" stroke="none" 
	d="
M281.959351,200.527283 
	C281.948395,200.789169 281.795898,200.886551 281.381775,201.056320 
	C281.352753,200.873398 281.585297,200.618103 281.959351,200.527283 
z"/>
<path fill="#EDACA8" opacity="1.000000" stroke="none" 
	d="
M285.660156,198.920013 
	C285.709961,199.189850 285.537262,199.462448 285.113892,199.645447 
	C284.931488,199.233078 285.122925,199.022064 285.660156,198.920013 
z"/>
<path fill="#E1E5E4" opacity="1.000000" stroke="none" 
	d="
M612.647461,408.952393 
	C612.892029,408.607269 613.136536,408.262146 614.072144,407.911865 
	C615.851868,407.840851 616.940430,407.774963 618.029053,407.709076 
	C641.360840,407.747070 664.692688,407.814423 688.024475,407.817230 
	C746.690918,407.824280 805.357361,407.802155 864.736816,407.851929 
	C865.632385,407.942871 865.815002,407.973633 866.098877,408.261963 
	C866.524963,408.665375 866.849731,408.811249 867.174561,408.957092 
	C867.160828,429.993347 867.147034,451.029572 866.599976,472.529907 
	C781.701843,472.996246 697.336914,472.998444 612.971985,473.000671 
	C612.914734,452.326904 612.857483,431.653137 612.829163,410.236237 
	C612.787842,409.312866 612.717651,409.132629 612.647461,408.952393 
z"/>
<path fill="#E1E5E4" opacity="1.000000" stroke="none" 
	d="
M866.224670,248.951706 
	C866.217163,269.643707 866.209595,290.335693 866.133667,311.737061 
	C866.042297,312.625549 866.019348,312.804657 865.996338,312.983734 
	C865.996338,312.983734 865.997437,312.995026 865.530029,312.994202 
	C780.703125,312.996490 696.343750,312.999573 611.984314,313.002655 
	C612.054993,291.388916 612.125671,269.775177 612.919189,248.017914 
	C614.107849,247.802765 614.573730,247.731125 615.039551,247.659485 
	C616.367737,247.714035 617.695984,247.816208 619.024170,247.816269 
	C700.717529,247.819794 782.410950,247.814987 864.645386,248.093750 
	C865.532593,248.568283 865.878601,248.759995 866.224670,248.951706 
z"/>
<path fill="#E35D5E" opacity="1.000000" stroke="none" 
	d="
M612.862427,473.290222 
	C697.336914,472.998444 781.701843,472.996246 866.535950,472.994690 
	C866.169983,473.330688 865.335083,473.959290 864.499756,473.959717 
	C781.201843,474.003601 697.903870,474.000946 614.605957,473.982056 
	C613.988281,473.981903 613.370605,473.719635 612.862427,473.290222 
z"/>
<path fill="#E35D5E" opacity="1.000000" stroke="none" 
	d="
M611.875793,313.290527 
	C696.343750,312.999573 780.703125,312.996490 865.531189,312.995880 
	C864.445740,313.332581 862.891907,313.958374 861.337646,313.959290 
	C779.097473,314.006805 696.857239,314.002960 614.617065,313.984222 
	C613.667114,313.984009 612.717224,313.719543 611.875793,313.290527 
z"/>
<path fill="#D76062" opacity="1.000000" stroke="none" 
	d="
M867.403320,408.791992 
	C866.849731,408.811249 866.524963,408.665375 866.100708,408.011261 
	C866.002014,407.335876 866.002625,407.168762 866.003296,407.001648 
	C866.546204,407.543365 867.089111,408.085114 867.403320,408.791992 
z"/>
<path fill="#D55E66" opacity="1.000000" stroke="none" 
	d="
M617.790283,407.501160 
	C616.940430,407.774963 615.851868,407.840851 614.369629,407.784119 
	C615.167847,407.538727 616.359680,407.415985 617.790283,407.501160 
z"/>
<path fill="#D55E66" opacity="1.000000" stroke="none" 
	d="
M866.441406,248.804382 
	C865.878601,248.759995 865.532593,248.568283 865.116455,248.075714 
	C865.404419,247.596313 865.762390,247.417786 866.120422,247.239258 
	C866.299622,247.711868 866.478821,248.184479 866.441406,248.804382 
z"/>
<path fill="#D55E66" opacity="1.000000" stroke="none" 
	d="
M614.872437,247.477051 
	C614.573730,247.731125 614.107849,247.802765 613.301392,247.763580 
	C613.542236,247.533371 614.123779,247.413986 614.872437,247.477051 
z"/>
<path fill="#DE5C68" opacity="1.000000" stroke="none" 
	d="
M612.509094,409.065063 
	C612.717651,409.132629 612.787842,409.312866 612.783264,409.773499 
	C612.595886,409.761841 612.483276,409.469788 612.509094,409.065063 
z"/>
<path fill="#D55E66" opacity="1.000000" stroke="none" 
	d="
M865.785889,407.042053 
	C866.002625,407.168762 866.002014,407.335876 865.999512,407.753693 
	C865.815002,407.973633 865.632385,407.942871 865.198181,407.793793 
	C865.061707,407.381104 865.269043,407.183472 865.785889,407.042053 
z"/>
<path fill="#D55E66" opacity="1.000000" stroke="none" 
	d="
M866.187134,312.942657 
	C866.019348,312.804657 866.042297,312.625549 866.178772,312.200409 
	C866.404297,312.171204 866.542053,312.380127 866.612305,312.609711 
	C866.632874,312.676788 866.461365,312.802673 866.187134,312.942657 
z"/>
<path fill="#E1E5E4" opacity="1.000000" stroke="none" 
	d="
M867.021545,567.989624 
	C867.317139,569.065063 867.867920,570.139954 867.870544,571.216064 
	C867.918823,591.206238 867.904480,611.196594 867.886719,631.186890 
	C867.886169,631.832458 867.710205,632.477966 867.548218,633.588806 
	C866.109131,633.700256 864.681946,633.907227 863.254761,633.907471 
	C781.627625,633.923401 700.000427,633.895203 618.373413,633.994141 
	C613.786743,633.999695 611.886414,632.922180 611.965454,627.852478 
	C612.253723,609.365967 612.079529,590.872131 612.079651,572.381104 
	C612.079651,570.901917 612.079651,569.422729 612.079651,567.109680 
	C696.637634,567.109680 780.843323,567.109680 865.641418,567.334961 
	C866.450928,567.786743 866.713501,567.929871 867.021545,567.989624 
z"/>
<path fill="#E1E5E4" opacity="1.000000" stroke="none" 
	d="
M867.806152,789.025696 
	C867.818604,789.457825 867.830994,789.890015 867.630371,790.742615 
	C867.212830,791.325989 867.060852,791.528503 866.961670,791.770569 
	C866.298462,791.817444 865.635254,791.905457 864.972046,791.905334 
	C782.623718,791.896545 700.275452,791.881287 617.194214,791.598816 
	C615.048462,791.188843 613.635498,791.046326 612.222595,790.903809 
	C612.222595,769.261475 612.222595,747.619202 612.222595,725.520142 
	C697.270813,725.520142 782.129944,725.520142 867.856689,725.520142 
	C867.856689,745.917603 867.856689,766.481873 867.684570,787.619568 
	C867.610291,788.470581 867.708252,788.748169 867.806152,789.025696 
z"/>
<path fill="#BDEADA" opacity="1.000000" stroke="none" 
	d="
M612.386108,791.234253 
	C613.635498,791.046326 615.048462,791.188843 616.726990,791.559692 
	C615.511597,791.713562 614.030579,791.639160 612.386108,791.234253 
z"/>
<path fill="#C0EAD9" opacity="1.000000" stroke="none" 
	d="
M866.920837,567.771301 
	C866.713501,567.929871 866.450928,567.786743 866.106995,567.374023 
	C866.335327,567.136475 866.615356,567.258179 866.920837,567.771301 
z"/>
<path fill="#BDEADA" opacity="1.000000" stroke="none" 
	d="
M867.849121,788.762024 
	C867.708252,788.748169 867.610291,788.470581 867.644287,788.084839 
	C867.814758,788.150635 867.853394,788.324463 867.849121,788.762024 
z"/>
<path fill="#BDEADA" opacity="1.000000" stroke="none" 
	d="
M867.180603,791.745911 
	C867.060852,791.528503 867.212830,791.325989 867.579346,791.063293 
	C867.802551,791.295227 867.688660,791.547791 867.180603,791.745911 
z"/>
</svg>