<svg version="1.1" id="Layer_1" xmlns="http://www.w3.org/2000/svg" xmlns:xlink="http://www.w3.org/1999/xlink" x="0px" y="0px"
	 width="100%" viewBox="0 0 1181 1181" enable-background="new 0 0 1181 1181" xml:space="preserve">
<path fill="#FFFFFF" opacity="1.000000" stroke="none" 
	d="
M633.000000,1182.000000 
	C422.000000,1182.000000 211.500000,1182.000000 1.000000,1182.000000 
	C1.000000,788.333313 1.000000,394.666656 1.000000,1.000000 
	C394.666656,1.000000 788.333313,1.000000 1182.000000,1.000000 
	C1182.000000,394.666656 1182.000000,788.333313 1182.000000,1182.000000 
	C999.166687,1182.000000 816.333313,1182.000000 633.000000,1182.000000 
M275.010529,212.479614 
	C275.081329,212.639908 275.152130,212.800186 275.037842,213.498825 
	C274.973907,213.677475 274.909943,213.856125 274.315430,214.663330 
	C274.210297,216.480835 274.013214,218.298355 274.013092,220.115860 
	C273.999207,420.306305 273.997528,620.496765 274.033386,820.687195 
	C274.033752,822.779907 274.537720,824.872559 275.066376,827.454529 
	C275.356628,827.668762 275.646881,827.882996 275.968201,828.820923 
	C279.379333,837.644836 286.226471,840.956421 295.231903,840.955933 
	C494.492157,840.945496 693.752380,840.948364 893.012634,840.941345 
	C895.675171,840.941284 898.337708,840.844421 901.491272,840.932922 
	C901.655884,840.889648 901.820435,840.846313 902.727722,840.927185 
	C907.217163,838.517883 912.801270,837.637512 915.517090,831.914185 
	C915.586060,831.617554 915.655090,831.320862 915.926880,830.542664 
	C915.955444,830.370911 915.984070,830.199097 916.490356,829.888123 
	C916.817566,829.661926 916.900269,829.367126 916.958618,828.555115 
	C916.958618,828.555115 917.037903,828.061707 917.748901,827.564880 
	C917.839539,826.411499 918.009521,825.258118 918.009583,824.104736 
	C918.019287,623.235229 918.017456,422.365692 918.005127,221.496170 
	C918.004944,219.337662 917.859680,217.179153 917.910461,214.346329 
	C917.867615,213.892731 917.824768,213.439148 917.927795,212.323334 
	C917.277832,211.268219 916.627869,210.213104 915.361755,208.776566 
	C913.794067,202.384567 908.628662,200.450211 902.735168,198.278473 
	C901.497559,198.254898 900.260010,198.231308 898.091370,198.070755 
	C696.538513,198.063538 494.985626,198.018509 293.432922,198.188583 
	C285.437561,198.195328 278.616669,201.706161 275.480896,210.914429 
	C275.480896,210.914429 275.050690,211.016617 274.699127,211.132080 
	C274.616364,211.221695 274.446259,211.348068 274.465851,211.394608 
	C274.554596,211.605316 274.696899,211.793472 275.010529,212.479614 
M500.500000,950.014160 
	C612.485474,950.014160 724.470886,950.014099 836.456360,950.014099 
	C837.622864,950.014099 838.791870,950.063538 839.955566,950.005798 
	C849.454529,949.534241 857.764709,940.613770 856.962280,931.536743 
	C856.171875,922.595093 848.617615,914.888184 838.003357,914.893616 
	C622.031067,915.004517 406.058716,914.976807 190.086349,914.976868 
	C187.837143,914.976868 185.587921,914.976868 183.023102,914.976868 
	C183.023102,911.989441 183.023102,909.839844 183.023102,907.690308 
	C183.023102,692.884460 183.023148,478.078644 183.022308,263.272797 
	C183.022308,261.106445 183.055771,258.938843 182.996307,256.773956 
	C182.701370,246.036530 171.174927,237.851044 160.822144,240.498199 
	C152.916306,242.519684 146.841553,250.366821 146.848557,259.794617 
	C147.014328,483.265900 147.027802,706.737427 146.846207,930.208618 
	C146.835724,943.114441 156.471756,950.133606 167.042709,950.117615 
	C277.861603,949.950012 388.680847,950.014160 500.500000,950.014160 
z"/>
<path fill="#D72D30" opacity="1.000000" stroke="none" 
	d="
M901.000244,840.792725 
	C898.337708,840.844421 895.675171,840.941284 893.012634,840.941345 
	C693.752380,840.948364 494.492157,840.945496 295.231903,840.955933 
	C286.226471,840.956421 279.379333,837.644836 275.982422,827.985229 
	C275.997345,625.020142 276.000244,422.890808 275.966278,220.761490 
	C275.965942,218.829727 275.475037,216.898071 275.124939,214.732056 
	C274.973145,214.343430 274.909576,214.189102 274.845978,214.034775 
	C274.909943,213.856125 274.973907,213.677475 275.347137,213.033478 
	C275.744385,212.000534 275.832367,211.432922 275.920319,210.865311 
	C278.616669,201.706161 285.437561,198.195328 293.432922,198.188583 
	C494.985626,198.018509 696.538513,198.063538 898.825623,198.376678 
	C900.753845,198.759796 901.947876,198.837006 903.141846,198.914200 
	C908.628662,200.450211 913.794067,202.384567 915.672180,209.292267 
	C916.582336,210.867188 917.182129,211.926376 917.781860,212.985565 
	C917.824768,213.439148 917.867615,213.892731 917.593750,215.008209 
	C917.186340,217.491486 917.016663,219.312881 917.016296,221.134293 
	C917.003052,297.458618 917.001038,373.782959 917.005798,450.107300 
	C917.013611,576.092102 917.026917,702.076904 917.037903,828.061707 
	C917.037903,828.061707 916.958618,828.555115 916.654907,828.890137 
	C916.117249,829.441467 916.004456,829.708801 916.012756,830.027222 
	C915.984070,830.199097 915.955444,830.370911 915.638184,830.907959 
	C915.132568,831.507446 915.033630,831.783875 915.052795,832.102600 
	C912.801270,837.637512 907.217163,838.517883 902.264893,840.721008 
	C901.534790,840.607483 901.267517,840.700134 901.000244,840.792725 
M865.999878,247.998352 
	C865.999878,247.998352 866.050354,247.964233 865.552124,247.258652 
	C864.231506,247.166946 862.910950,246.995178 861.590332,246.994965 
	C781.062622,246.982162 700.534973,246.982529 620.007263,246.991058 
	C618.680176,246.991211 617.353088,247.106659 615.149475,247.021286 
	C613.875977,247.088806 612.602539,247.156326 611.328857,247.223846 
	C611.328857,269.624359 611.328857,291.669800 611.328857,313.855194 
	C612.636902,313.915497 613.617920,314.000305 614.598938,314.000366 
	C697.041870,314.003906 779.484741,314.005035 861.927673,313.962677 
	C863.308960,313.961975 864.689941,313.427551 866.769409,312.615906 
	C866.848022,291.756195 866.936035,270.896515 866.964111,250.036743 
	C866.965088,249.341339 866.359131,248.645096 865.999878,247.998352 
M865.756226,791.918823 
	C866.505005,789.773071 867.883301,787.633179 867.903625,785.480591 
	C868.078247,766.983887 868.014221,748.484985 867.998413,729.986694 
	C867.997070,728.398193 867.829773,726.809753 867.744812,725.313965 
	C782.215698,725.313965 697.300232,725.313965 612.155701,725.313965 
	C612.155701,747.093933 612.155701,768.555847 612.106262,790.863464 
	C614.748169,791.242371 617.389893,791.950500 620.032104,791.952393 
	C700.010376,792.011169 779.988708,792.001404 859.967041,791.992432 
	C861.628784,791.992249 863.290466,791.875488 865.756226,791.918823 
M616.213989,407.056091 
	C614.859375,407.518585 613.504700,407.981049 612.328491,408.382629 
	C612.328491,430.318817 612.328491,452.044098 612.328491,474.007263 
	C613.985596,474.007263 615.303406,474.007324 616.621216,474.007263 
	C698.398926,474.004303 780.176575,474.001373 861.954285,473.998413 
	C862.620483,473.998413 863.291809,473.944977 863.952087,474.007355 
	C866.964600,474.291962 868.072754,472.967865 868.052307,469.940308 
	C867.914734,449.625183 867.895935,429.309265 867.868958,408.152588 
	C866.058411,407.762726 864.248169,407.033234 862.437317,407.031952 
	C782.627441,406.975403 702.817566,406.981750 623.007629,406.990692 
	C621.012268,406.990936 619.016907,407.104156 616.213989,407.056091 
M616.213989,567.056030 
	C614.859375,567.518555 613.504761,567.981079 612.328491,568.382690 
	C612.328491,590.318787 612.328491,612.044067 612.328491,634.007202 
	C613.987854,634.007202 615.304565,634.007263 616.621216,634.007202 
	C698.398865,634.004395 780.176514,634.001465 861.954163,633.998535 
	C862.620361,633.998535 863.291687,633.945007 863.951965,634.007385 
	C866.964417,634.291992 868.072754,632.968018 868.052246,629.940369 
	C867.914734,609.625244 867.895874,589.309387 867.868896,568.152649 
	C866.058411,567.762817 864.248230,567.033203 862.437439,567.031921 
	C782.627563,566.975403 702.817566,566.981812 623.007629,566.990723 
	C621.012268,566.990906 619.016907,567.104187 616.213989,567.056030 
z"/>
<path fill="#A2CBD1" opacity="1.000000" stroke="none" 
	d="
M500.000000,950.014160 
	C388.680847,950.014160 277.861603,949.950012 167.042709,950.117615 
	C156.471756,950.133606 146.835724,943.114441 146.846207,930.208618 
	C147.027802,706.737427 147.014328,483.265900 146.848557,259.794617 
	C146.841553,250.366821 152.916306,242.519684 160.822144,240.498199 
	C171.174927,237.851044 182.701370,246.036530 182.996307,256.773956 
	C183.055771,258.938843 183.022308,261.106445 183.022308,263.272797 
	C183.023148,478.078644 183.023102,692.884460 183.023102,907.690308 
	C183.023102,909.839844 183.023102,911.989441 183.023102,914.976868 
	C185.587921,914.976868 187.837143,914.976868 190.086349,914.976868 
	C406.058716,914.976807 622.031067,915.004517 838.003357,914.893616 
	C848.617615,914.888184 856.171875,922.595093 856.962280,931.536743 
	C857.764709,940.613770 849.454529,949.534241 839.955566,950.005798 
	C838.791870,950.063538 837.622864,950.014099 836.456360,950.014099 
	C724.470886,950.014099 612.485474,950.014160 500.000000,950.014160 
z"/>
<path fill="#E43E4A" opacity="1.000000" stroke="none" 
	d="
M275.213165,214.966354 
	C275.475037,216.898071 275.965942,218.829727 275.966278,220.761490 
	C276.000244,422.890808 275.997345,625.020142 275.966888,827.623291 
	C275.646881,827.882996 275.356628,827.668762 275.008911,826.748718 
	C274.967651,823.711304 274.997955,821.379700 274.997986,819.048096 
	C275.000153,620.014404 274.999298,420.980682 275.008850,221.946991 
	C275.008972,219.620117 275.142120,217.293228 275.213165,214.966354 
z"/>
<path fill="#E1404F" opacity="1.000000" stroke="none" 
	d="
M917.393433,827.813293 
	C917.026917,702.076904 917.013611,576.092102 917.005798,450.107300 
	C917.001038,373.782959 917.003052,297.458618 917.016296,221.134293 
	C917.016663,219.312881 917.186340,217.491486 917.529541,215.345367 
	C917.859680,217.179153 918.004944,219.337662 918.005127,221.496170 
	C918.017456,422.365692 918.019287,623.235229 918.009583,824.104736 
	C918.009521,825.258118 917.839539,826.411499 917.393433,827.813293 
z"/>
<path fill="#F9FFED" opacity="1.000000" stroke="none" 
	d="
M275.124939,214.732056 
	C275.142120,217.293228 275.008972,219.620117 275.008850,221.946991 
	C274.999298,420.980682 275.000153,620.014404 274.997986,819.048096 
	C274.997955,821.379700 274.967651,823.711304 274.879028,826.504028 
	C274.537720,824.872559 274.033752,822.779907 274.033386,820.687195 
	C273.997528,620.496765 273.999207,420.306305 274.013092,220.115860 
	C274.013214,218.298355 274.210297,216.480835 274.580688,214.349060 
	C274.909576,214.189102 274.973145,214.343430 275.124939,214.732056 
z"/>
<path fill="#E1404F" opacity="1.000000" stroke="none" 
	d="
M917.854858,212.654449 
	C917.182129,211.926376 916.582336,210.867188 915.980286,209.482986 
	C916.627869,210.213104 917.277832,211.268219 917.854858,212.654449 
z"/>
<path fill="#E1464C" opacity="1.000000" stroke="none" 
	d="
M902.938477,198.596344 
	C901.947876,198.837006 900.753845,198.759796 899.291138,198.445160 
	C900.260010,198.231308 901.497559,198.254898 902.938477,198.596344 
z"/>
<path fill="#E43E4A" opacity="1.000000" stroke="none" 
	d="
M275.700623,210.889862 
	C275.832367,211.432922 275.744385,212.000534 275.439667,212.764313 
	C275.152130,212.800186 275.081329,212.639908 275.000244,211.997864 
	C275.010193,211.349609 275.030457,211.183105 275.050690,211.016617 
	C275.050690,211.016617 275.480896,210.914429 275.700623,210.889862 
z"/>
<path fill="#F9FFED" opacity="1.000000" stroke="none" 
	d="
M274.874908,211.074341 
	C275.030457,211.183105 275.010193,211.349609 274.904938,211.752914 
	C274.696899,211.793472 274.554596,211.605316 274.465851,211.394608 
	C274.446259,211.348068 274.616364,211.221695 274.874908,211.074341 
z"/>
<path fill="#E1404F" opacity="1.000000" stroke="none" 
	d="
M916.251587,829.957642 
	C916.004456,829.708801 916.117249,829.441467 916.544861,829.114502 
	C916.900269,829.367126 916.817566,829.661926 916.251587,829.957642 
z"/>
<path fill="#E1404F" opacity="1.000000" stroke="none" 
	d="
M915.284912,832.008423 
	C915.033630,831.783875 915.132568,831.507446 915.536865,831.148804 
	C915.655090,831.320862 915.586060,831.617554 915.284912,832.008423 
z"/>
<path fill="#E44142" opacity="1.000000" stroke="none" 
	d="
M901.245728,840.862793 
	C901.267517,840.700134 901.534790,840.607483 901.893555,840.658936 
	C901.820435,840.846313 901.655884,840.889648 901.245728,840.862793 
z"/>
<path fill="#E1E5E4" opacity="1.000000" stroke="none" 
	d="
M867.838562,568.993652 
	C867.895874,589.309387 867.914734,609.625244 868.052246,629.940369 
	C868.072754,632.968018 866.964417,634.291992 863.951965,634.007385 
	C863.291687,633.945007 862.620361,633.998535 861.954163,633.998535 
	C780.176514,634.001465 698.398865,634.004395 616.621216,634.007202 
	C615.304565,634.007263 613.987854,634.007202 612.328491,634.007202 
	C612.328491,612.044067 612.328491,590.318787 612.328491,568.382690 
	C613.504761,567.981079 614.859375,567.518555 616.936157,567.371765 
	C619.643677,567.790955 621.629028,567.984619 623.614441,567.984985 
	C702.756897,568.000305 781.899292,567.989807 861.041748,568.039795 
	C863.307556,568.041199 865.572937,568.661804 867.838562,568.993652 
z"/>
<path fill="#E1E5E4" opacity="1.000000" stroke="none" 
	d="
M867.838562,408.993591 
	C867.895935,429.309265 867.914734,449.625183 868.052307,469.940308 
	C868.072754,472.967865 866.964600,474.291962 863.952087,474.007355 
	C863.291809,473.944977 862.620483,473.998413 861.954285,473.998413 
	C780.176575,474.001373 698.398926,474.004303 616.621216,474.007263 
	C615.303406,474.007324 613.985596,474.007263 612.328491,474.007263 
	C612.328491,452.044098 612.328491,430.318817 612.328491,408.382629 
	C613.504700,407.981049 614.859375,407.518585 616.936035,407.371796 
	C619.643494,407.791260 621.628906,407.985352 623.614258,407.985718 
	C702.756714,408.001007 781.899170,407.990509 861.041626,408.040497 
	C863.307434,408.041931 865.572937,408.661987 867.838562,408.993591 
z"/>
<path fill="#E1E5E4" opacity="1.000000" stroke="none" 
	d="
M612.155701,790.017700 
	C612.155701,768.555847 612.155701,747.093933 612.155701,725.313965 
	C697.300232,725.313965 782.215698,725.313965 867.744812,725.313965 
	C867.829773,726.809753 867.997070,728.398193 867.998413,729.986694 
	C868.014221,748.484985 868.078247,766.983887 867.903625,785.480591 
	C867.883301,787.633179 866.505005,789.773071 865.035950,791.609070 
	C862.329102,791.200378 860.342468,791.015320 858.355896,791.014954 
	C779.537781,791.000305 700.719727,791.014160 621.901611,790.960693 
	C618.652771,790.958496 615.404358,790.345947 612.155701,790.017700 
z"/>
<path fill="#E1E5E4" opacity="1.000000" stroke="none" 
	d="
M866.071106,313.142181 
	C864.689941,313.427551 863.308960,313.961975 861.927673,313.962677 
	C779.484741,314.005035 697.041870,314.003906 614.598938,314.000366 
	C613.617920,314.000305 612.636902,313.915497 611.328857,313.855194 
	C611.328857,291.669800 611.328857,269.624359 611.328857,247.223846 
	C612.602539,247.156326 613.875977,247.088806 615.905884,247.355621 
	C617.814880,247.792877 618.967407,247.985886 620.119934,247.985931 
	C702.096741,247.988525 784.073547,247.975754 866.050354,247.964233 
	C866.050354,247.964233 865.999878,247.998352 866.004395,248.446136 
	C866.029602,270.309998 866.050354,291.726074 866.071106,313.142181 
z"/>
<path fill="#DCE2D4" opacity="1.000000" stroke="none" 
	d="
M612.130981,790.440552 
	C615.404358,790.345947 618.652771,790.958496 621.901611,790.960693 
	C700.719727,791.014160 779.537781,791.000305 858.355896,791.014954 
	C860.342468,791.015320 862.329102,791.200378 864.633911,791.556213 
	C863.290466,791.875488 861.628784,791.992249 859.967041,791.992432 
	C779.988708,792.001404 700.010376,792.011169 620.032104,791.952393 
	C617.389893,791.950500 614.748169,791.242371 612.130981,790.440552 
z"/>
<path fill="#E2DBCB" opacity="1.000000" stroke="none" 
	d="
M867.853760,408.573090 
	C865.572937,408.661987 863.307434,408.041931 861.041626,408.040497 
	C781.899170,407.990509 702.756714,408.001007 623.614258,407.985718 
	C621.628906,407.985352 619.643494,407.791260 617.339844,407.426086 
	C619.016907,407.104156 621.012268,406.990936 623.007629,406.990692 
	C702.817566,406.981750 782.627441,406.975403 862.437317,407.031952 
	C864.248169,407.033234 866.058411,407.762726 867.853760,408.573090 
z"/>
<path fill="#E2DBCB" opacity="1.000000" stroke="none" 
	d="
M867.853760,568.573120 
	C865.572937,568.661804 863.307556,568.041199 861.041748,568.039795 
	C781.899292,567.989807 702.756897,568.000305 623.614441,567.984985 
	C621.629028,567.984619 619.643677,567.790955 617.339905,567.426086 
	C619.016907,567.104187 621.012268,566.990906 623.007629,566.990723 
	C702.817566,566.981812 782.627563,566.975403 862.437439,567.031921 
	C864.248230,567.033203 866.058411,567.762817 867.853760,568.573120 
z"/>
<path fill="#E2DBCB" opacity="1.000000" stroke="none" 
	d="
M865.801270,247.611450 
	C784.073547,247.975754 702.096741,247.988525 620.119934,247.985931 
	C618.967407,247.985886 617.814880,247.792877 616.344177,247.429138 
	C617.353088,247.106659 618.680176,246.991211 620.007263,246.991058 
	C700.534973,246.982529 781.062622,246.982162 861.590332,246.994965 
	C862.910950,246.995178 864.231506,247.166946 865.801270,247.611450 
z"/>
<path fill="#E2DBCB" opacity="1.000000" stroke="none" 
	d="
M866.420288,312.879028 
	C866.050354,291.726074 866.029602,270.309998 866.022461,248.421570 
	C866.359131,248.645096 866.965088,249.341339 866.964111,250.036743 
	C866.936035,270.896515 866.848022,291.756195 866.420288,312.879028 
z"/>
</svg>