<?xml version="1.0" encoding="utf-8"?>
<!-- Generator: Adobe Illustrator 23.0.3, SVG Export Plug-In . SVG Version: 6.00 Build 0)  -->
<svg version="1.1" id="圖層_1" xmlns="http://www.w3.org/2000/svg" xmlns:xlink="http://www.w3.org/1999/xlink" x="0px" y="0px"
	 viewBox="0 0 246.71 246.71" style="enable-background:new 0 0 246.71 246.71;" xml:space="preserve">
<style type="text/css">
	.st0{fill:#65E9B9;}
	.st1{fill:#2DAD79;}
	.st2{fill:none;}
	.st3{fill:#6D6D6D;}
	.st4{fill:#565656;}
</style>
<g>
	<path class="st0" d="M119.68,37c-1.63,0.29-3.27,0.55-4.9,0.88c-9.56,1.95-17.27,6.94-23.68,14.18c-10.44,11.8-13.13,30.76-6.47,45
		c6.92,14.8,21.98,25.79,40.37,25.1V37C123.23,37,121.46,37,119.68,37z"/>
	<path class="st0" d="M102.65,129.2c-2.6-1.59-5.07-3.41-7.74-4.86c-1.62-0.88-3.51-1.76-5.3-1.79c-5.65-0.11-11.05,1.19-16.09,3.89
		c-8.05,4.31-12.96,11.34-16.23,19.49c-5.5,13.69-7.2,28.05-5.95,42.68c0.7,8.2,4.68,14.83,11.44,19.66
		c5.95,4.26,12.73,5.67,19.9,5.66c13.99-0.01,27.98,0,41.98,0c0.11,0,0.23,0,0.34,0v-77.96C117.55,136.03,110.1,133.77,102.65,129.2
		z"/>
	<path class="st1" d="M159.61,102.41c5.95-8.9,7.48-18.86,6.09-29.39c-2.11-16-15.5-30.95-31.17-34.63c-2.28-0.53-4.6-0.93-6.9-1.39
		c-0.88,0-1.76,0-2.63,0v85.16c0.44-0.02,0.88-0.03,1.32-0.06C140.78,121.12,151.71,114.23,159.61,102.41z"/>
	<path class="st1" d="M171.98,213.61c15.7-1.63,26.27-13.05,26.45-28.82c0.06-5.11-0.18-10.25-0.68-15.34
		c-0.99-10.02-3.18-19.74-8.07-28.69c-5.47-10.03-13.59-16.29-25.07-17.98c-4.21-0.62-8.1-0.24-11.63,2.4
		c-1.93,1.44-4.02,2.67-6.08,3.95c-7.29,4.51-14.6,6.79-21.9,6.84v77.96c13.76,0,27.53,0.01,41.29-0.01
		C168.19,213.91,170.09,213.81,171.98,213.61z"/>
</g>
</svg>
