<svg width="24" height="24" viewBox="0 0 24 24" fill="none" xmlns="http://www.w3.org/2000/svg">
<path d="M16.5186 9.34766H21.0186V4.84766" stroke="#B3B3B3" stroke-width="1.5" stroke-linecap="round" stroke-linejoin="round"/>
<path d="M6.16895 6.16787C6.93431 5.40139 7.84329 4.79331 8.84387 4.37843C9.84445 3.96355 10.917 3.75 12.0002 3.75C13.0834 3.75 14.1559 3.96355 15.1565 4.37843C16.1571 4.79331 17.0661 5.40139 17.8314 6.16787L21.0189 9.346" stroke="#B3B3B3" stroke-width="1.5" stroke-linecap="round" stroke-linejoin="round"/>
<path d="M7.48145 14.6523H2.98145V19.1523" stroke="#B3B3B3" stroke-width="1.5" stroke-linecap="round" stroke-linejoin="round"/>
<path d="M17.8314 17.8305C17.0661 18.597 16.1571 19.205 15.1565 19.6199C14.1559 20.0348 13.0834 20.2483 12.0002 20.2483C10.917 20.2483 9.84445 20.0348 8.84387 19.6199C7.84329 19.205 6.93431 18.597 6.16895 17.8305L2.98145 14.6523" stroke="#B3B3B3" stroke-width="1.5" stroke-linecap="round" stroke-linejoin="round"/>
</svg>
