<svg width="50" height="38" viewBox="0 0 50 38" fill="none" xmlns="http://www.w3.org/2000/svg">
<path d="M48.9679 14.7277C47.842 13.9465 45.2618 13.6535 43.2446 14.0442C43.01 12.0911 41.931 10.3822 40.0545 8.86858L38.9755 8.08736L38.2249 9.21036C37.2866 10.6751 36.8175 12.7258 36.9582 14.6789C37.0052 15.3625 37.2397 16.5831 37.9434 17.6573C37.2866 18.0479 35.9262 18.5362 34.1435 18.5362H0.225541L0.131715 18.9268C-0.196674 20.8798 -0.196674 26.9831 3.65017 31.6704C6.55877 35.2347 10.8747 37.0413 16.5512 37.0413C28.8423 37.0413 37.9434 31.1333 42.2125 20.4404C43.9013 20.4892 47.5136 20.4404 49.3432 16.7784C49.3901 16.6808 49.484 16.4855 49.8123 15.7531L50 15.3625L48.9679 14.7277ZM27.3411 0.95874H22.1807V5.84136H27.3411V0.95874ZM27.3411 6.81788H22.1807V11.7005H27.3411V6.81788ZM21.2425 6.81788H16.0821V11.7005H21.2425V6.81788ZM15.1438 6.81788H9.9834V11.7005H15.1438V6.81788ZM9.04514 12.677H3.88474V17.5596H9.04514V12.677ZM15.1438 12.677H9.9834V17.5596H15.1438V12.677ZM21.2425 12.677H16.0821V17.5596H21.2425V12.677ZM27.3411 12.677H22.1807V17.5596H27.3411V12.677ZM33.4398 12.677H28.2794V17.5596H33.4398V12.677Z" fill="#2396ED"/>
</svg>
