<svg width="382" height="171" viewBox="0 0 382 171" fill="none" xmlns="http://www.w3.org/2000/svg">
<path d="M16 152.2C16 152.2 16 153 16 153.3C15.6 163.6 15.2 167.2 14.3 168.3C13.8 169 13.3 169.2 12.6 169.4C12 169.5 11 169.5 9.90005 169.4C9.90005 168.8 9.60005 167.8 9.30005 167.1C10.2 167.2 11.1 167.2 11.5 167.2C11.9 167.2 12.1 167.1 12.3 166.8C12.9 166.1 13.3 162.9 13.6 154.4H10.7C10.4 160.4 9.50005 166.2 6.60005 169.9C6.20005 169.3 5.40005 168.7 4.80005 168.3C7.50005 165 8.20005 159.8 8.50005 154.4H5.40005V152.2H8.50005C8.50005 150.8 8.50005 149.3 8.50005 148H10.8C10.8 149.4 10.8 150.8 10.8 152.2H16V152.2ZM26 150.8V169.4H23.7001V167.9H19.7V169.6H17.5V150.8H26V150.8ZM23.7001 165.7V153H19.7V165.8H23.7001V165.7Z" fill="white"/>
<path d="M96.2 165.5C96.7 165.7 97.2 166.1 98 166.6C99.6 167.4 101.7 167.6 104.2 167.6C106.8 167.6 110.4 167.4 112.7 167.1C112.4 167.7 112.1 168.7 112.1 169.3C110.4 169.4 106.5 169.5 104.2 169.5C101.4 169.5 99.3 169.2 97.6 168.3C96.6 167.7 95.8 167.1 95.2 167.1C94.4 167.1 93.1 168.4 91.9 169.8L90.5 167.9C91.7 166.8 92.9 165.8 94 165.4V158.4H90.8V156.3H96.2V165.5ZM94.8 154.1C94.1 153 92.4 151.3 91.1 150L92.8 148.8C94.1 150 95.8 151.6 96.6 152.7L94.8 154.1ZM103.5 161.6C102.1 163.5 100.2 165.1 98.4 166.1C98.1 165.6 97.4 164.8 97 164.4C99.1 163.5 101.3 161.8 102.6 160H98.2V153.9H103.5V152.2H97.3V150.3H103.5V148H105.7V150.3H112.3V152.2H105.7V153.9H111.3V160H106.4C108.4 161.3 110.8 163 112 164.2L110.6 165.7C109.6 164.6 107.6 163 105.7 161.7V166.7H103.5V161.6V161.6ZM100.2 158.2H103.5V155.6H100.2V158.2ZM105.6 155.6V158.2H109V155.6H105.6Z" fill="white"/>
<path d="M185.7 163.1H179.5L178 168.1H175.2L181.1 150.4H184.3L190.2 168.1H187.2L185.7 163.1ZM185 160.9L184.3 158.5C183.7 156.6 183.2 154.6 182.6 152.6H182.5C182 154.6 181.4 156.6 180.9 158.5L180.2 160.9H185Z" fill="white"/>
<path d="M197.5 150.4H200.3V168.1H197.5V150.4Z" fill="white"/>
<path d="M273.9 154.2C272.9 155.6 271.8 157 270.6 157.8C270.3 157.3 269.6 156.6 269.2 156.3C270.6 155.4 272.2 153.9 273.3 152.3H269.8V150.4H274V148H276V150.3H279.8V152.2H276.2C277.2 152.8 279.2 154.3 279.8 154.8L278.6 156.6C278.1 156 277 154.9 276 154V158.3H274V154.2H273.9ZM287.1 159.4L288.6 160.4C285.5 166.2 278.7 168.9 271.4 170.1C271.2 169.5 270.7 168.5 270.2 168C273.3 167.6 276.3 166.9 278.8 165.9C277.7 165.2 276.2 164.4 275 163.8L276.7 162.6C278 163.2 279.8 164.1 281 164.8C282.7 163.9 284.1 162.7 285.2 161.3H277.4C275.7 162.4 273.9 163.4 272.1 164.1C271.7 163.6 270.9 162.9 270.4 162.5C273.6 161.3 277.1 159.3 278.7 157.4L280.9 158.3C280.5 158.7 280.2 159 279.7 159.4H286.4H287.1ZM287.2 152.2C288.4 153.8 290.1 155.3 291.6 156.2C291.1 156.6 290.5 157.3 290.1 157.8C288.8 156.9 287.4 155.4 286.3 153.9V158.4H284.2V154.3C283.2 155.7 282 156.9 280.8 157.7C280.5 157.2 279.8 156.5 279.4 156.1C280.9 155.3 282.5 153.8 283.7 152.2H280.5V150.3H284.3V148H286.4V150.3H291.1V152.2H287.2V152.2Z" fill="white"/>
<path d="M359.5 162.1V156.5C358.6 158.2 357.4 159.8 356.2 160.8C355.9 160.3 355.2 159.6 354.7 159.2C356.4 158 358.1 155.7 359.1 153.4H355.3V151.5H359.5V148H361.6V151.4H365.2V153.3H361.6V154.5C362.5 155.1 364.9 156.8 365.5 157.2L364.3 159C363.7 158.4 362.6 157.3 361.6 156.5V162L359.5 162.1ZM355 167.7C355.9 166.4 356.7 164.4 357.2 162.8L359.2 163.6C358.7 165.3 357.9 167.4 357.1 168.7L355 167.7ZM368.7 167.5C369.8 167.5 370 167.2 370.1 164.8C370.6 165.2 371.5 165.5 372.1 165.6C371.8 168.8 371.2 169.5 368.8 169.5H364.1C361.2 169.5 360.5 168.9 360.5 166.8V163.2H362.7V166.8C362.7 167.4 362.9 167.5 364.3 167.5H368.7V167.5ZM365.4 161.4C366.5 162.4 367.9 163.8 368.7 164.7L367 166C366.3 165.1 364.9 163.6 363.8 162.5L365.4 161.4ZM375.7 161.8H366.2V149.2H375.7V161.8ZM373.5 151H368.2V152.8H373.5V151ZM373.5 154.5H368.2V156.4H373.5V154.5ZM373.5 158.1H368.2V160H373.5V158.1ZM374 162.4C375 163.9 376.3 165.9 376.9 167.2L374.8 168.3C374.2 167 373 164.9 372 163.4L374 162.4Z" fill="white"/>
<path d="M262.7 96.7C253.9 104.2 252.8 117.5 260.4 126.3C267.9 135.1 281.2 136.2 290 128.6C298.8 121.1 286.3 116.4 282.4 119.7C278.5 123 272.6 122.6 269.3 118.7C267.9 117.1 267.2 115.2 267.1 113.2C266.9 110.4 262.7 96.7 262.7 96.7Z" fill="white"/>
<path d="M255.365 69.1999V113.2H267.065V69.1999H255.365Z" fill="white"/>
<path d="M267 69.3C267.1 67.3 267.8 65.4 269.2 63.8C272.5 59.9 278.4 59.4 282.3 62.8C286.2 66.1 298.7 61.4 289.9 53.9C281.1 46.4 267.9 47.4 260.3 56.2C252.8 65 253.8 78.2 262.6 85.8C262.7 85.8 266.9 72.1 267 69.3Z" fill="white"/>
<path d="M285.6 113.2C285.5 115.2 284.8 117.1 283.4 118.7C280.1 122.6 274.2 123.1 270.3 119.7C266.4 116.4 253.9 121.1 262.7 128.6C271.5 136.1 284.7 135.1 292.3 126.3C299.9 117.5 298.8 104.3 290 96.7C289.9 96.7 285.7 110.4 285.6 113.2Z" fill="white"/>
<path d="M285.608 69.2426V113.243H297.308V69.2426H285.608Z" fill="white"/>
<path d="M289.9 85.8C298.7 78.3 299.8 65 292.2 56.2C284.6 47.4 271.4 46.3 262.6 53.9C253.8 61.4 266.3 66.1 270.2 62.8C274.1 59.5 280 59.9 283.3 63.8C284.7 65.4 285.4 67.3 285.5 69.3C285.7 72.1 289.9 85.8 289.9 85.8Z" fill="white"/>
<path d="M91.4398 133.598L91.4398 48.9982H79.7398L79.7398 133.598H91.4398Z" fill="white"/>
<path d="M60.6865 133.573L60.6865 48.9728H48.9865L48.9865 133.573H60.6865Z" fill="white"/>
<path d="M211.895 97.1184H240.495V85.4184H211.895V97.1184Z" fill="white"/>
<path d="M67.8064 60.5699L103.406 60.5699V48.8699H67.8064V60.5699Z" fill="white"/>
<path d="M117.4 96.7C108.6 104.2 107.5 117.5 115.1 126.3C122.6 135.1 135.9 136.2 144.7 128.6C153.5 121.1 141 116.4 137.1 119.7C133.2 123 127.3 122.6 124 118.7C122.6 117.1 121.9 115.2 121.8 113.2C121.6 110.4 117.4 96.7 117.4 96.7Z" fill="white"/>
<path d="M110.052 69.1871V113.187H121.752V69.1871H110.052Z" fill="white"/>
<path d="M121.7 69.3C121.8 67.3 122.5 65.4 123.9 63.8C127.2 59.9 133.1 59.4 137 62.8C140.9 66.1 153.4 61.4 144.6 53.9C135.8 46.4 122.6 47.4 115 56.2C107.5 65 108.5 78.2 117.3 85.8C117.4 85.8 121.6 72.1 121.7 69.3Z" fill="white"/>
<path d="M140.3 113.2C140.2 115.2 139.5 117.1 138.1 118.7C134.8 122.6 128.9 123.1 125 119.7C121.1 116.4 108.6 121.1 117.4 128.6C126.2 136.1 139.4 135.1 147 126.3C154.5 117.5 153.5 104.3 144.7 96.7C144.6 96.7 140.4 110.4 140.3 113.2Z" fill="white"/>
<path d="M140.295 69.2299V113.23H151.995V69.2299H140.295Z" fill="white"/>
<path d="M144.6 85.8C153.4 78.3 154.5 65 146.9 56.2C139.4 47.4 126.1 46.3 117.3 53.9C108.5 61.4 121 66.1 124.9 62.8C128.8 59.5 134.7 59.9 138 63.8C139.4 65.4 140.1 67.3 140.2 69.3C140.4 72.1 144.6 85.8 144.6 85.8Z" fill="white"/>
<path d="M304.401 48.9094V130.609H316.101V48.9094H304.401Z" fill="white"/>
<path d="M188.3 141.3L159.7 49.4L170.7 45.9L199.4 137.8L188.3 141.3Z" fill="white"/>
<path d="M361.92 133.664V89.8645H350.22V133.664H361.92Z" fill="white"/>
<path d="M368.9 48.9L356.3 75.9L343.7 48.9H330.8L352.1 94.5L356.3 92.5L360.5 94.5L381.8 48.9H368.9Z" fill="white"/>
<path d="M343.1 122H304.4V133.7H343.1V122Z" fill="white"/>
<path d="M35.8 97.9L33.7 95.8L14.4 76.5C10.8 72.9 10.8 67 14.4 63.4C18 59.8 23.9 59.8 27.5 63.4C31.1 67 31.1 72.9 27.5 76.5L35.7 84.7C43.9 76.5 43.9 63.3 35.7 55.1C27.5 46.9 14.3 46.9 6.10002 55.1C-1.99998 63.3 -1.99998 76.6 6.10002 84.8L8.20002 86.9L27.5 106.2C31.1 109.8 31.1 115.7 27.5 119.3C23.9 122.9 18 122.9 14.4 119.3C10.8 115.7 10.8 109.8 14.4 106.2L6.20002 98C-1.99998 106.2 -1.99998 119.4 6.20002 127.6C14.4 135.8 27.6 135.8 35.8 127.6C43.9 119.3 43.9 106.1 35.8 97.9Z" fill="white"/>
<path d="M170.7 45.9L159.1 49V133.6L170.7 136.7V45.9Z" fill="white"/>
<path d="M200 144.4V38.3L188.3 41.3V141.3L200 144.4Z" fill="white"/>
<path d="M218.7 41.3L207.1 38.3V144.4L218.7 141.3V41.3Z" fill="white"/>
<path d="M248.2 133.7V49L236.5 45.9V136.7L248.2 133.7Z" fill="white"/>
<path d="M236.5 30.6C238.2 28.4 239.6 25 240.4 22L244.4 23.4C243.5 26.6 242.2 30.3 240.5 32.8L236.5 30.6ZM251.9 19.4H240.3V1.70001H266.9V19.3H252.9C255.4 20.6 258.3 22.5 259.8 24L256.6 27C255.2 25.4 252 23.1 249.4 21.7L251.9 19.4ZM244.4 8.70001H251.4V5.60001H244.4V8.70001ZM244.4 15.5H251.4V12.2H244.4V15.5ZM257.5 30.2C259 30.2 259.3 29.6 259.5 26C260.4 26.7 262.3 27.4 263.5 27.6C263 32.9 261.7 34.2 257.9 34.2H251.7C246.8 34.2 245.6 32.9 245.6 29V22.9H250.1V29C250.1 30.1 250.4 30.3 252.3 30.3H257.5V30.2ZM262.5 5.60001H255.7V8.70001H262.5V5.60001ZM262.5 12.3H255.7V15.6H262.5V12.3ZM266 21.7C268.1 24.5 270.2 28.1 270.9 30.7L266.6 32.5C266 30 264.1 26.2 262.1 23.3L266 21.7Z" fill="white"/>
<path d="M305.6 14.2C306.8 15.4 308.3 16.5 310 17.1C309.1 17.8 308 19.2 307.4 20.2C306 19.5 304.8 18.6 303.7 17.6C303.4 19.2 303 20.9 302.7 22.3H307.6C307.6 22.3 307.6 23.3 307.5 23.8C307 29.9 306.5 32.5 305.5 33.5C304.8 34.3 303.9 34.6 302.9 34.7C301.9 34.8 300.4 34.8 298.6 34.7C298.5 33.6 298.2 32.2 297.6 31.3C299 31.4 300.5 31.5 301.1 31.5C301.7 31.5 302 31.4 302.3 31.1C302.8 30.6 303.2 29 303.6 25.5H289.7C290.1 24 290.6 21.9 290.9 20.1L294.7 20.4L294.3 22.3H298.8C299 21.4 299.2 20.5 299.4 19.5H290.6V18.8C289.8 19.4 289 20 288.1 20.5C287.8 19.9 287 18.9 286.2 18.2V30.6C286.2 32.3 285.9 33.4 284.9 34C283.9 34.7 282.6 34.7 280.5 34.7C280.4 33.7 279.9 32 279.5 31C280.6 31.1 281.8 31.1 282.1 31C282.5 31 282.6 30.9 282.6 30.5V22.7H279.3C279 27 278.4 31.5 277.3 34.8C276.6 34.2 275 33.4 274.1 33C275.8 27.9 276 20.4 276 15V1.49998H286.3V16.9C287.6 16.1 288.8 15.2 289.8 14.2H286.8V10.8H292.3C292.7 10.1 293.1 9.39998 293.4 8.59998H287.8V5.29998H289.9C289.7 4.09998 289.2 2.49998 288.5 1.29998L291.8 0.299976C292.5 1.59998 293.2 3.39998 293.5 4.59998L291.2 5.29998H294.6C295 3.69998 295.3 1.99998 295.6 0.0999756L299.5 0.499976C299.2 2.19998 299 3.79998 298.6 5.29998H302.9L301.2 4.79998C301.8 3.49998 302.5 1.69998 302.8 0.399976L306.8 1.49998C306.1 2.89998 305.4 4.19998 304.8 5.29998H308.2V8.59998H297.6C297.3 9.29998 297 9.99998 296.7 10.8H309.2V14.2H305.6V14.2ZM282.7 18.5V13.9H279.6V14.9C279.6 16 279.6 17.2 279.6 18.5H282.7ZM279.6 5.49998V9.99998H282.7V5.49998H279.6ZM301.4 29.9H288V27H301.4V29.9ZM302.7 16.4C302.1 15.7 301.6 15 301.1 14.2H294.8C294.3 15 293.7 15.7 293.1 16.4H302.7Z" fill="white"/>
<path d="M333.9 2C333.5 2.6 333.1 3.1 332.7 3.6C337.5 8 342.4 10.5 347.4 12.4C346.2 13.4 344.9 15.1 344.4 16.4C342.6 15.5 340.8 14.7 339 13.7V16.1H320.4V14.3C318.8 15.3 317.1 16.2 315.4 17C314.7 15.7 313.4 14.1 312.2 13C319 10.3 326.1 5.8 330 0L333.9 2ZM318 19.4H342V34.7H337.3V33.2H322.6V34.8H318V19.4ZM322.6 23.3V29.2H337.3V23.3H322.6V23.3ZM336.5 12.1C334.4 10.7 332.2 8.9 330 6.8C328.1 8.8 326.1 10.5 323.9 12.1H336.5Z" fill="white"/>
<path d="M381.8 7.89999C381.8 7.89999 381.8 9.39999 381.7 9.99999C381 24.8 380.2 30.4 378.6 32.3C377.5 33.7 376.4 34.2 374.8 34.4C373.4 34.6 371.1 34.6 368.9 34.5C368.8 33.2 368.2 31.2 367.4 29.9C369.7 30.1 371.9 30.1 372.9 30.1C373.7 30.1 374.1 30 374.6 29.5C375.7 28.3 376.5 23.5 377.1 12.4H366.7C366.1 20.1 363.5 29.1 353.1 35C352.4 33.9 350.7 32.2 349.6 31.4C358.8 26.4 361.3 18.9 361.9 12.4H350.7V7.89999H362V0.299988H366.7V7.99999H381.8V7.89999Z" fill="white"/>
</svg>
