<svg width="72" height="72" viewBox="0 0 72 72" fill="none" xmlns="http://www.w3.org/2000/svg">
<rect width="72" height="72" rx="4" fill="#74B12C"/>
<g clip-path="url(#clip0)">
<path d="M46.5115 36.7556C45.2214 37.8583 45.0602 39.8138 46.1743 41.1076C47.2738 42.4015 49.2235 42.5632 50.5136 41.4458C51.8036 40.3431 49.9711 39.652 49.3994 40.1372C48.8277 40.6224 47.9628 40.5636 47.479 39.9902C47.2738 39.755 47.1712 39.4756 47.1565 39.1816C47.1272 38.7699 46.5115 36.7556 46.5115 36.7556Z" fill="white"/>
<path d="M45.4297 32.7032V39.1724H47.1449V32.7032H45.4297Z" fill="white"/>
<path d="M47.1417 32.727C47.1564 32.433 47.259 32.1536 47.4642 31.9184C47.948 31.345 48.8129 31.2715 49.3846 31.7714C49.9564 32.2565 51.7888 31.5655 50.4988 30.4628C49.2087 29.3601 47.2736 29.5071 46.1595 30.801C45.06 32.0948 45.2066 34.0356 46.4967 35.153C46.5113 35.153 47.127 33.1387 47.1417 32.727Z" fill="white"/>
<path d="M49.8682 39.1816C49.8535 39.4756 49.7509 39.755 49.5457 39.9902C49.0619 40.5636 48.197 40.6371 47.6252 40.1372C47.0535 39.652 45.2211 40.3431 46.5111 41.4458C47.8012 42.5485 49.7362 42.4015 50.8504 41.1076C51.9645 39.8138 51.8032 37.873 50.5132 36.7556C50.4985 36.7556 49.8828 38.7699 49.8682 39.1816Z" fill="white"/>
<path d="M49.8633 32.7096V39.1788H51.5785V32.7096H49.8633Z" fill="white"/>
<path d="M50.4986 35.153C51.7886 34.0503 51.9499 32.0949 50.8357 30.801C49.7216 29.5072 47.7865 29.3454 46.4965 30.4629C45.2064 31.5656 47.0389 32.2566 47.6106 31.7714C48.1823 31.2862 49.0472 31.345 49.531 31.9184C49.7362 32.1537 49.8389 32.433 49.8535 32.7271C49.8828 33.1387 50.4986 35.153 50.4986 35.153Z" fill="white"/>
<path d="M21.4105 42.1715V29.733H19.6953V42.1715H21.4105Z" fill="white"/>
<path d="M16.9017 42.1679V29.7294H15.1865V42.1679H16.9017Z" fill="white"/>
<path d="M39.0635 36.8136H43.2562V35.0934H39.0635V36.8136Z" fill="white"/>
<path d="M17.9404 31.4401H23.1592V29.7198H17.9404V31.4401Z" fill="white"/>
<path d="M25.2107 36.7556C23.9206 37.8583 23.7594 39.8138 24.8735 41.1076C25.973 42.4015 27.9227 42.5632 29.2128 41.4458C30.5028 40.3431 28.6704 39.652 28.0986 40.1372C27.5269 40.6224 26.662 40.5636 26.1782 39.9902C25.973 39.755 25.8704 39.4756 25.8557 39.1816C25.8264 38.7699 25.2107 36.7556 25.2107 36.7556Z" fill="white"/>
<path d="M24.1279 32.7014V39.1706H25.8431V32.7014H24.1279Z" fill="white"/>
<path d="M25.8409 32.727C25.8556 32.433 25.9582 32.1536 26.1634 31.9184C26.6472 31.345 27.5121 31.2715 28.0839 31.7714C28.6556 32.2565 30.488 31.5655 29.198 30.4628C27.9079 29.3601 25.9729 29.5071 24.8587 30.801C23.7592 32.0948 23.9058 34.0356 25.1959 35.153C25.2106 35.153 25.8263 33.1387 25.8409 32.727Z" fill="white"/>
<path d="M28.5674 39.1816C28.5527 39.4756 28.4501 39.755 28.2449 39.9902C27.7611 40.5636 26.8962 40.6371 26.3245 40.1372C25.7527 39.652 23.9203 40.3431 25.2103 41.4458C26.5004 42.5485 28.4355 42.4015 29.5496 41.1076C30.6491 39.8138 30.5025 37.873 29.2124 36.7556C29.1978 36.7556 28.5821 38.7699 28.5674 39.1816Z" fill="white"/>
<path d="M28.5615 32.7076V39.1768H30.2767V32.7076H28.5615Z" fill="white"/>
<path d="M29.1978 35.153C30.4878 34.0503 30.6491 32.0949 29.5349 30.801C28.4355 29.5072 26.4857 29.3454 25.1957 30.4629C23.9056 31.5656 25.7381 32.2566 26.3098 31.7714C26.8815 31.2862 27.7465 31.345 28.2302 31.9184C28.4355 32.1537 28.5381 32.433 28.5527 32.7271C28.5821 33.1387 29.1978 35.153 29.1978 35.153Z" fill="white"/>
<path d="M52.6191 29.72V41.7321H54.3343V29.72H52.6191Z" fill="white"/>
<path d="M35.6038 43.313L31.4111 29.7866L33.0237 29.272L37.231 42.7838L35.6038 43.313Z" fill="white"/>
<path d="M61.0472 42.1812V35.7415H59.332V42.1812H61.0472Z" fill="white"/>
<path d="M62.0795 29.713L60.2324 33.6827L58.3852 29.713H56.4941L59.6167 36.4174L60.2324 36.1234L60.8481 36.4174L63.9706 29.713H62.0795Z" fill="white"/>
<path d="M58.2973 40.4607H52.624V42.1809H58.2973V40.4607Z" fill="white"/>
<path d="M13.2484 36.9174L12.9406 36.6086L10.1112 33.7857C9.58349 33.2564 9.58349 32.3889 10.1112 31.8596C10.639 31.3304 11.5039 31.3304 12.0317 31.8596C12.5594 32.3889 12.5594 33.2564 12.0317 33.7857L13.2338 34.9913C14.4358 33.7857 14.4358 31.8449 13.2338 30.6393C12.0317 29.4337 10.0966 29.4337 8.89448 30.6393C7.70705 31.8449 7.70705 33.7857 8.89448 34.9913L9.20234 35.3001L12.0317 38.1377C12.5594 38.667 12.5594 39.5345 12.0317 40.0638C11.5039 40.5931 10.639 40.5931 10.1112 40.0638C9.58349 39.5345 9.58349 38.667 10.1112 38.1377L8.90914 36.9321C7.70705 38.123 7.70705 40.0785 8.89448 41.2841C10.0966 42.4897 12.0317 42.4897 13.2338 41.2841C14.4358 40.0785 14.4358 38.123 13.2484 36.9174Z" fill="white"/>
<path d="M33.0238 29.272L31.3232 29.7278V42.1809L33.0238 42.622V29.272Z" fill="white"/>
<path d="M37.3197 43.7541V28.1545L35.6045 28.5956V43.313L37.3197 43.7541Z" fill="white"/>
<path d="M40.0609 28.5956L38.3604 28.1545V43.7541L40.0609 43.313V28.5956Z" fill="white"/>
<path d="M44.3851 42.1809V29.7277L42.6699 29.2866V42.622L44.3851 42.1809Z" fill="white"/>
</g>
<defs>
<clipPath id="clip0">
<rect width="56" height="15.7319" fill="white" transform="translate(8 28.1545)"/>
</clipPath>
</defs>
</svg>
