<svg width="280" height="237" viewBox="0 0 280 237" fill="none" xmlns="http://www.w3.org/2000/svg">
<g clip-path="url(#clip0_9629_65326)">
<path d="M0 236.111V191.674H8.20234V211.684C9.63662 209.791 12.55 206.231 16.9874 201.048C21.3799 195.865 24.0243 192.71 24.8759 191.674H34.5574L17.839 211.684L35.5883 236.111H25.9965L11.5639 216.191L8.20234 219.03V236.111H0Z" fill="white"/>
<path d="M63.2879 233.497C60.6434 235.66 57.1921 236.742 52.8893 236.742C48.5864 236.742 45.1352 235.66 42.4907 233.497C39.8462 231.333 38.5464 228.179 38.5464 223.987V202.805H46.4798V223.717C46.4798 226.196 47.0177 227.998 48.0485 229.125C49.0794 230.252 50.7378 230.793 52.9789 230.793C55.1752 230.793 56.7887 230.252 57.8196 229.125C58.8505 228.044 59.3436 226.241 59.3436 223.717V202.805H67.2322V223.987C67.2322 228.134 65.9323 231.333 63.2879 233.497Z" fill="white"/>
<path d="M92.198 236.742C89.957 236.742 87.8952 236.246 86.0575 235.254C84.2198 234.263 82.8752 233.136 82.0684 231.829L81.3064 236.066H74.4487V190.502L82.3373 190.006V200.327C82.3373 202.31 82.2925 204.608 82.158 207.132C84.7577 203.707 88.1641 201.994 92.3773 201.994C96.5906 201.994 99.9074 203.572 102.328 206.726C104.748 209.881 105.913 214.027 105.913 219.12C105.913 224.438 104.658 228.674 102.193 231.919C99.7281 235.119 96.4113 236.742 92.198 236.742ZM90.3155 230.702C92.6463 230.702 94.5288 229.711 95.9631 227.683C97.3525 225.7 98.0697 222.861 98.0697 219.165C98.0697 215.47 97.3973 212.675 96.0079 210.782C94.6184 208.89 92.7807 207.943 90.4052 207.943C85.0714 207.943 82.3373 211.594 82.2925 218.85C82.2925 222.951 82.9648 225.925 84.3095 227.863C85.6541 229.756 87.6711 230.702 90.3155 230.702Z" fill="white"/>
<path d="M127.697 236.742C122.363 236.742 118.239 235.209 115.236 232.1C112.278 229.035 110.799 224.754 110.799 219.3C110.799 213.982 112.188 209.791 115.012 206.636C117.791 203.482 121.601 201.904 126.442 201.904C131.013 201.904 134.554 203.346 137.064 206.231C139.574 209.115 140.829 212.901 140.829 217.678C140.829 218.038 140.829 218.579 140.829 219.345C140.829 220.112 140.829 220.697 140.829 221.058H118.777C118.867 224.168 119.718 226.601 121.332 228.314C122.945 230.026 125.187 230.883 128.01 230.883C131.641 230.883 135.092 229.936 138.454 228.043L139.574 233.677C136.257 235.705 132.313 236.742 127.697 236.742ZM118.956 216.055H133.434C133.434 213.351 132.806 211.278 131.596 209.791C130.386 208.349 128.683 207.628 126.486 207.628C124.469 207.628 122.721 208.349 121.332 209.746C119.942 211.188 119.136 213.261 118.956 216.055Z" fill="white"/>
<path d="M167.767 236.742C161.044 236.742 155.755 234.714 151.99 230.612C148.18 226.511 146.297 220.923 146.297 213.847C146.297 209.34 147.194 205.374 148.942 201.949C150.69 198.524 153.334 195.865 156.741 193.927C160.192 191.989 164.226 191.043 168.932 191.043C174.311 191.043 178.927 192.215 182.737 194.513L180.093 200.642C176.417 198.659 172.742 197.668 169.067 197.668C164.585 197.668 161.088 199.11 158.534 202.039C155.979 204.969 154.724 208.935 154.724 213.937C154.724 218.895 155.844 222.861 158.13 225.745C160.416 228.629 163.733 230.072 168.125 230.072C170.949 230.072 173.504 229.621 175.79 228.719V218.399H166.512L166.557 211.954H183.454V233.407C180.72 234.533 178.121 235.39 175.7 235.93C173.28 236.471 170.635 236.742 167.767 236.742Z" fill="white"/>
<path d="M206.851 236.742C201.518 236.742 197.394 235.209 194.391 232.1C191.433 229.035 189.954 224.754 189.954 219.3C189.954 213.982 191.343 209.791 194.167 206.636C196.946 203.482 200.756 201.904 205.596 201.904C210.168 201.904 213.709 203.346 216.219 206.231C218.729 209.115 219.984 212.901 219.984 217.678C219.984 218.038 219.984 218.579 219.984 219.345C219.984 220.112 219.984 220.697 219.984 221.058H197.932C198.022 224.168 198.873 226.601 200.487 228.314C202.1 230.026 204.341 230.883 207.165 230.883C210.796 230.883 214.247 229.936 217.609 228.043L218.729 233.677C215.367 235.705 211.423 236.742 206.851 236.742ZM198.066 216.055H212.544C212.544 213.351 211.916 211.278 210.706 209.791C209.496 208.349 207.793 207.628 205.596 207.628C203.579 207.628 201.831 208.349 200.442 209.746C199.052 211.188 198.246 213.261 198.066 216.055Z" fill="white"/>
<path d="M235.044 236.742C231.951 236.742 229.486 235.885 227.559 234.173C225.676 232.46 224.69 229.981 224.69 226.782C224.69 223.311 225.81 220.742 228.052 219.075C230.293 217.407 233.699 216.371 238.226 215.92C238.854 215.83 239.526 215.74 240.243 215.695C240.96 215.605 241.767 215.515 242.708 215.47C243.605 215.379 244.322 215.334 244.86 215.244V213.487C244.86 211.459 244.411 209.971 243.47 209.07C242.529 208.169 241.139 207.673 239.257 207.673C236.568 207.673 233.251 208.439 229.262 209.926C229.262 209.881 228.903 208.935 228.276 207.177C227.648 205.419 227.29 204.473 227.29 204.428C231.189 202.76 235.402 201.904 239.974 201.904C244.456 201.904 247.683 202.896 249.7 204.834C251.717 206.771 252.748 209.926 252.748 214.298V236.066H246.877C246.877 235.975 246.653 235.299 246.204 234.037C245.801 232.776 245.577 232.1 245.577 232.009C243.918 233.632 242.305 234.804 240.736 235.57C239.167 236.336 237.285 236.742 235.044 236.742ZM237.195 231.108C239.033 231.108 240.602 230.657 241.991 229.801C243.336 228.9 244.322 227.863 244.904 226.601V220.157C244.86 220.157 244.322 220.202 243.336 220.292C242.35 220.382 241.812 220.427 241.722 220.427C238.54 220.697 236.164 221.328 234.685 222.23C233.206 223.176 232.444 224.663 232.444 226.737C232.444 228.134 232.847 229.26 233.699 229.981C234.461 230.748 235.671 231.108 237.195 231.108Z" fill="white"/>
<path d="M260.771 236.111V202.76H267.405L268.436 207.853C270.587 204.338 273.77 202.625 277.893 202.625C278.745 202.625 279.462 202.67 280 202.76L279.865 209.385C279.059 209.25 278.207 209.205 277.355 209.205C274.442 209.205 272.246 209.971 270.811 211.549C269.377 213.126 268.66 215.289 268.66 218.038V236.111H260.771Z" fill="white"/>
<path d="M165.619 165.136C163.671 165.136 161.9 164.115 160.926 162.429L149.637 142.902C146.449 143.435 143.262 143.656 140.03 143.656C136.754 143.656 133.522 143.39 130.29 142.858L119.311 162.34C118.337 164.027 116.521 165.092 114.573 165.092C113.777 165.092 113.024 164.914 112.316 164.604L95.6251 157.015C93.0573 155.816 91.8177 152.932 92.7474 150.225L100.406 128.656C95.6694 124.485 91.6849 119.647 88.4973 114.233L65.7415 117.694C65.4759 117.739 65.2103 117.739 64.9446 117.739C62.4211 117.739 60.2518 116.008 59.6763 113.567L55.3819 95.6823C54.7178 92.9307 56.2673 90.1348 58.9237 89.2472L80.2184 82.1021C80.3955 75.1346 81.768 68.3001 84.2915 61.8207L68.9734 46.5098C66.9811 44.5127 66.8041 41.3174 68.6635 39.1428L80.4398 25.0745C81.4581 23.8319 83.0076 23.1218 84.6014 23.1218C85.7082 23.1218 86.815 23.4768 87.7004 24.0981L104.125 35.6368C110.058 31.1545 116.654 27.9148 123.738 25.8733L125.42 6.4351C125.686 3.59482 127.988 1.4646 130.821 1.4646H149.194C152.028 1.4646 154.374 3.59482 154.595 6.4351L156.278 25.8733C163.405 27.8704 169.958 31.1545 175.89 35.5924L192.492 24.0981C193.422 23.4768 194.484 23.1218 195.591 23.1218C197.229 23.1218 198.734 23.8319 199.797 25.1189L211.485 39.2759C213.3 41.4505 213.123 44.6458 211.086 46.6429L195.724 61.7763C198.159 68.0338 199.531 74.6464 199.797 81.4364L221.136 88.5372C223.837 89.4247 225.386 92.2207 224.722 94.9722L220.472 112.857C219.896 115.298 217.727 117.029 215.204 117.029C214.938 117.029 214.672 117.029 214.407 116.984L191.872 113.612C188.596 119.292 184.435 124.351 179.52 128.701L187.312 149.958C188.286 152.621 187.091 155.55 184.523 156.748L167.921 164.559C167.213 164.959 166.416 165.136 165.619 165.136Z" fill="#03439A"/>
<path d="M149.194 3.10657C151.186 3.10657 152.868 4.65985 153.045 6.65693L154.816 27.1603C162.564 29.2017 169.692 32.7965 175.846 37.5894L193.377 25.4295C194.041 24.9857 194.838 24.7194 195.591 24.7194C196.698 24.7194 197.804 25.2076 198.601 26.1395L210.289 40.2966C211.573 41.8499 211.44 44.1132 210.023 45.5334L193.908 61.4656C196.609 67.9894 198.114 75.1345 198.291 82.6346L220.693 90.0904C222.597 90.7117 223.703 92.7088 223.261 94.7059L219.011 112.591C218.568 114.366 217.018 115.564 215.248 115.564C215.07 115.564 214.849 115.564 214.672 115.52L191.119 111.969C187.666 118.183 183.15 123.73 177.793 128.257L185.984 150.535C186.692 152.444 185.807 154.529 183.992 155.417L167.39 163.228C166.858 163.494 166.283 163.583 165.752 163.583C164.423 163.583 163.095 162.873 162.387 161.63L150.566 141.171C147.202 141.793 143.704 142.103 140.162 142.103C136.576 142.103 133.035 141.793 129.626 141.127L118.115 161.586C117.407 162.828 116.078 163.583 114.75 163.583C114.219 163.583 113.643 163.45 113.156 163.228L96.4659 155.595C94.6508 154.751 93.7653 152.665 94.4294 150.757L102.443 128.168C97.2628 123.774 92.8799 118.449 89.5152 112.502L65.7412 116.097C65.5641 116.141 65.3427 116.141 65.1657 116.141C63.3948 116.141 61.801 114.943 61.4025 113.168L57.1082 95.2828C56.6212 93.3301 57.728 91.333 59.6317 90.6673L81.9447 83.2116C81.989 75.5339 83.5385 68.1669 86.2834 61.4656L70.2569 45.4002C68.8402 43.9801 68.7517 41.6724 70.0356 40.1634L81.8119 26.0951C82.5645 25.1632 83.6713 24.7194 84.7781 24.7194C85.5308 24.7194 86.3276 24.9413 86.9917 25.4295L104.346 37.6338C110.5 32.8408 117.628 29.2017 125.376 27.1603L127.146 6.65693C127.323 4.65985 129.006 3.10657 130.998 3.10657H149.194ZM149.194 0H130.865C127.235 0 124.224 2.75153 123.915 6.39065L122.321 24.7638C115.768 26.7165 109.659 29.7786 104.125 33.7728L88.6298 22.8554C87.4344 22.0122 86.062 21.5684 84.601 21.5684C82.5203 21.5684 80.5723 22.5004 79.2441 24.0537L67.4678 38.122C65.1214 40.9179 65.2985 45.0008 67.8662 47.5748L82.476 62.1757C80.2624 68.1669 78.9785 74.4688 78.7129 80.9038L58.4363 87.7827C54.9831 88.9365 52.9909 92.4869 53.8763 96.0372L58.1707 113.922C58.9233 117.073 61.7124 119.292 64.9443 119.292C65.2985 119.292 65.6527 119.248 66.0068 119.203L87.7443 115.919C90.7548 120.801 94.3851 125.239 98.6353 129.1L91.3304 149.692C90.0908 153.154 91.6846 156.882 95.005 158.39L111.695 166.024C112.625 166.423 113.599 166.645 114.573 166.645C117.097 166.645 119.399 165.269 120.638 163.095L131.087 144.544C134.053 144.988 137.019 145.21 139.985 145.21C142.951 145.21 145.873 144.988 148.795 144.588L159.553 163.228C160.793 165.358 163.095 166.734 165.574 166.734C166.593 166.734 167.611 166.512 168.541 166.068L185.143 158.257C188.463 156.704 189.968 152.932 188.729 149.515L181.291 129.233C185.718 125.195 189.526 120.535 192.625 115.387L214.096 118.626C214.451 118.671 214.805 118.715 215.115 118.715C218.347 118.715 221.136 116.496 221.888 113.345L226.138 95.4603C226.98 91.91 225.032 88.3596 221.534 87.2057L201.213 80.4157C200.903 74.2025 199.62 68.1225 197.45 62.3088L212.06 47.8855C214.672 45.3115 214.893 41.2729 212.547 38.4326L200.859 24.2756C199.531 22.6779 197.583 21.746 195.458 21.746C194.041 21.746 192.669 22.1898 191.474 22.9886L175.757 33.8616C170.223 29.823 164.113 26.8052 157.561 24.8525L155.967 6.47941C155.835 2.75153 152.824 0 149.194 0Z" fill="white"/>
<path d="M162.653 80.5933L198.07 74.5133C197.627 71.5842 196.963 68.7439 196.078 65.9924L161.369 75.9334L151.85 63.951L169.338 32.5747C166.858 31.1545 164.246 29.8675 161.546 28.8024L147.512 62.0426H132.061L118.159 28.9799C115.459 30.045 112.891 31.332 110.412 32.7966L127.899 64.3948L118.602 76.1109L83.8928 66.1256C83.0516 68.8771 82.3875 71.673 81.9448 74.5577L117.407 80.682L120.816 95.6823L91.3305 116.718C92.9685 119.115 94.7837 121.378 96.7316 123.553L123.738 99.4546L137.329 106.023L135.337 142.414C136.886 142.547 138.436 142.591 139.985 142.591C141.358 142.591 142.686 142.547 144.058 142.458L142.11 106.333L156.1 99.5877L183.062 123.775C185.054 121.644 186.869 119.337 188.507 116.94L159.155 95.8598L162.653 80.5933Z" fill="white"/>
</g>
<defs>
<clipPath id="clip0_9629_65326">
<rect width="280" height="236.742" fill="white"/>
</clipPath>
</defs>
</svg>
