<svg width="24" height="24" viewBox="0 0 24 24" fill="none" xmlns="http://www.w3.org/2000/svg">
<path fill-rule="evenodd" clip-rule="evenodd" d="M20.3942 11.5313L23.6234 12.6129C23.8979 12.7031 24.0574 12.9928 23.9808 13.2825L23.3682 15.8772C23.3043 16.1605 23.0299 16.3472 22.7427 16.3021L19.3475 15.7871C18.8561 16.6885 18.1988 17.4868 17.4265 18.15L18.6008 21.3821C18.7029 21.6589 18.5753 21.968 18.3136 22.0903L15.9204 23.2235C15.6587 23.3522 15.346 23.2492 15.1992 22.9981L13.4952 20.03C13.0102 20.1201 12.506 20.1652 11.9955 20.1652C11.4785 20.1652 10.968 20.1137 10.4766 20.0236L8.81726 22.9917C8.67048 23.2492 8.35776 23.3522 8.0961 23.2299L5.69009 22.1225C5.42843 22.0002 5.30079 21.6976 5.39652 21.4207L6.55166 18.1435C6.28902 17.9171 6.04059 17.6755 5.80776 17.4199L9.65962 13.9585L11.5997 14.905L11.3189 20.133C11.5359 20.1523 11.7593 20.1588 11.9827 20.1588C12.1805 20.1588 12.372 20.1523 12.5634 20.1395L12.2826 14.9436L14.2802 13.9714L18.1349 17.4546C18.4157 17.1456 18.6773 16.8172 18.9135 16.4695L14.7205 13.4435L15.2311 11.2415L20.292 10.3659C20.2568 10.1354 20.212 9.90877 20.1585 9.68499C20.3019 10.278 20.383 10.8947 20.3942 11.5313ZM20.0085 9.14336L20.0112 9.14258C20.0656 9.32189 20.115 9.5025 20.1585 9.68499C20.1144 9.50215 20.0643 9.32158 20.0085 9.14336ZM16.1801 4.3364C16.5242 4.53555 16.8532 4.75838 17.1649 5.00267L19.6921 3.23854C19.9283 3.07114 20.2537 3.11621 20.4388 3.34155L22.1173 5.40186C22.3024 5.6272 22.2832 5.95556 22.079 6.16159L19.7623 8.46012C19.8537 8.6837 19.9359 8.91153 20.0085 9.14336L15.0524 10.5719L13.6866 8.84642L16.1801 4.3364ZM15.0636 3.79588L15.0651 3.79223C15.4544 3.94676 15.8246 4.12703 16.182 4.33306L16.1801 4.3364C15.8234 4.12993 15.4504 3.94893 15.0636 3.79588ZM3.97401 9.16211C4.047 8.92544 4.12993 8.69337 4.22224 8.46656L1.91197 6.13584C1.70775 5.92981 1.69498 5.60145 1.88006 5.3761L3.57766 3.32868C3.76274 3.10977 4.08822 3.0647 4.32435 3.2321L6.82609 5.00267C7.71318 4.30088 8.74068 3.77937 9.87029 3.48964L10.1256 0.515076C10.1511 0.225346 10.3936 0 10.6808 0H13.3229C13.6101 0 13.8526 0.225346 13.8782 0.515076L14.1334 3.48964C14.4511 3.57388 14.7616 3.67636 15.0636 3.79588L13.0548 8.56956H10.8467L8.86825 3.81799C8.48533 3.97251 8.11518 4.15923 7.75779 4.36526L10.2595 8.90436L8.92569 10.5912L3.97401 9.16211ZM3.69483 10.3792L3.69247 10.3788C3.75629 9.96027 3.85202 9.55464 3.97328 9.1619L3.97401 9.16211C3.85252 9.55605 3.75859 9.96275 3.69483 10.3792ZM3.69483 10.3792L8.75976 11.2608L9.24479 13.4177L5.03844 16.4396C4.91445 16.2551 4.79755 16.0654 4.68813 15.8708L1.26101 16.3923C0.973818 16.4374 0.705776 16.2506 0.635574 15.9673L0.016523 13.3727C-0.0536788 13.0829 0.105871 12.7932 0.380295 12.7031L3.59681 11.6214C3.59922 11.1999 3.6327 10.7849 3.69483 10.3792ZM5.03844 16.4396C5.27075 16.7853 5.528 17.1127 5.80776 17.4199L5.80491 17.4224C5.5241 17.1198 5.26244 16.7915 5.03269 16.4438L5.03844 16.4396Z" fill="white"/>
</svg>
