<svg width="126" height="30" viewBox="0 0 126 30" fill="none" xmlns="http://www.w3.org/2000/svg">
<g clip-path="url(#clip0_9629_50903)">
<path d="M38.9624 21.491V7.75629H41.5132V13.9524C41.9573 13.3638 42.866 12.2691 44.2292 10.6581C45.5924 9.04714 46.4702 8.07642 46.6871 7.75629H49.6922L44.5287 13.9524L50.0537 21.5116H47.0382L42.5562 15.3155L41.5235 16.2036V21.4806L38.9624 21.491Z" fill="white"/>
<path d="M58.6357 20.6546C57.7101 21.3699 56.5617 21.7356 55.393 21.6873C54.2305 21.736 53.0885 21.37 52.1709 20.6546C51.7533 20.2917 51.4252 19.8373 51.212 19.3268C50.9989 18.8163 50.9065 18.2635 50.942 17.7114V11.1849H53.4102V17.6495C53.3527 18.2454 53.5265 18.8406 53.8955 19.3121C54.3321 19.6438 54.8653 19.8233 55.4136 19.8233C55.9619 19.8233 56.4951 19.6438 56.9317 19.3121C57.2895 18.8314 57.4585 18.2361 57.4067 17.6391V11.1849H59.8956V17.7424C59.9233 18.292 59.824 18.8405 59.6055 19.3455C59.387 19.8506 59.0552 20.2985 58.6357 20.6546Z" fill="white"/>
<path d="M67.6197 21.6872C66.954 21.6952 66.2969 21.5353 65.7092 21.2225C65.2185 20.9838 64.7932 20.6294 64.47 20.1898L64.2324 21.4807H62.0947V7.38458L64.5526 7.22968V10.4207C64.5526 11.0403 64.5526 11.7425 64.5526 12.486C64.9135 11.9823 65.3918 11.5742 65.9461 11.2971C66.5003 11.02 67.1138 10.8822 67.7333 10.8957C68.3291 10.8689 68.9225 10.9875 69.4622 11.2412C70.0019 11.4948 70.4719 11.876 70.8314 12.3518C71.6155 13.4709 72.0077 14.8179 71.9468 16.183C72.0156 17.5938 71.6082 18.9868 70.7901 20.1382C70.4307 20.6381 69.953 21.0412 69.3998 21.3115C68.8466 21.5818 68.235 21.7109 67.6197 21.6872ZM67.0311 19.8181C67.3782 19.8232 67.7211 19.7407 68.028 19.5783C68.3348 19.4158 68.5958 19.1786 68.7867 18.8887C69.2672 18.0978 69.4943 17.1789 69.4373 16.2553C69.501 15.3455 69.277 14.4388 68.797 13.6633C68.6033 13.3839 68.3435 13.1566 68.0409 13.0017C67.7382 12.8468 67.402 12.769 67.0621 12.7752C65.3994 12.7752 64.5526 13.9008 64.5422 16.1417C64.4689 17.1119 64.6845 18.0821 65.1619 18.93C65.3721 19.2249 65.6541 19.4612 65.9812 19.6166C66.3083 19.772 66.6697 19.8414 67.0311 19.8181Z" fill="white"/>
<path d="M78.6602 21.6872C77.9514 21.7287 77.2416 21.6235 76.5753 21.3783C75.909 21.1331 75.3003 20.7532 74.7875 20.2621C74.3084 19.7261 73.9395 19.1009 73.7021 18.4222C73.4646 17.7436 73.3632 17.0248 73.4037 16.307C73.3273 14.883 73.7963 13.4835 74.7152 12.3931C75.1639 11.9041 75.7149 11.5201 76.3289 11.2684C76.943 11.0168 77.605 10.9036 78.2677 10.937C78.8844 10.9005 79.5015 11.001 80.0746 11.2313C80.6478 11.4617 81.1628 11.8161 81.5827 12.2692C82.4007 13.2591 82.8204 14.5182 82.76 15.8009C82.76 15.9042 82.76 16.0798 82.76 16.3173V16.8439H75.8822C75.8565 17.6611 76.1406 18.4578 76.6774 19.0745C76.9477 19.3431 77.2709 19.5524 77.6264 19.6893C77.982 19.8262 78.3622 19.8876 78.7428 19.8697C79.8815 19.8632 80.999 19.5607 81.9855 18.9919L82.3366 20.7268C81.2261 21.3869 79.9516 21.7198 78.6602 21.6872ZM75.9338 15.2949H80.4261C80.4742 14.604 80.2726 13.9187 79.8581 13.3638C79.6643 13.137 79.4212 12.9577 79.1473 12.8395C78.8733 12.7214 78.576 12.6676 78.2781 12.6822C77.9802 12.6765 77.6843 12.7323 77.4089 12.846C77.1335 12.9597 76.8845 13.1289 76.6774 13.3432C76.2009 13.882 75.9366 14.5757 75.9338 15.2949Z" fill="white"/>
<path d="M91.114 21.6872C90.2075 21.7387 89.3004 21.5969 88.4529 21.2711C87.6054 20.9453 86.8369 20.4429 86.1983 19.7974C84.9663 18.3681 84.3337 16.5183 84.4324 14.634C84.4076 13.3565 84.691 12.092 85.2586 10.9473C85.8043 9.89913 86.649 9.03655 87.6854 8.46885C88.8527 7.85543 90.1572 7.54977 91.4755 7.58075C92.9747 7.52856 94.4598 7.88556 95.7715 8.61343L94.9454 10.5136C93.8989 9.92164 92.7191 9.60538 91.5168 9.59448C90.9074 9.56336 90.2988 9.66761 89.7345 9.89973C89.1703 10.1319 88.6645 10.4861 88.2534 10.937C87.4123 11.9716 86.9854 13.2818 87.0555 14.6133C86.9765 15.9104 87.3406 17.1958 88.0882 18.2587C88.4603 18.713 88.9356 19.0719 89.4745 19.3054C90.0134 19.5389 90.6003 19.6403 91.1863 19.6012C92.0004 19.6142 92.8096 19.4741 93.5719 19.1881V16.0281H90.7216V14.0247H96.04V20.6545C95.2583 20.9816 94.4498 21.2408 93.6235 21.429C92.7996 21.6107 91.9576 21.6973 91.114 21.6872Z" fill="white"/>
<path d="M103.269 21.6872C102.562 21.7273 101.855 21.6214 101.19 21.3762C100.526 21.1311 99.9188 20.7518 99.4071 20.2621C98.928 19.7261 98.5592 19.1009 98.3217 18.4222C98.0843 17.7436 97.9829 17.0248 98.0233 16.307C97.9425 14.8877 98.3997 13.4901 99.3039 12.3931C99.753 11.9047 100.304 11.5211 100.918 11.2694C101.532 11.0178 102.194 10.9043 102.856 10.937C103.472 10.8984 104.088 10.998 104.66 11.2285C105.232 11.459 105.745 11.8146 106.161 12.2692C106.979 13.2591 107.399 14.5183 107.338 15.8009V16.3173C107.338 16.5548 107.338 16.7304 107.338 16.844H100.481C100.453 17.6598 100.733 18.4563 101.266 19.0745C101.536 19.3431 101.86 19.5524 102.215 19.6893C102.571 19.8262 102.951 19.8877 103.331 19.8697C104.473 19.8621 105.594 19.5598 106.584 18.9919L106.925 20.7268C105.821 21.3831 104.554 21.7159 103.269 21.6872ZM100.543 15.2949H105.046C105.088 14.6046 104.887 13.9212 104.478 13.3638C104.282 13.1368 104.037 12.9574 103.761 12.8393C103.486 12.7212 103.187 12.6675 102.887 12.6822C102.59 12.6778 102.294 12.7341 102.019 12.8477C101.744 12.9614 101.495 13.1299 101.287 13.3432C100.803 13.879 100.531 14.573 100.522 15.2949H100.543Z" fill="white"/>
<path d="M112.016 21.6872C111.172 21.7236 110.346 21.4396 109.703 20.892C109.396 20.6002 109.158 20.2444 109.004 19.85C108.851 19.4555 108.786 19.0321 108.815 18.6098C108.781 18.1598 108.858 17.7084 109.038 17.2945C109.217 16.8807 109.495 16.5169 109.848 16.2346C110.796 15.62 111.889 15.264 113.018 15.202L113.648 15.1297L114.412 15.0574L115.073 14.9851V14.4584C115.096 14.2137 115.07 13.9669 114.995 13.7327C114.921 13.4985 114.8 13.2817 114.639 13.0953C114.461 12.9391 114.253 12.8202 114.028 12.7457C113.802 12.6712 113.564 12.6426 113.328 12.6616C112.262 12.7128 111.213 12.9505 110.23 13.3638C110.23 13.3638 110.116 13.0643 109.92 12.517L109.61 11.6702C110.855 11.1464 112.194 10.8829 113.545 10.8957C114.631 10.7993 115.713 11.1206 116.571 11.7941C116.919 12.1935 117.182 12.6593 117.346 13.1633C117.509 13.6674 117.568 14.1993 117.521 14.7269V21.4497H115.703C115.703 21.4497 115.631 21.2122 115.497 20.8198C115.419 20.6138 115.353 20.4034 115.3 20.1898C114.862 20.6385 114.352 21.0118 113.793 21.2948C113.238 21.5587 112.63 21.6928 112.016 21.6872ZM112.688 19.942C113.212 19.9541 113.728 19.8142 114.175 19.5392C114.566 19.2866 114.877 18.9286 115.073 18.5065V16.5238H114.588H114.082C113.319 16.5437 112.571 16.7343 111.892 17.0814C111.664 17.2297 111.48 17.4361 111.358 17.6793C111.237 17.9226 111.182 18.1939 111.2 18.4652C111.187 18.6547 111.214 18.8448 111.28 19.0229C111.346 19.201 111.449 19.363 111.583 19.4979C111.879 19.7844 112.275 19.9437 112.688 19.942Z" fill="white"/>
<path d="M120.02 21.491V11.1642H122.086L122.406 12.7442C122.702 12.2333 123.131 11.8124 123.648 11.5268C124.164 11.2412 124.749 11.1016 125.339 11.1229C125.559 11.11 125.78 11.11 126 11.1229V13.1882C125.744 13.1498 125.485 13.1325 125.225 13.1366C124.85 13.1027 124.471 13.1496 124.114 13.2743C123.758 13.399 123.433 13.5985 123.16 13.8595C122.689 14.4171 122.453 15.1349 122.499 15.8629V21.4497L120.02 21.491Z" fill="white"/>
<path fill-rule="evenodd" clip-rule="evenodd" d="M25.4664 14.3992L29.4989 15.7499C29.8416 15.8625 30.0408 16.2243 29.9452 16.5861L29.1801 19.8261C29.1004 20.1798 28.7577 20.413 28.3991 20.3567L24.1595 19.7135C23.5459 20.8391 22.725 21.836 21.7607 22.6641L23.2271 26.7001C23.3546 27.0458 23.1952 27.4317 22.8685 27.5845L19.88 28.9995C19.5533 29.1603 19.1628 29.0316 18.9795 28.7181L16.8517 25.0117C16.246 25.1243 15.6165 25.1806 14.9789 25.1806C14.3334 25.1806 13.6959 25.1163 13.0822 25.0037L11.0102 28.71C10.8269 29.0316 10.4364 29.1603 10.1097 29.0075L7.1053 27.6247C6.77856 27.4719 6.61917 27.094 6.73871 26.7483L8.18114 22.6561C7.85317 22.3733 7.54295 22.0716 7.25221 21.7524L12.062 17.4302L14.4847 18.6121L14.134 25.1404C14.405 25.1645 14.6839 25.1725 14.9629 25.1725C15.2099 25.1725 15.449 25.1645 15.6881 25.1484L15.3374 18.6603L17.8318 17.4463L22.6452 21.7958C22.9959 21.4099 23.3226 20.9999 23.6175 20.5657L18.3817 16.787L19.0192 14.0374L25.3388 12.944C25.2941 12.6506 25.2367 12.3622 25.1683 12.0774C25.3497 12.823 25.4524 13.5985 25.4664 14.3992ZM24.9848 11.4174L24.9882 11.4165C25.0546 11.635 25.1148 11.8551 25.1683 12.0774C25.1141 11.8547 25.0528 11.6347 24.9848 11.4174ZM20.2043 5.41491C20.634 5.66359 21.0448 5.94185 21.434 6.24691L24.5898 4.04401C24.8847 3.83497 25.2911 3.89125 25.5222 4.17264L27.6181 6.74537C27.8493 7.02676 27.8253 7.43679 27.5703 7.69406L24.6775 10.5643C24.7916 10.8434 24.8942 11.1279 24.9848 11.4174L18.7961 13.2013L17.0906 11.0466L20.2043 5.41491ZM18.8101 4.73995L18.812 4.73542C19.2981 4.92837 19.7603 5.15349 20.2066 5.41076L20.2043 5.41491C19.7588 5.15709 19.2931 4.93107 18.8101 4.73995ZM4.96239 11.4409C5.05353 11.1453 5.1571 10.8555 5.27237 10.5723L2.3875 7.66191C2.13248 7.40463 2.11655 6.9946 2.34765 6.71321L4.46747 4.15656C4.69858 3.88321 5.10501 3.82693 5.39988 4.03597L8.52382 6.24691C9.63155 5.37057 10.9146 4.71935 12.3252 4.35756L12.6439 0.643182C12.6758 0.281392 12.9786 0 13.3372 0H16.6365C16.9951 0 17.298 0.281392 17.3298 0.643182L17.6486 4.35756C18.0453 4.46275 18.4329 4.59071 18.8101 4.73995L16.3017 10.7009H13.5443L11.0739 4.76758C10.5957 4.96053 10.1335 5.19369 9.68721 5.45096L12.8112 11.119L11.1456 13.2254L4.96239 11.4409ZM4.61378 12.9606L4.6108 12.9601C4.69049 12.4375 4.81003 11.931 4.96144 11.4406L4.96239 11.4409C4.81069 11.9328 4.6934 12.4406 4.61378 12.9606ZM4.61378 12.9606L10.9384 14.0616L11.544 16.7549L6.29156 20.5284C6.13672 20.298 5.99076 20.0611 5.85412 19.818L1.57464 20.4693C1.21602 20.5255 0.881311 20.2924 0.79365 19.9386L0.0206325 16.6986C-0.0670293 16.3368 0.132202 15.975 0.47488 15.8625L4.49138 14.5118C4.4944 13.9855 4.5362 13.4673 4.61378 12.9606ZM6.29156 20.5284C6.58164 20.96 6.90286 21.3689 7.25221 21.7524L7.24862 21.7556C6.89797 21.3778 6.57123 20.9677 6.28434 20.5336L6.29156 20.5284Z" fill="white"/>
</g>
<defs>
<clipPath id="clip0_9629_50903">
<rect width="126" height="29.07" fill="white"/>
</clipPath>
</defs>
</svg>
