<svg width="72" height="72" viewBox="0 0 72 72" fill="none" xmlns="http://www.w3.org/2000/svg">
<rect width="72" height="72" rx="4" fill="#143374"/>
<g clip-path="url(#clip0_9629_85815)">
<path d="M12.8999 55.4956V48.1377H14.2581V51.451C14.4955 51.1376 14.978 50.5481 15.7127 49.6899C16.44 48.8317 16.8779 48.3093 17.0189 48.1377H18.622L15.8537 51.451L18.7927 55.4956H17.2044L14.8147 52.1972L14.2581 52.6674V55.4956H12.8999Z" fill="white"/>
<path d="M23.3794 55.0627C22.9416 55.4209 22.3701 55.6 21.6576 55.6C20.9452 55.6 20.3737 55.4209 19.9358 55.0627C19.4979 54.7045 19.2827 54.1822 19.2827 53.4882V49.9808H20.5963V53.4434C20.5963 53.8538 20.6854 54.1523 20.8561 54.3389C21.0268 54.5254 21.3014 54.615 21.6725 54.615C22.0361 54.615 22.3033 54.5254 22.474 54.3389C22.6447 54.1598 22.7263 53.8613 22.7263 53.4434V49.9808H24.0325V53.4882C24.0325 54.1747 23.8173 54.7045 23.3794 55.0627Z" fill="white"/>
<path d="M28.166 55.6001C27.7949 55.6001 27.4535 55.518 27.1492 55.3538C26.845 55.1896 26.6223 55.0031 26.4887 54.7867L26.3626 55.4881H25.2271V47.9437L26.5333 47.8616V49.5705C26.5333 49.8988 26.5258 50.2794 26.5036 50.6973C26.934 50.1301 27.4981 49.8466 28.1957 49.8466C28.8933 49.8466 29.4425 50.1078 29.8433 50.6301C30.2441 51.1525 30.437 51.839 30.437 52.6823C30.437 53.5628 30.2292 54.2643 29.821 54.8016C29.4128 55.3314 28.8636 55.6001 28.166 55.6001ZM27.8543 54.6001C28.2402 54.6001 28.5519 54.4359 28.7894 54.1001C29.0195 53.7718 29.1382 53.3017 29.1382 52.6897C29.1382 52.0778 29.0269 51.6152 28.7968 51.3017C28.5668 50.9883 28.2625 50.8316 27.8691 50.8316C26.986 50.8316 26.5333 51.4361 26.5258 52.6375C26.5258 53.3166 26.6372 53.8091 26.8598 54.13C27.0825 54.4434 27.4164 54.6001 27.8543 54.6001Z" fill="white"/>
<path d="M34.044 55.6001C33.1609 55.6001 32.4781 55.3464 31.9808 54.8315C31.491 54.324 31.2461 53.6151 31.2461 52.7121C31.2461 51.8316 31.4762 51.1376 31.9437 50.6152C32.4039 50.0928 33.0347 49.8317 33.8362 49.8317C34.5932 49.8317 35.1795 50.0705 35.5952 50.5481C36.0108 51.0256 36.2186 51.6525 36.2186 52.4435C36.2186 52.5032 36.2186 52.5928 36.2186 52.7196C36.2186 52.8465 36.2186 52.9435 36.2186 53.0032H32.5671C32.582 53.5181 32.723 53.9211 32.9902 54.2046C33.2574 54.4882 33.6284 54.63 34.096 54.63C34.6971 54.63 35.2686 54.4733 35.8252 54.1599L36.0108 55.0927C35.4616 55.4285 34.8085 55.6001 34.044 55.6001ZM32.5968 52.1749H34.994C34.994 51.7271 34.8901 51.3838 34.6897 51.1376C34.4893 50.8988 34.2073 50.7794 33.8437 50.7794C33.5097 50.7794 33.2202 50.8988 32.9902 51.1301C32.7601 51.3689 32.6265 51.7122 32.5968 52.1749Z" fill="white"/>
<path d="M40.679 55.6001C39.5657 55.6001 38.69 55.2643 38.0666 54.5852C37.4357 53.9061 37.124 52.9808 37.124 51.8092C37.124 51.0629 37.2725 50.4062 37.5619 49.8391C37.8513 49.272 38.2892 48.8317 38.8533 48.5108C39.4247 48.1899 40.0927 48.0332 40.8719 48.0332C41.7625 48.0332 42.527 48.2272 43.1578 48.6078L42.7199 49.6227C42.1113 49.2943 41.5028 49.1302 40.8942 49.1302C40.152 49.1302 39.5732 49.369 39.1501 49.854C38.7271 50.3391 38.5193 50.9958 38.5193 51.8241C38.5193 52.645 38.7048 53.3017 39.0833 53.7792C39.4618 54.2568 40.011 54.4956 40.7383 54.4956C41.2059 54.4956 41.6289 54.421 42.0074 54.2718V52.5629H40.4712L40.4786 51.4958H43.2765V55.0479C42.8238 55.2344 42.3934 55.3762 41.9926 55.4658C41.5918 55.5553 41.154 55.6001 40.679 55.6001Z" fill="white"/>
<path d="M47.1505 55.6001C46.2673 55.6001 45.5845 55.3464 45.0873 54.8315C44.5975 54.324 44.3525 53.6151 44.3525 52.7121C44.3525 51.8316 44.5826 51.1376 45.0502 50.6152C45.5103 50.0928 46.1412 49.8317 46.9427 49.8317C47.6997 49.8317 48.286 50.0705 48.7016 50.5481C49.1172 51.0256 49.325 51.6525 49.325 52.4435C49.325 52.5032 49.325 52.5928 49.325 52.7196C49.325 52.8465 49.325 52.9435 49.325 53.0032H45.6736C45.6884 53.5181 45.8294 53.9211 46.0966 54.2046C46.3638 54.4882 46.7349 54.63 47.2024 54.63C47.8036 54.63 48.3751 54.4733 48.9317 54.1599L49.1172 55.0927C48.5606 55.4285 47.9075 55.6001 47.1505 55.6001ZM45.6959 52.1749H48.093C48.093 51.7271 47.9891 51.3838 47.7887 51.1376C47.5884 50.8988 47.3063 50.7794 46.9427 50.7794C46.6087 50.7794 46.3193 50.8988 46.0892 51.1301C45.8591 51.3689 45.7255 51.7122 45.6959 52.1749Z" fill="white"/>
<path d="M51.8189 55.6001C51.3068 55.6001 50.8986 55.4583 50.5795 55.1747C50.2678 54.8912 50.1045 54.4807 50.1045 53.9509C50.1045 53.3763 50.29 52.9509 50.6611 52.6748C51.0322 52.3987 51.5962 52.2271 52.3458 52.1525C52.4497 52.1375 52.5611 52.1226 52.6798 52.1152C52.7985 52.1002 52.9321 52.0853 53.088 52.0778C53.2364 52.0629 53.3552 52.0555 53.4442 52.0405V51.7495C53.4442 51.4137 53.37 51.1674 53.2142 51.0182C53.0583 50.8689 52.8282 50.7869 52.5165 50.7869C52.0712 50.7869 51.522 50.9137 50.8615 51.16C50.8615 51.1525 50.8021 50.9958 50.6982 50.7048C50.5943 50.4137 50.5349 50.257 50.5349 50.2496C51.1806 49.9735 51.8783 49.8317 52.6353 49.8317C53.3774 49.8317 53.9118 49.9958 54.2458 50.3167C54.5797 50.6376 54.7504 51.16 54.7504 51.8838V55.4882H53.7782C53.7782 55.4732 53.7411 55.3613 53.6669 55.1523C53.6001 54.9434 53.563 54.8315 53.563 54.8165C53.2884 55.0852 53.0212 55.2792 52.7614 55.4061C52.5017 55.5329 52.19 55.6001 51.8189 55.6001ZM52.1751 54.6673C52.4794 54.6673 52.7392 54.5927 52.9692 54.4509C53.1919 54.3016 53.3552 54.13 53.4516 53.9211V52.8539C53.4442 52.8539 53.3552 52.8614 53.1919 52.8763C53.0286 52.8912 52.9396 52.8987 52.9247 52.8987C52.3978 52.9435 52.0044 53.048 51.7595 53.1972C51.5146 53.3539 51.3884 53.6002 51.3884 53.9434C51.3884 54.1748 51.4552 54.3613 51.5962 54.4807C51.7224 54.6076 51.9228 54.6673 52.1751 54.6673Z" fill="white"/>
<path d="M56.0786 55.4956V49.9734H57.177L57.3477 50.8167C57.7039 50.2346 58.2309 49.951 58.9137 49.951C59.0547 49.951 59.1734 49.9585 59.2625 49.9734L59.2402 51.0704C59.1066 51.048 58.9656 51.0406 58.8246 51.0406C58.3422 51.0406 57.9785 51.1674 57.7411 51.4286C57.5036 51.6898 57.3848 52.048 57.3848 52.5032V55.4956H56.0786Z" fill="white"/>
<g clip-path="url(#clip1_9629_85815)">
<path d="M39.7692 28.8867L45.6743 27.1995C45.5907 26.9259 45.4919 26.6523 45.3855 26.3939L48.1443 23.6808C48.3875 23.4376 48.4103 23.05 48.1899 22.784L46.1835 20.352C45.9631 20.086 45.5755 20.0328 45.2943 20.2304L42.2848 22.3128C41.92 22.024 41.5248 21.7656 41.122 21.53L38.1504 26.8499L39.7692 28.8867Z" fill="white"/>
<path d="M37.3982 26.5231L39.7845 20.884C39.4197 20.7396 39.0473 20.618 38.6673 20.5192L38.3633 17.008C38.3329 16.666 38.0442 16.4 37.7022 16.4H34.5558C34.2138 16.4 33.925 16.666 33.8946 17.008L33.5906 20.5192C33.1878 20.6256 32.7926 20.7548 32.4126 20.9068L34.7762 26.5231H37.3982Z" fill="white"/>
<path d="M49.9759 31.2959L46.1303 30.0191C46.1227 29.5555 46.0847 29.092 46.0087 28.6436L39.982 29.6771L39.3892 32.2763L44.3823 35.8483C44.5647 35.5899 44.7319 35.3163 44.8839 35.0427L48.9271 35.6507C49.2691 35.7039 49.5959 35.4835 49.6719 35.1491L50.4014 32.0863C50.4926 31.7443 50.3027 31.4023 49.9759 31.2959Z" fill="white"/>
<path d="M34.0619 26.9183L31.0827 21.5603C30.6951 21.7883 30.3227 22.0391 29.9731 22.3127L26.9939 20.2227C26.7127 20.0251 26.3251 20.0783 26.1047 20.3367L24.0832 22.7535C23.8628 23.0195 23.878 23.4071 24.1212 23.6503L26.8723 26.4015C26.7583 26.6675 26.6595 26.9487 26.5759 27.2223L32.4735 28.9095L34.0619 26.9183Z" fill="white"/>
<path d="M37.9151 40.0434L39.9443 43.547C40.1191 43.8434 40.4915 43.965 40.8031 43.813L43.6531 42.4754C43.9647 42.331 44.1167 41.9662 43.9951 41.6394L42.5967 37.8319C42.9007 37.5735 43.1895 37.2999 43.4555 37.0111L38.8651 32.9071L36.4863 34.0547L36.8207 40.1878C37.0639 40.1802 37.9151 40.0434 37.9151 40.0434Z" fill="white"/>
<path d="M33.355 32.8843L28.7647 36.973C29.0383 37.2694 29.3347 37.5582 29.6463 37.8242L28.2707 41.6926C28.1567 42.0194 28.3087 42.3766 28.6203 42.521L31.4854 43.8282C31.797 43.9726 32.1694 43.851 32.3442 43.547L34.3202 40.0434C34.6546 40.1042 34.9966 40.1498 35.3386 40.1726L35.673 34.0015L33.355 32.8843Z" fill="white"/>
<path d="M32.2834 29.6923L26.2491 28.6511C26.1731 29.1299 26.1351 29.6239 26.1275 30.1179L22.2971 31.4023C21.9703 31.5087 21.7803 31.8507 21.8639 32.1927L22.6011 35.2555C22.6847 35.5899 23.0039 35.8103 23.3459 35.7571L27.4271 35.1415C27.5563 35.3695 27.7007 35.5975 27.8527 35.8179L32.8686 32.2459L32.2834 29.6923Z" fill="white"/>
</g>
</g>
<defs>
<clipPath id="clip0_9629_85815">
<rect width="46.3628" height="39.2" fill="white" transform="translate(12.8999 16.4)"/>
</clipPath>
<clipPath id="clip1_9629_85815">
<rect width="28.5909" height="27.4814" fill="white" transform="translate(21.8413 16.4)"/>
</clipPath>
</defs>
</svg>
