<svg xmlns="http://www.w3.org/2000/svg" width="387.645" height="194" viewBox="0 0 387.645 194">
  <g id="image_login" transform="translate(-417.461 -443)">
    <g id="Group_150" data-name="Group 150" transform="translate(-610.731 280.609)">
      <path id="Path_126" data-name="Path 126" d="M1366.786,307.964a144.891,144.891,0,0,0-19.965-73.609h7.939a7.592,7.592,0,0,0,7.635-6.607,7.425,7.425,0,0,0-5.954-8.064c-.04,0-.078.006-.119.006h-38.4a6.767,6.767,0,0,1-6.747-6.747h0a6.766,6.766,0,0,1,6.747-6.746l40.752-.129a7.557,7.557,0,0,0,7.538-6.234,7.424,7.424,0,0,0-7.314-8.577h-50.665a145.65,145.65,0,0,0-158.392-10.19H1129.3a7.575,7.575,0,0,0-7.582,6.383c-.006.051-.013.1-.019.152a6.4,6.4,0,0,0,6.426,7.016h17.616a6.92,6.92,0,0,1,6.939,5.839,6.764,6.764,0,0,1-6.686,7.654h-50.881a8.062,8.062,0,0,0-7.66,7.408,7.424,7.424,0,0,0,7.386,7.935h7.838a144.908,144.908,0,0,0-27.033,84.51Z" fill="#e1ffff" opacity="0.46"/>
      <g id="Group_140" data-name="Group 140">
        <g id="Group_15" data-name="Group 15">
          <g id="Group_14" data-name="Group 14">
            <path id="Path_1" data-name="Path 1" d="M1215.688,348H1197.38V320.244h6.647v21.4h11.661Z" fill="#32bcc9"/>
            <path id="Path_2" data-name="Path 2" d="M1246.2,339.981h-12.262q.4,3.552,3.241,3.556,1.769,0,2.738-2.309l6.085.87a10.425,10.425,0,0,1-2.441,4.2,8.95,8.95,0,0,1-6.345,2.116,9.432,9.432,0,0,1-5.412-1.4,8.861,8.861,0,0,1-3.439-4.69,13.447,13.447,0,0,1-.7-4.348,12.006,12.006,0,0,1,2.1-7.222,8.152,8.152,0,0,1,6.95-3.325Q1246.371,327.429,1246.2,339.981Zm-6.214-4.158q-.432-3.525-2.975-3.517a2.63,2.63,0,0,0-2.106,1.058,4,4,0,0,0-.966,2.458Z" fill="#32bcc9"/>
            <path id="Path_3" data-name="Path 3" d="M1277.12,348h-5.981a10.517,10.517,0,0,1-.7-1.931,7.585,7.585,0,0,1-5.748,2.345,5.766,5.766,0,0,1-6.234-5.255,5.968,5.968,0,0,1-.013-.79,5.49,5.49,0,0,1,2.171-4.689,11.474,11.474,0,0,1,3.91-1.591,45.049,45.049,0,0,0,5.447-1.517,3.015,3.015,0,0,0-.337-1.59,2.34,2.34,0,0,0-1.938-.679,2.927,2.927,0,0,0-2.17.716,5.915,5.915,0,0,0-.868,1.665l-5.748-.866a8.015,8.015,0,0,1,2.908-5.067,10.676,10.676,0,0,1,5.91-1.319q5.045,0,6.884,2.193,1.5,1.777,1.506,6.162v6.582a17.637,17.637,0,0,0,.23,3.172A23.306,23.306,0,0,0,1277.12,348Zm-7.151-9.036v-.043q-.836.261-3.077.9-2.235.568-2.237,2.044a2.064,2.064,0,0,0,.4,1.209,1.934,1.934,0,0,0,1.6.719,3,3,0,0,0,2.84-1.742,6.823,6.823,0,0,0,.469-3.092Z" fill="#32bcc9"/>
            <path id="Path_4" data-name="Path 4" d="M1302.923,328.6l-1.9,5.558a4.211,4.211,0,0,0-2.207-.793q-1.734,0-2.206,2.758a33.454,33.454,0,0,0-.266,5.3V348h-6.116V327.92h5.749v1.888a3.833,3.833,0,0,1,3.573-2.344A7.215,7.215,0,0,1,1302.923,328.6Z" fill="#32bcc9"/>
            <path id="Path_5" data-name="Path 5" d="M1331.834,348h-6.215v-10.62a11.528,11.528,0,0,0-.233-2.834,1.937,1.937,0,0,0-2-1.517q-1.974,0-2.607,2.345a15.444,15.444,0,0,0-.2,3.213V348h-6.216V327.92h5.783v2.495a6.768,6.768,0,0,1,5.517-2.949,5.3,5.3,0,0,1,5.379,3.326,14.03,14.03,0,0,1,.8,5.369Z" fill="#32bcc9"/>
            <path id="Path_6" data-name="Path 6" d="M1383.672,348h-6.214v-10.62a11.583,11.583,0,0,0-.234-2.834,1.93,1.93,0,0,0-2-1.517q-1.974,0-2.607,2.345a15.511,15.511,0,0,0-.2,3.213V348H1366.2V327.92h5.779v2.495a6.766,6.766,0,0,1,5.516-2.949,5.305,5.305,0,0,1,5.379,3.326,14.088,14.088,0,0,1,.8,5.369Z" fill="#32bcc9"/>
            <path id="Path_7" data-name="Path 7" d="M1415.256,346.712q0,5.556-2.909,7.748a9.99,9.99,0,0,1-6.147,1.589q-5.283,0-7.384-2.309a6.089,6.089,0,0,1-1.406-4.309c0-.275.013-.656.035-1.135l6.214.793q0,1.965,2.408,1.966a2.613,2.613,0,0,0,2.6-1.284,6.062,6.062,0,0,0,.37-2.495v-1.964a5.341,5.341,0,0,1-4.713,2.532,6.416,6.416,0,0,1-5.947-3.667,14.286,14.286,0,0,1-1.571-6.881,11.363,11.363,0,0,1,2.24-7.488,6.522,6.522,0,0,1,5.179-2.379,6.027,6.027,0,0,1,5.179,2.607V327.92h5.848Zm-6.185-9a6.441,6.441,0,0,0-.827-3.585,2.663,2.663,0,0,0-2.275-1.242q-2.907,0-2.906,4.763,0,4.729,2.94,4.727a2.69,2.69,0,0,0,1.838-.718,5.335,5.335,0,0,0,1.232-3.945Z" fill="#32bcc9"/>
          </g>
          <path id="Path_8" data-name="Path 8" d="M1348.969,318.12a3.732,3.732,0,1,1-3.732,3.732A3.782,3.782,0,0,1,1348.969,318.12Zm4.667,29.546a6.752,6.752,0,0,1-1.866.312c-3.422,0-5.91-1.866-5.91-5.6V327.759h6.222v13.687c0,.622.312,1.241,1.556,1.241Z" fill="#32bcc9"/>
        </g>
        <path id="Path_9" data-name="Path 9" d="M1039.088,336.161l-2.178,2.8v8.7h-6.222V318.12h6.222v12.444l8.709-12.443h7.466l-9.954,13.064,10.886,16.481h-7.776Z" fill="#32bcc9"/>
        <g id="Group_16" data-name="Group 16">
          <path id="Path_10" data-name="Path 10" d="M1086.679,347.666l8.088-29.55h7.152l8.089,29.55h-6.847l-1.242-5.91h-7.464l-1.241,5.91Zm9.332-11.2h4.977l-2.482-11.2Z" fill="#32bcc9"/>
          <path id="Path_11" data-name="Path 11" d="M1137.071,332.74c-.312,0-1.242-.311-1.866-.311-1.866,0-3.733.622-4.044,1.241v14h-6.222v-19.6h3.732l.934,1.556a8.825,8.825,0,0,1,5.91-1.866,11.015,11.015,0,0,1,1.866.312v4.666Z" fill="#32bcc9"/>
          <path id="Path_12" data-name="Path 12" d="M1163.512,347.982a11.666,11.666,0,0,1-3.11.312c-5.6,0-7.465-2.178-7.465-6.844v-8.088h-3.112v-4.355l3.11-.934v-4.049l6.222-1.556v5.6h4.977v5.288h-5.287v7.465c0,1.556.622,2.483,2.482,2.483a11.015,11.015,0,0,0,1.866-.312v4.977Z" fill="#32bcc9"/>
        </g>
      </g>
      <line id="Line_15" data-name="Line 15" x1="384.567" transform="translate(1029.731 309.228)" stroke-dasharray="369.387 8" stroke="#878787" stroke-linecap="round" stroke-linejoin="round" stroke-width="3.078" fill="none"/>
      <rect id="Rectangle_183" data-name="Rectangle 183" width="28.991" height="7.548" transform="translate(1228.352 292.792)" stroke-width="1.118" stroke="#878787" stroke-linecap="round" stroke-linejoin="round" fill="none"/>
      <rect id="Rectangle_184" data-name="Rectangle 184" width="41.667" height="7.466" rx="1.084" transform="translate(1222.015 300.34)" stroke-width="1.084" stroke="#878787" stroke-linecap="round" stroke-linejoin="round" fill="none"/>
      <path id="Path_127" data-name="Path 127" d="M1181.359,207.87v44.159h13.988a.8.8,0,0,1,.8.8v32.305h100.424V261.724h7.768V207.892a1.314,1.314,0,0,0-1.314-1.314H1182.651A1.293,1.293,0,0,0,1181.359,207.87Z" fill="#fff"/>
      <g id="Group_141" data-name="Group 141">
        <rect id="Rectangle_185" data-name="Rectangle 185" width="85.521" height="56.706" rx="1.345" transform="translate(1110.624 252.029)" stroke-width="1.345" stroke="#878787" stroke-linecap="round" stroke-linejoin="round" fill="none"/>
        <rect id="Rectangle_186" data-name="Rectangle 186" width="69.216" height="47.876" transform="translate(1117.723 256.443)" fill="#fff"/>
        <rect id="Rectangle_187" data-name="Rectangle 187" width="69.216" height="47.876" transform="translate(1117.723 256.443)" stroke-width="1.325" stroke="#878787" stroke-linecap="round" stroke-linejoin="round" fill="none"/>
        <line id="Line_16" data-name="Line 16" y2="13.156" transform="translate(1113.792 273.803)" fill="none" stroke="#878787" stroke-linecap="round" stroke-linejoin="round" stroke-width="1.345"/>
        <circle id="Ellipse_25" data-name="Ellipse 25" cx="2.366" cy="2.366" r="2.366" transform="translate(1189.141 278.016)" stroke-width="1.345" stroke="#878787" stroke-linecap="round" stroke-linejoin="round" fill="none"/>
      </g>
      <g id="Group_142" data-name="Group 142">
        <rect id="Rectangle_188" data-name="Rectangle 188" width="45.51" height="27.276" rx="0.68" transform="translate(1323.845 262.344) rotate(90)" stroke-width="1.24" stroke="#878787" stroke-linecap="round" stroke-linejoin="round" fill="none"/>
        <rect id="Rectangle_189" data-name="Rectangle 189" width="32.279" height="21.743" transform="translate(1321.078 268.219) rotate(90)" fill="#fff"/>
        <rect id="Rectangle_190" data-name="Rectangle 190" width="32.279" height="21.743" transform="translate(1321.078 268.219) rotate(90)" stroke-width="1.153" stroke="#878787" stroke-linecap="round" stroke-linejoin="round" fill="none"/>
        <line id="Line_17" data-name="Line 17" x1="6.328" transform="translate(1307.284 265.44)" fill="none" stroke="#878787" stroke-linecap="round" stroke-linejoin="round" stroke-width="1.231"/>
        <ellipse id="Ellipse_26" data-name="Ellipse 26" cx="1.546" cy="1.564" rx="1.546" ry="1.564" transform="translate(1308.902 302.509)" fill="none" stroke="#878787" stroke-linecap="round" stroke-linejoin="round" stroke-width="1.231"/>
      </g>
      <g id="Group_143" data-name="Group 143">
        <path id="Path_128" data-name="Path 128" d="M1369.59,292.692l-41.373,0v3.7l39.871,0c2.734,0,4.95,1.216,4.95,3.95h0c0,2.734-2.216,3.951-4.95,3.951h-39.87v3.7l41.373,0a7.647,7.647,0,0,0,7.647-7.647h0A7.648,7.648,0,0,0,1369.59,292.692Z" fill="#fff" stroke="#878787" stroke-linecap="round" stroke-linejoin="round" stroke-width="1.091"/>
        <path id="Path_129" data-name="Path 129" d="M1329.791,303.669a9.789,9.789,0,0,0,.152-6.74" fill="none" stroke="#878787" stroke-linecap="round" stroke-linejoin="round" stroke-width="0.9"/>
      </g>
      <g id="Group_144" data-name="Group 144">
        <path id="Path_130" data-name="Path 130" d="M1061.921,307.947l41.373,0v-3.7h-39.871c-2.733,0-4.95-1.216-4.95-3.95h0c0-2.734,2.216-3.951,4.95-3.951h39.871v-3.7l-41.373,0a7.646,7.646,0,0,0-7.647,7.647h0A7.647,7.647,0,0,0,1061.921,307.947Z" fill="#fff" stroke="#878787" stroke-linecap="round" stroke-linejoin="round" stroke-width="1.091"/>
        <path id="Path_131" data-name="Path 131" d="M1101.721,296.97a9.789,9.789,0,0,0-.152,6.74" fill="none" stroke="#878787" stroke-linecap="round" stroke-linejoin="round" stroke-width="0.9"/>
      </g>
      <g id="Group_145" data-name="Group 145">
        <path id="Path_132" data-name="Path 132" d="M1335.915,276.314l41.37.525-.035,3.7-39.867-.505c-2.734-.035-4.978,1.153-5.013,3.887h0c-.035,2.733,2.154,3.978,4.887,4.012l39.868.506-.034,3.7-41.37-.524a7.648,7.648,0,0,1-7.55-7.744h0A7.648,7.648,0,0,1,1335.915,276.314Z" fill="#fff" stroke="#878787" stroke-linecap="round" stroke-linejoin="round" stroke-width="1.091"/>
        <path id="Path_133" data-name="Path 133" d="M1375.572,287.874a9.454,9.454,0,0,1-.069-6.623" fill="none" stroke="#878787" stroke-linecap="round" stroke-linejoin="round" stroke-width="0.892"/>
        <path id="Path_134" data-name="Path 134" d="M1337.629,295.385l4.388-2.136,4.333,2.247.144-11.4-8.72-.11Z" fill="#fdffb6"/>
        <path id="Path_135" data-name="Path 135" d="M1337.629,295.385l4.388-2.136,4.333,2.247.144-11.4-8.72-.11Z" fill="none" stroke="#878787" stroke-linecap="round" stroke-linejoin="round" stroke-width="1.091"/>
      </g>
      <g id="Group_146" data-name="Group 146">
        <rect id="Rectangle_191" data-name="Rectangle 191" width="28.684" height="6.926" transform="translate(1068.956 285.317)" stroke-width="1.231" stroke="#878787" stroke-linecap="round" stroke-linejoin="round" fill="none"/>
        <path id="Rectangle_192" data-name="Rectangle 192" d="M0,0H2.993A3.131,3.131,0,0,1,6.124,3.131V3.8A3.131,3.131,0,0,1,2.993,6.926H0a0,0,0,0,1,0,0V0A0,0,0,0,1,0,0Z" transform="translate(1097.64 285.317)" fill="#ffc7c7"/>
        <path id="Rectangle_193" data-name="Rectangle 193" d="M0,0H2.993A3.131,3.131,0,0,1,6.124,3.131V3.8A3.131,3.131,0,0,1,2.993,6.926H0a0,0,0,0,1,0,0V0A0,0,0,0,1,0,0Z" transform="translate(1097.64 285.317)" fill="none" stroke="#878787" stroke-linecap="round" stroke-linejoin="round" stroke-width="1.231"/>
        <path id="Path_136" data-name="Path 136" d="M1061.748,288.781l1.6-.747,1.6-.747v2.988l-1.6-.747Z" fill="#878787"/>
        <path id="Path_137" data-name="Path 137" d="M1061.3,288.781l3.656-1.7,3.655-1.7v6.808l-3.655-1.7Z" fill="none" stroke="#878787" stroke-linecap="round" stroke-linejoin="round" stroke-width="1.231"/>
        <line id="Line_18" data-name="Line 18" x2="27.704" transform="translate(1069.274 287.469)" fill="none" stroke="#878787" stroke-linecap="round" stroke-linejoin="round" stroke-width="1.231"/>
        <line id="Line_19" data-name="Line 19" x2="27.704" transform="translate(1069.274 289.628)" fill="none" stroke="#878787" stroke-linecap="round" stroke-linejoin="round" stroke-width="1.231"/>
      </g>
      <g id="Group_147" data-name="Group 147">
        <path id="Path_138" data-name="Path 138" d="M1304.337,207.3v55.047h9.076V200.2a1.366,1.366,0,0,0-1.366-1.366h-138.4a1.367,1.367,0,0,0-1.366,1.366v51.825h9.077V207.3a1.172,1.172,0,0,1,1.172-1.172h120.634A1.172,1.172,0,0,1,1304.337,207.3Z" fill="none" stroke="#878787" stroke-linecap="round" stroke-linejoin="round" stroke-width="1.315"/>
        <rect id="Rectangle_194" data-name="Rectangle 194" width="100.425" height="7.286" transform="translate(1196.145 285.131)" stroke-width="1.315" stroke="#878787" stroke-linecap="round" stroke-linejoin="round" fill="none"/>
      </g>
      <g id="Group_148" data-name="Group 148">
        <rect id="Rectangle_195" data-name="Rectangle 195" width="71.956" height="2" rx="1" transform="translate(1206.87 236.894)" fill="#afafaf"/>
        <rect id="Rectangle_196" data-name="Rectangle 196" width="30.55" height="2" rx="1" transform="translate(1227.573 230.329)" fill="#afafaf"/>
        <rect id="Rectangle_197" data-name="Rectangle 197" width="19.792" height="5.47" rx="2.735" transform="translate(1232.952 264.459)" fill="#32bcc9"/>
        <rect id="Rectangle_198" data-name="Rectangle 198" width="48.949" height="2" rx="0.885" transform="translate(1218.373 245.416)" fill="#afafaf"/>
        <path id="Path_139" data-name="Path 139" d="M1251.076,252.8c-5.558,1.814-11.274-1.322-16.869.33-.982.29-.566,2.219.416,1.929,5.58-1.648,11.282,1.493,16.87-.331C1252.469,254.415,1252.055,252.485,1251.076,252.8Z" fill="#afafaf"/>
      </g>
      <g id="Group_149" data-name="Group 149">
        <path id="Rectangle_199" data-name="Rectangle 199" d="M1.156,0H50.409a.844.844,0,0,1,.844.844v.312A.844.844,0,0,1,50.409,2H.844A.844.844,0,0,1,0,1.156v0A1.156,1.156,0,0,1,1.156,0Z" transform="translate(1127.757 274.529)" fill="#afafaf"/>
        <path id="Rectangle_200" data-name="Rectangle 200" d="M1.156,0H20.917a.844.844,0,0,1,.844.844v.312A.844.844,0,0,1,20.917,2H.844A.844.844,0,0,1,0,1.156v0A1.156,1.156,0,0,1,1.156,0Z" transform="translate(1142.504 269.644)" fill="#afafaf"/>
        <rect id="Rectangle_201" data-name="Rectangle 201" width="14.097" height="3.85" rx="1.925" transform="translate(1146.335 292.998)" fill="#32bcc9"/>
        <path id="Rectangle_202" data-name="Rectangle 202" d="M1.156,0H34.119a.747.747,0,0,1,.747.747v.506A.747.747,0,0,1,34.119,2H.747A.747.747,0,0,1,0,1.253v-.1A1.156,1.156,0,0,1,1.156,0Z" transform="translate(1135.951 278.76)" fill="#afafaf"/>
        <path id="Path_140" data-name="Path 140" d="M1159.244,283.97c-3.958,1.815-8.03-1.322-12.015.331-.7.29-.4,2.219.3,1.928,3.974-1.648,8.036,1.494,12.016-.33C1160.237,285.58,1159.942,283.651,1159.244,283.97Z" fill="#afafaf"/>
      </g>
      <path id="Path_141" data-name="Path 141" d="M1315.907,276.553h-10.918c-1.036,0-1.037,1,0,1h10.918C1316.942,277.553,1316.944,276.553,1315.907,276.553Z" fill="#afafaf"/>
      <path id="Path_142" data-name="Path 142" d="M1317.841,279.162h-14.787c-.848,0-.849,1,0,1h14.787C1318.69,280.162,1318.691,279.162,1317.841,279.162Z" fill="#afafaf"/>
      <path id="Path_143" data-name="Path 143" d="M1314.641,281.64h-8.387c-1.034,0-1.036,1,0,1h8.387C1315.676,282.64,1315.678,281.64,1314.641,281.64Z" fill="#afafaf"/>
      <path id="Path_144" data-name="Path 144" d="M1313.688,284.569a24.547,24.547,0,0,0-6.626.111.5.5,0,0,0-.378.615.562.562,0,0,0,.666.35,23.477,23.477,0,0,1,6.338-.076.524.524,0,0,0,.541-.5C1314.229,284.77,1313.979,284.605,1313.688,284.569Z" fill="#afafaf"/>
      <rect id="Rectangle_203" data-name="Rectangle 203" width="11.522" height="3.316" rx="1.658" transform="translate(1304.687 290.473)" fill="#32bcc9"/>
      <path id="Path_145" data-name="Path 145" d="M1371.006,253.7c1.3-.021,5.9-1.873,7.1-2.312,1.564-.572,6.056-2.223,7.333-3.371l-.33-.366c-1.683,1.277-13.251,5.4-14.1,6.049Zm15.241-7.733c-.7.63-.016.116-.714.311-.178-1.242.683-4.777.777-6.413a3.1,3.1,0,0,1,.731-2.229c.739.975.426.107.316,1.064l-1.11,7.267Zm-1.681-4.451c.976-1.035.27-1.09.655-3.1a14.168,14.168,0,0,1,.768-2.924c.448-1.139.736-1.978,1.283-3.072.921-1.842,1.135-2.128.728-2.926-1.359,1.278-3.416,6.931-3.707,9.047-.072.529-.067,1-.1,1.565-.047.8-.2.663.375,1.415Zm-2.132-12.324c.37.005-.156.471.714-.311-.37-.006.157-.472-.714.311Zm.714-.311c1.559-1.339,4.528-2.719,6.473-.194.913,1.186.4,2.027.1,3.162l-2.071,9.309c-.293,1.5-.861,5.156-1.827,6.182-1.436-1.6-3.526-3.141-3.811-4.739-.166-.925,1.732-7.994,2.247-9.648.484-1.56.829-3.167,2.4-4.582-1.465-.955-2.48,1.925-2.81,2.99l-2.231,8.254c-.388,1.946-.847,2.711-.136,4-2.4,2.157-17.729,9.69-21.064,8.992,2.415-2.27,8.188-11.546,7.5-16.346,2.056-1.847,8.159-4.308,10.938-5.562l3.57-1.511-6.994,3.568c-1.2.607-6.024,2.481-6.47,3.561,1.186.3.8.073,1.944-.464l13.076-6.408c-.495-.465-.375-.383-.842-.568Zm-12.673,24.965.531-.146-.531.146Zm-.714.311c.37,0-.156.471.714-.311-.371-.006.156-.472-.714.311Zm-.532.145.532-.145-.532.145Zm-.531.146.531-.146-.531.146Zm-.531.147.531-.147-.531.147Zm-.531.145.531-.145-.531.145Zm-.531.146.531-.146-.531.146Zm-.531.147.531-.147-.531.147Zm-.531.145.531-.145-.531.145Zm-.532.147.532-.147Zm0,0Zm-.878.127Zm-.531.146.531-.146Zm0,0c-.629-.148-.244-.217-.879.128.628.148.243.217.879-.128Zm-.879.128Zm21.046-8.644a39.182,39.182,0,0,1-5.543,2.522l-11.039,4.2c-3.137,1.078-3.685,1.06-5.213-.381,1.145-.631,3.454-1.018,4.968-1.575,4.655-1.714,10.125-4.907,14.522-7.326l2.305,2.565Zm5.747-19.4c1.967,2.189.1,5.782-.853,10.421-.445,2.164-1.734,9.455-2.882,10.487-2.473,2.222-16.86,6.905-21.88,7.938-1.419.292-1.966.342-2.735-1.056l.916-.823c-2.306-2.175-2.137-.046-3.587-1.413,1.022-1.463,2.128-2.825,3.165-4.366a48.293,48.293,0,0,0,2.765-4.562c.82-1.543,2.949-6.161,2.118-7.993l-.471-.816c1.864-1.026,3.991-2.008,5.917-3,2.852-1.468,8.9-4.482,11.807-5.5a8.163,8.163,0,0,1,2.825-.625A5.349,5.349,0,0,1,1390.016,227.675Z" fill="#878787" fill-rule="evenodd"/>
      <rect id="Rectangle_204" data-name="Rectangle 204" width="28.652" height="14.81" rx="7.405" transform="translate(1054.422 208.643)" fill="#e1ffff" opacity="0.46"/>
      <line id="Line_20" data-name="Line 20" x2="28.461" transform="translate(1321.505 220.022)" fill="none" stroke="#878787" stroke-linecap="round" stroke-linejoin="round" stroke-width="0.836"/>
      <line id="Line_21" data-name="Line 21" x2="21.152" transform="translate(1329.193 227.848)" fill="none" stroke="#878787" stroke-linecap="round" stroke-linejoin="round" stroke-width="0.836"/>
      <line id="Line_22" data-name="Line 22" x2="3.285" transform="translate(1352.965 220.022)" fill="none" stroke="#878787" stroke-linecap="round" stroke-linejoin="round" stroke-width="0.836"/>
      <circle id="Ellipse_27" data-name="Ellipse 27" cx="2.217" cy="2.217" r="2.217" transform="translate(1360.02 217.804)" stroke-width="1" stroke="#878787" stroke-linecap="round" stroke-linejoin="round" fill="none"/>
      <circle id="Ellipse_28" data-name="Ellipse 28" cx="3.23" cy="3.23" r="3.23" transform="translate(1183.71 181.64)" stroke-width="1" stroke="#878787" stroke-linecap="round" stroke-linejoin="round" fill="none"/>
      <circle id="Ellipse_29" data-name="Ellipse 29" cx="3.23" cy="3.23" r="3.23" transform="translate(1094.411 262.21)" stroke-width="1" stroke="#878787" stroke-linecap="round" stroke-linejoin="round" fill="none"/>
      <circle id="Ellipse_30" data-name="Ellipse 30" cx="2.217" cy="2.217" r="2.217" transform="translate(1074.349 222.826)" fill="none" stroke="#32bcc9" stroke-miterlimit="10" stroke-width="1"/>
      <circle id="Ellipse_31" data-name="Ellipse 31" cx="2.217" cy="2.217" r="2.217" transform="translate(1253.997 177.593)" stroke-width="1" stroke="#878787" stroke-linecap="round" stroke-linejoin="round" fill="none"/>
      <circle id="Ellipse_32" data-name="Ellipse 32" cx="4.145" cy="4.145" r="4.145" transform="translate(1262.438 182.027)" fill="none" stroke="#32bcc9" stroke-miterlimit="10" stroke-width="1"/>
      <path id="Path_146" data-name="Path 146" d="M1118.55,216.691c1.064-.253,1.882-.635,3.291-.922l8.829-1.847c.846-.052.619-.221,1.053.717-.841.641-10.579,2.885-12.647,3.314l-.526-1.262Zm12.632-3.55c-.118-.969-.063-2.411-.245-3.4-3.309.687-12.689,2.533-15.755,3.75-1,.4-1.726.643-1.466,1.893.275,1.326.209,1.309,1.376,1.094a.563.563,0,0,0,0-.1l.035-.823c2.653-.784,1.732-1.1,2.827.333,2.25-.467,11.953-3.059,13.225-2.745Zm-18.3,2.649a3.055,3.055,0,0,1,.528-2.129c1.667-1.857,15.669-4.22,18.495-4.807-.437-2.1-.48-.82-2.167-.47l-8.817,1.83c-1.854.384-3.067.429-4.674.742-1.768.343-2.91.032-4.325.206a19.277,19.277,0,0,0-.042,6.446c.172.83.232.386.495,1.276a17.378,17.378,0,0,0,4.28-.428c-.512-1.1-.232-1.1-1.344-1.144-.6-.025-1.256-.01-1.888-.025-.233-1.013-.373-.693-.541-1.5Zm-13.468-25.023,8.567,15.665c.471.81.951,1.745,1.523,2.612a10.512,10.512,0,0,0,1.931,1.989c-.274.183-.381.061-.484,1.205-.041.459-.054,1.127-.072,1.666a11.634,11.634,0,0,0,.249,3.4,3.043,3.043,0,0,1-.984-1.4c-.315-.633-.512-.921-.867-1.58l-8.468-16.108a7.27,7.27,0,0,1-1.282-3.358c-.052-1.311.028-2.935-.113-4.089Zm-.109-2.736c-.309-1.493,17.832-5.08,20-5.531l2.87,6.07c1.69,3.381,8.33,15.773,8.873,18.392-3.543,1.64-8.03,2.107-11.855,2.689a36.811,36.811,0,0,1-5.46.777c-1.975.011-2.568-.358-3.566-1.821-1.706-2.5-10.406-18.361-10.866-20.576Zm-.474,7.685c.273,1.315,8.925,17.521,10.231,19.8,2.646,4.628,2.1,4.765,7.95,3.551a36.3,36.3,0,0,0,1.267,3.582c.152.411.519,1.318.742,1.77.383.774.387.967,1.347.849a6.019,6.019,0,0,0-.191-2.029c1.066-.131,1.708.3,2.47-.283-.686-1.366-2.415-.948-3.21-4.392l11.187-2.558a12.56,12.56,0,0,0,1.9-.847,19.33,19.33,0,0,1-.579-2.65,20.437,20.437,0,0,0-.345-2.906c2.193-.506.576-1.868.23-3.006-.924-3.05-3.718-7.956-5.186-10.911l-5.431-10.87c-2-4.146.213-3.647-8.707-1.833l-6.668,1.715c-1.153.428-2.33.532-3.482.952a16.485,16.485,0,0,0-3.007,1.073c-1.324.832-.7,2.834-.652,5.665A21.548,21.548,0,0,0,1098.828,195.716Z" fill="#878787" fill-rule="evenodd"/>
    </g>
    <g id="Rectangle_207" data-name="Rectangle 207" transform="translate(419 443)" fill="none" stroke="#707070" stroke-width="1" opacity="0">
      <rect width="386" height="194" stroke="none"/>
      <rect x="0.5" y="0.5" width="385" height="193" fill="none"/>
    </g>
  </g>
</svg>
