<svg xmlns="http://www.w3.org/2000/svg" width="430" height="225.05" viewBox="0 0 430 225.05">
  <g id="image_oops" transform="translate(-580 -356)">
    <g id="Group_157" data-name="Group 157" transform="translate(485.815 -618.618)">
      <path id="Path_153" data-name="Path 153" d="M455.854,1211.928a157.086,157.086,0,0,0-21.646-79.806h8.607a8.231,8.231,0,0,0,8.278-7.163,8.051,8.051,0,0,0-6.455-8.743c-.043,0-.085.007-.13.007H402.881a7.336,7.336,0,0,1-7.314-7.314h0a7.336,7.336,0,0,1,7.314-7.314l44.183-.14a8.193,8.193,0,0,0,8.172-6.759,8.049,8.049,0,0,0-7.93-9.3H392.376a157.913,157.913,0,0,0-171.726-11.048H198.371a8.213,8.213,0,0,0-8.22,6.921c-.007.055-.014.11-.021.164a6.936,6.936,0,0,0,6.968,7.607h19.1a7.5,7.5,0,0,1,7.523,6.331,7.333,7.333,0,0,1-7.249,8.3H161.306A8.743,8.743,0,0,0,153,1111.7a8.05,8.05,0,0,0,8.008,8.6h8.5a157.106,157.106,0,0,0-29.308,91.624Z" transform="translate(-6.969 -12.449)" fill="#e1ffff" opacity="0.46"/>
      <path id="Path_154" data-name="Path 154" d="M181.33,1026.2c.1-.046,7.012-4.516,7.1-4.591-3.075-.587-5.9.343-8.377.387a11.221,11.221,0,0,0,1.282,4.2Zm-19.174,5.925c2.46-2.4,4.776-4.55,7.351-6.976,2.629-2.477,4.89-4.274,7.6-6.6,4.32-3.709,4.02-.691,10.937.79l-.178.836c-9.04-1.938-13.778,4.535-21.092,10.186L155.36,1039.4Zm-6.8,7.28Zm-1.1,1.073Zm.119-2.594,23.814-22.309-1.828-7.145c-1.705.764-21.548,28.01-21.986,29.454Zm-.119,2.594Zm.119-2.594Zm-1.1,1.074c.033.05.142-.092.152-.1l-.152.1Zm-2.774,6.827,9.233-2.4c7.6-1.578,24.362-1.748,31.493-.22l-7.192-9.727c-1.077-1.677-2.373-3.4-3.228-5.1l-2.7-5.446c-.638,1.249-18.137,14.763-20.895,17.157-2.3,2-4.652,3.739-6.716,5.737Zm1.5,1.214c-3.79,1.286-10.844,6.573-5.348-1.043l30.2-41.669c.036,2.071,2.169,8.643,2.86,11.091,5.83,1.25,9.43,2.525,12.82,5.368-.785,1.538-1.292,1.342-2.663,1.994-2.754,1.31-5.579,2.614-7.564,4.98,1.036,2.6,3.808,6.3,5.65,8.569,1.082,1.334,1.956,2.639,3.123,4.09,3.061,3.8,2.878,1.947,2.375,4.574C181.92,1042.476,163.465,1043.1,152,1046.995Z" transform="translate(-7.742 -3.773)" fill="#969696" fill-rule="evenodd"/>
      <path id="Path_155" data-name="Path 155" d="M119.615,1112.448c.037-.074,1.926-5.884,1.939-5.967-2.042,1.1-3.233,2.958-4.638,4.142a8.321,8.321,0,0,0,2.7,1.824Zm-8.264,12.387c.294-2.535.624-4.858.974-7.462.356-2.658.818-4.752,1.29-7.357.754-4.161,1.989-2.279,6.66-4.661l.287.566c-6.1,3.112-5.809,9.06-7.379,15.74l-2.344,10.55Zm-.512,7.377Zm-.133,1.134Zm-1.142-1.551,3.287-24-4.385-3.265c-.624,1.238.676,26.232,1.1,27.27Zm1.142,1.551Zm-1.142-1.551Zm-.134,1.135c.042.013.039-.119.041-.127l-.041.127Zm1.591,5.234,4.191-5.7c3.634-4.465,13.2-12.406,18.012-14.86l-8.676-2.245c-1.4-.462-2.954-.852-4.237-1.43l-4.091-1.88c.216,1.017-3.544,17-4.013,19.668-.393,2.23-.932,4.332-1.186,6.449Zm1.432,0c-1.58,2.515-3.17,8.864-3.563,1.9l-2.07-38.158c.987,1.178,5.281,3.97,6.821,5.057,3.936-2.006,6.6-2.955,9.879-2.9.266,1.254-.116,1.377-.6,2.4-.973,2.044-1.989,4.118-2.027,6.41a30.489,30.489,0,0,0,7.248,2.3c1.245.264,2.357.608,3.706.9,3.535.76,2.564-.224,3.5,1.526C127.552,1121.56,117.228,1130.554,112.453,1138.16Z" transform="translate(-1.155 -20.775)" fill="#969696" fill-rule="evenodd"/>
      <path id="Path_156" data-name="Path 156" d="M546.381,1067.53c-.16-1.56-.069-2.993-.854-4.567-2.344,1.171-5.446,1.679-8.041,3.732.116.03,8.777.841,8.9.835Zm30.795-.316-15.111-2.9c-9.617-1.723-17.221-5.474-24.746.761l-.576-.7c5.759-4.769,4-7.451,9.865-6.086,3.671.855,6.668,1.435,10.343,2.471,3.6,1.015,6.82,1.9,10.3,2.945Zm0,0Zm1.558.467Zm-1.379-2.373c-1.117-1.14-33.031-16.978-35-16.861l1.779,7.59,33.224,9.271Zm1.379,2.373Zm-1.379-2.373Zm1.558.468-.19-.018c.012,0,.183.081.19.018Zm5.936,5.043c-2.91-.865-5.961-1.348-9.1-2.094-3.755-.9-26.762-5.01-27.97-5.869l.135,6.422c.027,2.008-.343,4.261-.533,6.359l-1.986,12.632c5.936-4.918,21.733-12.952,29.625-15.185l9.827-2.264Zm-40.672,20.218c-1.756-2.216-1.02-.387-.009-5.447.386-1.931.566-3.582.928-5.36.618-3.027,1.407-7.849,1.107-10.792-3.017-1.248-6.3-1.089-9.524-.971-1.6.059-1.983.49-3.471-.568,1.788-4.321,4.539-7.276,9.391-11.3-.548-2.632-1.762-9.834-2.739-11.793l48.675,24.293c8.874,4.451-.323,2.945-4.5,3.591C571.387,1074.643,553.784,1083.077,544.177,1091.036Z" transform="translate(-75.416 -10.831)" fill="#969696" fill-rule="evenodd"/>
      <line id="Line_27" data-name="Line 27" x2="345.905" transform="translate(112.284 1197.667)" stroke-dasharray="310 10.52" stroke="#878787" stroke-linecap="round" stroke-linejoin="round" stroke-width="4" fill="none"/>
      <g id="Group_156" data-name="Group 156" transform="translate(191.373 1045.866)">
        <rect id="Rectangle_214" data-name="Rectangle 214" width="199.368" height="133.06" rx="3.394" transform="translate(0 0)" stroke-width="2" stroke="#878787" stroke-linecap="round" stroke-linejoin="round" fill="none"/>
        <rect id="Rectangle_215" data-name="Rectangle 215" width="179.875" height="115.356" rx="3.462" transform="translate(9.747 8.852)" stroke-width="2" stroke="#878787" stroke-linecap="round" stroke-linejoin="round" fill="#fff"/>
        <rect id="Rectangle_216" data-name="Rectangle 216" width="41.319" height="9.591" transform="translate(79.024 133.06)" stroke-width="2" stroke="#878787" stroke-linecap="round" stroke-linejoin="round" fill="none"/>
        <rect id="Rectangle_217" data-name="Rectangle 217" width="64.551" height="9.591" rx="3.394" transform="translate(67.408 142.65)" stroke-width="2" stroke="#878787" stroke-linecap="round" stroke-linejoin="round" fill="none"/>
      </g>
      <text id="Oops_" data-name="Oops!" transform="translate(228.131 1125.513) rotate(0.143)" fill="#32bcc9" font-size="41" font-family="SegoeUI, Segoe UI" letter-spacing="0.05em"><tspan x="0" y="0">Oops!</tspan></text>
      <path id="Path_157" data-name="Path 157" stroke="#bfbfbf" d="M501.2,1102.852a151.55,151.55,0,0,1,7.338,111.706" fill="none" transform="translate(-69.841 -20.94)" stroke-linecap="round" stroke-miterlimit="10" stroke-width="2" stroke-dasharray="7.248" fill-rule="evenodd"/>
      <path id="Path_158" data-name="Path 158" stroke="#bfbfbf" d="M395.661,1000.294a166.154,166.154,0,0,1,74.506,61.787" fill="none" transform="translate(-51.46 -3.078)" stroke-linecap="round" stroke-miterlimit="10" stroke-width="2" stroke-dasharray="7.248" fill-rule="evenodd"/>
      <path id="Path_159" data-name="Path 159" stroke="#bfbfbf" d="M212.751,1009.548a165.025,165.025,0,0,1,97.737-24.383,167,167,0,0,1,25.163,3.543" fill="none" transform="translate(-19.605 -0.383)" stroke-linecap="round" stroke-miterlimit="10" stroke-width="2" stroke-dasharray="7.248" fill-rule="evenodd"/>
      <path id="Path_160" data-name="Path 160" stroke="#bfbfbf" d="M503.273,1082.928a166.068,166.068,0,0,1,15.058-9.583" fill="none" transform="translate(-70.202 -15.801)" stroke-linecap="round" stroke-miterlimit="10" stroke-width="2" stroke-dasharray="7.248" fill-rule="evenodd"/>
      <path id="Path_161" data-name="Path 161" stroke="#bfbfbf" d="M455.618,1127.141a166.682,166.682,0,0,1,24.3-27.489" fill="none" transform="translate(-61.902 -20.383)" stroke-linecap="round" stroke-miterlimit="10" stroke-width="2" stroke-dasharray="7.248" fill-rule="evenodd"/>
      <line id="Line_28" data-name="Line 28" x2="52.801" transform="translate(134.189 1107.351)" fill="none" stroke="#878787" stroke-linecap="round" stroke-linejoin="round" stroke-width="2"/>
      <line id="Line_29" data-name="Line 29" x2="27.27" transform="translate(160.208 1117.441)" fill="none" stroke="#878787" stroke-linecap="round" stroke-linejoin="round" stroke-width="2"/>
      <line id="Line_30" data-name="Line 30" x2="12.107" transform="translate(143.596 1117.441)" fill="none" stroke="#878787" stroke-linecap="round" stroke-linejoin="round" stroke-width="2"/>
      <circle id="Ellipse_40" data-name="Ellipse 40" cx="4.164" cy="4.164" r="4.164" transform="translate(130.025 1113.041)" stroke-width="2" stroke="#878787" stroke-linecap="round" stroke-linejoin="round" fill="none"/>
      <circle id="Ellipse_41" data-name="Ellipse 41" cx="4.164" cy="4.164" r="4.164" transform="translate(301.183 1023.352)" stroke-width="2" stroke="#878787" stroke-linecap="round" stroke-linejoin="round" fill="none"/>
      <circle id="Ellipse_42" data-name="Ellipse 42" cx="6.075" cy="6.075" r="6.075" transform="translate(419.669 1153.039)" stroke-width="2" stroke="#878787" stroke-linecap="round" stroke-linejoin="round" fill="none"/>
      <circle id="Ellipse_43" data-name="Ellipse 43" cx="3.554" cy="3.554" r="3.554" transform="translate(458.517 1132.747)" fill="none" stroke="#32bcc9" stroke-miterlimit="10" stroke-width="2"/>
      <circle id="Ellipse_44" data-name="Ellipse 44" cx="3.554" cy="3.554" r="3.554" transform="translate(275.244 1008.759)" fill="none" stroke="#32bcc9" stroke-miterlimit="10" stroke-width="2"/>
      <circle id="Ellipse_45" data-name="Ellipse 45" cx="3.554" cy="3.554" r="3.554" transform="translate(360.724 982.618)" stroke-width="2" stroke="#878787" stroke-linecap="round" stroke-linejoin="round" fill="none"/>
      <circle id="Ellipse_46" data-name="Ellipse 46" cx="3.554" cy="3.554" r="3.554" transform="translate(100.184 1143.41)" fill="none" stroke="#32bcc9" stroke-miterlimit="10" stroke-width="2"/>
      <path id="Path_162" data-name="Path 162" d="M377.715,982.918l-2.192,9.049,4.68-2.057-2.085,8.61" transform="translate(-47.953 -0.052)" fill="none" stroke="#bfbfbf" stroke-linecap="round" stroke-miterlimit="10" stroke-width="2"/>
      <path id="Path_163" data-name="Path 163" d="M500.521,1090.745l-8.668-3.4,1.4,4.916-8.247-3.236" transform="translate(-67.021 -18.239)" fill="none" stroke="#bfbfbf" stroke-linecap="round" stroke-miterlimit="10" stroke-width="2"/>
    </g>
    <g id="Path_164" data-name="Path 164" transform="translate(580 356)" fill="none" opacity="0">
      <path d="M0,0H430V225H0Z" stroke="none"/>
      <path d="M 1 1 L 1 224 L 354.9477233886719 224 L 429 224 L 429 1 L 1 1 M 0 0 L 430 0 L 430 225 L 354.9477233886719 225 L 0 225 L 0 0 Z" stroke="none" fill="#707070"/>
    </g>
  </g>
</svg>
