<svg width="30" height="30" viewBox="0 0 30 30" fill="none" xmlns="http://www.w3.org/2000/svg">
<g filter="url(#filter0_d_286_2201)">
<path fill-rule="evenodd" clip-rule="evenodd" d="M6.9375 9C6.9375 7.86092 7.86092 6.9375 9 6.9375H21C22.1391 6.9375 23.0625 7.86092 23.0625 9V21C23.0625 22.1391 22.1391 23.0625 21 23.0625H9C7.86092 23.0625 6.9375 22.1391 6.9375 21V9ZM16.2724 10.1399C16.4713 9.90124 16.826 9.86899 17.0647 10.0679L19.1101 11.7724C19.238 11.879 19.3121 12.0368 19.3125 12.2033C19.3129 12.3698 19.2395 12.5279 19.112 12.6351L17.0665 14.3551C16.8288 14.555 16.474 14.5244 16.274 14.2866C16.0741 14.0489 16.1047 13.694 16.3425 13.4941L17.2071 12.767H12.6136C12.1712 12.767 11.8125 13.1257 11.8125 13.5682V14.25C11.8125 14.5606 11.5607 14.8125 11.25 14.8125C10.9393 14.8125 10.6875 14.5606 10.6875 14.25V13.5682C10.6875 12.5044 11.5499 11.642 12.6136 11.642H17.1964L16.3444 10.9321C16.1058 10.7332 16.0736 10.3786 16.2724 10.1399ZM13.7328 19.558C13.5374 19.7996 13.1833 19.837 12.9417 19.6416L10.8963 17.9873C10.7632 17.8797 10.6864 17.7173 10.6875 17.5461C10.6887 17.375 10.7677 17.2137 10.9022 17.1078L12.9477 15.499C13.1919 15.3069 13.5455 15.3492 13.7376 15.5934C13.9297 15.8376 13.8874 16.1912 13.6432 16.3833L12.875 16.9875H17.3863C17.8985 16.9875 18.1875 16.6366 18.1875 16.35V15.75C18.1875 15.4393 18.4394 15.1875 18.75 15.1875C19.0606 15.1875 19.3125 15.4393 19.3125 15.75V16.35C19.3125 17.3888 18.3804 18.1125 17.3863 18.1125H12.84L13.6492 18.7669C13.8908 18.9623 13.9282 19.3165 13.7328 19.558Z" fill="#FDF3E9"/>
</g>
<defs>
<filter id="filter0_d_286_2201" x="0.9375" y="0.9375" width="28.125" height="28.125" filterUnits="userSpaceOnUse" color-interpolation-filters="sRGB">
<feFlood flood-opacity="0" result="BackgroundImageFix"/>
<feColorMatrix in="SourceAlpha" type="matrix" values="0 0 0 0 0 0 0 0 0 0 0 0 0 0 0 0 0 0 127 0" result="hardAlpha"/>
<feOffset/>
<feGaussianBlur stdDeviation="3"/>
<feComposite in2="hardAlpha" operator="out"/>
<feColorMatrix type="matrix" values="0 0 0 0 0 0 0 0 0 0 0 0 0 0 0 0 0 0 0.8 0"/>
<feBlend mode="normal" in2="BackgroundImageFix" result="effect1_dropShadow_286_2201"/>
<feBlend mode="normal" in="SourceGraphic" in2="effect1_dropShadow_286_2201" result="shape"/>
</filter>
</defs>
</svg>
